<?xml version="1.0" encoding="UTF-8" standalone="no"?>
<!-- Created with Inkscape (http://www.inkscape.org/) -->

<svg
   xmlns:dc="http://purl.org/dc/elements/1.1/"
   xmlns:cc="http://creativecommons.org/ns#"
   xmlns:rdf="http://www.w3.org/1999/02/22-rdf-syntax-ns#"
   xmlns:svg="http://www.w3.org/2000/svg"
   xmlns="http://www.w3.org/2000/svg"
   xmlns:sodipodi="http://sodipodi.sourceforge.net/DTD/sodipodi-0.dtd"
   xmlns:inkscape="http://www.inkscape.org/namespaces/inkscape"
   width="200"
   height="100"
   id="svg7229"
   sodipodi:version="0.32"
   inkscape:version="0.48.4 r9939"
   version="1.0"
   sodipodi:docname="configure.svg"
   inkscape:output_extension="org.inkscape.output.svgz.inkscape">
  <title
     id="title3001">Tilain</title>
  <defs
     id="defs7231" />
  <sodipodi:namedview
     id="base"
     pagecolor="#ffffff"
     bordercolor="#666666"
     borderopacity="1.0"
     inkscape:pageopacity="0"
     inkscape:pageshadow="2"
     inkscape:zoom="8"
     inkscape:cx="-16.368507"
     inkscape:cy="33.023777"
     inkscape:document-units="px"
     inkscape:current-layer="layer1"
     showgrid="true"
     inkscape:window-width="1920"
     inkscape:window-height="1030"
     inkscape:window-x="0"
     inkscape:window-y="23"
     showguides="true"
     inkscape:guide-bbox="true"
     gridtolerance="6"
     inkscape:window-maximized="1">
    <inkscape:grid
       type="xygrid"
       id="grid7245"
       visible="true"
       enabled="true"
       empspacing="5"
       snapvisiblegridlinesonly="true" />
  </sodipodi:namedview>
  <metadata
     id="metadata7234">
    <rdf:RDF>
      <cc:Work
         rdf:about="">
        <dc:format>image/svg+xml</dc:format>
        <dc:type
           rdf:resource="http://purl.org/dc/dcmitype/StillImage" />
        <dc:title>Tilain</dc:title>
      </cc:Work>
    </rdf:RDF>
  </metadata>
  <g
     inkscape:label="Camada 1"
     inkscape:groupmode="layer"
     id="layer1"
     transform="translate(-214.53572,-326.50504)">
    <g
       id="configure"
       transform="translate(-106,12)">
      <path
         transform="translate(214.53572,326.50504)"
         id="rect3858"
         d="m 106,16 0,32 32,0 0,-32 -32,0 z"
         style="opacity:0;fill:#000000;fill-opacity:1"
         inkscape:connector-curvature="0" />
      <path
         style="fill:#ffffff;fill-opacity:0.2;stroke:none"
         d="m 22,23 c -1.473193,0 -2.71992,0.813763 -3.40625,2 L 4,25 l 0,4 14.59375,0 c 0.68633,1.186237 1.933057,2 3.40625,2 1.473193,0 2.71992,-0.813763 3.40625,-2 L 28,29 28,25 25.40625,25 C 24.71992,23.813763 23.473193,23 22,23 z M 10,30 C 8.5207915,30 7.2545851,30.806209 6.5625,32 L 4,32 l 0,4 2.5625,0 c 0.6920851,1.193791 1.9582915,2 3.4375,2 1.479209,0 2.745415,-0.806209 3.4375,-2 L 28,36 28,32 13.4375,32 C 12.745415,30.806209 11.479209,30 10,30 z m 7,7 c -1.479209,0 -2.745415,0.806209 -3.4375,2 L 4,39 l 0,4 9.5625,0 c 0.692085,1.193791 1.958291,2 3.4375,2 1.479209,0 2.745415,-0.806209 3.4375,-2 L 28,43 28,39 20.4375,39 C 19.745415,37.806209 18.479209,37 17,37 z"
         transform="translate(320.53572,324.50504)"
         id="path4082"
         inkscape:connector-curvature="0" />
      <path
         inkscape:export-ydpi="90"
         inkscape:export-xdpi="90"
         inkscape:export-filename="/home/fabi/Projekte/tilain/tilain/32x32/apps/preferences-system.png"
         inkscape:connector-curvature="0"
         id="rect4005"
         d="m 342.53572,348.50504 c 1.30132,0 2.39699,0.84165 2.8125,2 l 2.1875,0 0,2 -2.1875,0 c -0.41551,1.15835 -1.51118,2 -2.8125,2 -1.30132,0 -2.39699,-0.84165 -2.8125,-2 l -14.1875,0 0,-2 14.1875,0 c 0.41551,-1.15835 1.51118,-2 2.8125,-2 z m 0,2 c -0.55229,0 -1,0.44772 -1,1 0,0.55228 0.44771,1 1,1 0.55228,0 1,-0.44772 1,-1 0,-0.55228 -0.44772,-1 -1,-1 z m -12,5 c 1.30132,0 2.39699,0.84165 2.8125,2 l 14.1875,0 0,2 -14.1875,0 c -0.41551,1.15835 -1.51118,2 -2.8125,2 -1.30132,0 -2.39699,-0.84165 -2.8125,-2 l -2.1875,0 0,-2 2.1875,0 c 0.41551,-1.15835 1.51118,-2 2.8125,-2 z m 0,2 c -0.55229,0 -1,0.44772 -1,1 0,0.55228 0.44771,1 1,1 0.55228,0 1,-0.44772 1,-1 0,-0.55228 -0.44772,-1 -1,-1 z m 7,5 c 1.30132,0 2.39699,0.84165 2.8125,2 l 7.1875,0 0,2 -7.1875,0 c -0.41551,1.15835 -1.51118,2 -2.8125,2 -1.30132,0 -2.39699,-0.84165 -2.8125,-2 l -9.1875,0 0,-2 9.1875,0 c 0.41551,-1.15835 1.51118,-2 2.8125,-2 z m 0,2 c -0.55229,0 -1,0.44772 -1,1 0,0.55228 0.44771,1 1,1 0.55228,0 1,-0.44772 1,-1 0,-0.55228 -0.44772,-1 -1,-1 z"
         style="fill:#262626;fill-opacity:1;stroke:none" />
    </g>
    <g
       id="16-16-configure"
       transform="translate(-114,2)">
      <path
         id="rect3866-2"
         transform="translate(214.53572,326.50504)"
         d="m 114,82 0,15 0,1 16,0 0,-16 -1,0 -15,0 z"
         style="opacity:0;fill:#000000;fill-opacity:1"
         inkscape:connector-curvature="0" />
      <path
         inkscape:connector-curvature="0"
         style="fill:#ffffff;fill-opacity:0.2;stroke:none"
         d="m 18,86 c -0.884468,0 -1.669676,0.391095 -2.21875,1 L 9,87 l 0,4 6.78125,0 c 0.549074,0.608905 1.334282,1 2.21875,1 0.884468,0 1.669676,-0.391095 2.21875,-1 L 23,91 23,87 20.21875,87 C 19.669676,86.391095 18.884468,86 18,86 z m -4,7 c -0.884468,0 -1.669676,0.391095 -2.21875,1 L 9,94 l 0,4 2.78125,0 c 0.549074,0.608905 1.334282,1 2.21875,1 0.884468,0 1.669676,-0.391095 2.21875,-1 L 23,98 23,94 16.21875,94 C 15.669676,93.391095 14.884468,93 14,93 z"
         transform="translate(320.53572,324.50504)"
         id="path3781-3"
         sodipodi:nodetypes="sccccsccccssccccsccccs" />
      <path
         style="fill:#262626;fill-opacity:1;stroke:none"
         d="m 18,87 c -0.739604,0 -1.372707,0.403104 -1.71875,1 L 10,88 l 0,2 6.28125,0 c 0.346043,0.596896 0.979146,1 1.71875,1 0.739604,0 1.372707,-0.403104 1.71875,-1 L 22,90 22,88 19.71875,88 C 19.372707,87.403104 18.739604,87 18,87 z m -4,7 c -0.739604,0 -1.372707,0.403104 -1.71875,1 L 10,95 l 0,2 2.28125,0 c 0.346043,0.596896 0.979146,1 1.71875,1 0.739604,0 1.372707,-0.403104 1.71875,-1 L 22,97 22,95 15.71875,95 C 15.372707,94.403104 14.739604,94 14,94 z"
         transform="translate(320.53572,324.50504)"
         id="path4076-0"
         inkscape:connector-curvature="0"
         sodipodi:nodetypes="sccccsccccssccccsccccs" />
    </g>
    <g
       id="22-22-configure"
       transform="translate(0,-20)">
      <path
         inkscape:connector-curvature="0"
         style="opacity:0;fill:#000000;fill-opacity:1"
         d="m 214.53573,404.50504 0,20.625 0,1.375 22,0 0,-22 -1.375,0 -20.625,0 z"
         id="path3013" />
      <path
         transform="translate(214.53572,326.50504)"
         id="rect3799"
         d="m 14,81 c -1.483803,0 -2.746946,0.806182 -3.4375,2 L 2,83 l 0,4 8.5625,0 c 0.690554,1.193818 1.953697,2 3.4375,2 1.483803,0 2.746946,-0.806182 3.4375,-2 L 20,87 20,83 17.4375,83 C 16.746946,81.806182 15.483803,81 14,81 z M 8,90 C 6.5161975,90 5.2530539,90.806182 4.5625,92 L 2,92 l 0,4 2.5625,0 c 0.6905539,1.193818 1.9536975,2 3.4375,2 1.4838025,0 2.746946,-0.806182 3.4375,-2 L 20,96 20,92 11.4375,92 C 10.746946,90.806182 9.4838025,90 8,90 z"
         style="fill:#ffffff;fill-opacity:0.2;stroke:none"
         inkscape:connector-curvature="0" />
      <path
         style="fill:#262626;fill-opacity:1;stroke:none"
         d="m 228.53573,408.50504 c -1.30132,0 -2.39699,0.84165 -2.8125,2 l -8.1875,0 0,2 8.1875,0 c 0.41551,1.15835 1.51118,2 2.8125,2 1.30132,0 2.39699,-0.84165 2.8125,-2 l 2.1875,0 0,-2 -2.1875,0 c -0.41551,-1.15835 -1.51118,-2 -2.8125,-2 z m 0,2 c 0.55229,0 1,0.44771 1,1 0,0.55229 -0.44771,1 -1,1 -0.55229,0 -1,-0.44771 -1,-1 0,-0.55229 0.44771,-1 1,-1 z m -6,7 c -1.30132,0 -2.39699,0.84165 -2.8125,2 l -2.1875,0 0,2 2.1875,0 c 0.41551,1.15835 1.51118,2 2.8125,2 1.30132,0 2.39699,-0.84165 2.8125,-2 l 8.1875,0 0,-2 -8.1875,0 c -0.41551,-1.15835 -1.51118,-2 -2.8125,-2 z m 0,2 c 0.55228,0 1,0.44771 1,1 0,0.55229 -0.44772,1 -1,1 -0.55228,0 -1,-0.44771 -1,-1 0,-0.55229 0.44772,-1 1,-1 z"
         id="path3017"
         inkscape:connector-curvature="0" />
    </g>
  </g>
</svg>
