<?xml version="1.0" encoding="UTF-8" standalone="no"?>
<!-- Created with Inkscape (http://www.inkscape.org/) -->

<svg
   xmlns:dc="http://purl.org/dc/elements/1.1/"
   xmlns:cc="http://creativecommons.org/ns#"
   xmlns:rdf="http://www.w3.org/1999/02/22-rdf-syntax-ns#"
   xmlns:svg="http://www.w3.org/2000/svg"
   xmlns="http://www.w3.org/2000/svg"
   xmlns:sodipodi="http://sodipodi.sourceforge.net/DTD/sodipodi-0.dtd"
   xmlns:inkscape="http://www.inkscape.org/namespaces/inkscape"
   width="200"
   height="100"
   id="svg7229"
   sodipodi:version="0.32"
   inkscape:version="0.48.4 r9939"
   version="1.0"
   sodipodi:docname="edit.svg"
   inkscape:output_extension="org.inkscape.output.svgz.inkscape">
  <title
     id="title2998">Tilain</title>
  <defs
     id="defs7231" />
  <sodipodi:namedview
     id="base"
     pagecolor="#ffffff"
     bordercolor="#666666"
     borderopacity="1.0"
     inkscape:pageopacity="0"
     inkscape:pageshadow="2"
     inkscape:zoom="16"
     inkscape:cx="7.668535"
     inkscape:cy="24.609625"
     inkscape:document-units="px"
     inkscape:current-layer="layer1"
     showgrid="true"
     inkscape:window-width="1920"
     inkscape:window-height="1030"
     inkscape:window-x="0"
     inkscape:window-y="23"
     showguides="true"
     inkscape:guide-bbox="true"
     gridtolerance="6"
     inkscape:window-maximized="1">
    <inkscape:grid
       type="xygrid"
       id="grid7245"
       visible="true"
       enabled="true"
       empspacing="5"
       snapvisiblegridlinesonly="true" />
  </sodipodi:namedview>
  <metadata
     id="metadata7234">
    <rdf:RDF>
      <cc:Work
         rdf:about="">
        <dc:format>image/svg+xml</dc:format>
        <dc:type
           rdf:resource="http://purl.org/dc/dcmitype/StillImage" />
        <dc:title>Tilain</dc:title>
      </cc:Work>
    </rdf:RDF>
  </metadata>
  <g
     inkscape:label="Camada 1"
     inkscape:groupmode="layer"
     id="layer1"
     transform="translate(-214.53572,-326.50504)">
    <g
       id="edit-delete"
       transform="matrix(2,0,0,2,-400.53569,-442.50503)">
      <rect
         y="398.50504"
         x="307.53571"
         height="16"
         width="16"
         id="rect3024"
         style="fill:#802626;fill-opacity:0;fill-rule:nonzero;stroke:none" />
      <path
         sodipodi:nodetypes="ccccccccccccc"
         inkscape:connector-curvature="0"
         style="fill:#ffffff;fill-opacity:0.2"
         d="m 312.53571,400.50504 0,2 -2.5,0 0,2.5 1,0 0,7.5 9,0 0,-7.5 1,0 0,-2.5 -2.5,0 0,-2 z"
         id="path2997" />
      <path
         id="path3026"
         d="m 313.03571,401.00504 0,2 -2.5,0 0,1.5 1,0 0,7.5 8,0 0,-7.5 1,0 0,-1.5 -2.5,0 0,-2 z m 1,1 3,0 0,1 -3,0 z m -0.5,2.5 0,6.5 -1,0 0,-6.5 z m 2.5,0 0,6.5 -1,0 0,-6.5 z m 2.5,0 0,6.5 -1,0 0,-6.5 z"
         style="fill:#262626;fill-opacity:1"
         inkscape:connector-curvature="0"
         sodipodi:nodetypes="ccccccccccccccccccccccccccccccccc" />
    </g>
    <g
       id="16-16-edit-delete"
       transform="translate(-93,12)">
      <rect
         y="398.50504"
         x="307.53571"
         height="16"
         width="16"
         id="rect3770"
         style="fill:#802626;fill-opacity:0;fill-rule:nonzero;stroke:none" />
      <path
         sodipodi:nodetypes="ccccccccccccc"
         inkscape:connector-curvature="0"
         style="fill:#ffffff;fill-opacity:0.2"
         d="m 311.53571,399.50504 0,2 -3,0 0,4 1,0 0,8 11,0 0,-8 1,0 0,-4 -3,0 0,-2 z"
         id="path3947" />
      <path
         id="path2922"
         d="m 312.53571,400.50504 0,2 -3,0 0,2 1,0 -10e-6,8 9,0 10e-6,-8 1,0 0,-2 -3,0 0,-2 z m 1,1 3,0 0,1 -3,0 z m -1,3 -10e-6,7 -1,0 10e-6,-7 z m 3,0 -10e-6,7 -1,0 10e-6,-7 z m 3,0 -10e-6,7 -1,0 10e-6,-7 z"
         style="fill:#262626;fill-opacity:1"
         inkscape:connector-curvature="0"
         sodipodi:nodetypes="ccccccccccccccccccccccccccccccccc" />
    </g>
    <g
       transform="matrix(1.375,0,0,1.375,-208.32588,-163.43938)"
       id="22-22-edit-delete">
      <rect
         style="fill:#802626;fill-opacity:0;fill-rule:nonzero;stroke:none"
         id="rect3013"
         width="16"
         height="16"
         x="307.53571"
         y="398.50504" />
      <path
         id="path3787"
         d="m 311.89935,399.23231 0,2.18181 -2.9091,0.72728 10e-6,2.90909 0.72727,0 0,8.72727 11.63636,0 0,-8.72727 0.72727,0 0,-3.63637 -2.90909,0 0,-2.18182 z"
         style="fill:#ffffff;fill-opacity:0.2"
         inkscape:connector-curvature="0"
         sodipodi:nodetypes="ccccccccccccc" />
      <path
         sodipodi:nodetypes="ccccccccccccccccccccccccccccccccc"
         inkscape:connector-curvature="0"
         style="fill:#262626;fill-opacity:1"
         d="m 312.62662,399.95958 0,2.18182 -2.90909,0 0,2.18181 0.72727,0 0,8.72727 10.18182,0 0,-8.72727 0.72727,0 0,-2.18181 -2.90909,0 0,-2.18182 z m 1.45454,1.45454 2.90909,0 0,0.72728 -2.90909,0 z m -0.72727,2.90909 0,7.27273 -1.45454,0 0,-7.27273 z m 2.90909,0 0,7.27273 -1.45454,0 0,-7.27273 z m 2.90909,0 0,7.27273 -1.45455,-0.0455 0,-7.22728 z"
         id="path3017" />
    </g>
  </g>
</svg>
