<?xml version="1.0" encoding="UTF-8" standalone="no"?>
<!-- Created with Inkscape (http://www.inkscape.org/) -->

<svg
   xmlns:dc="http://purl.org/dc/elements/1.1/"
   xmlns:cc="http://creativecommons.org/ns#"
   xmlns:rdf="http://www.w3.org/1999/02/22-rdf-syntax-ns#"
   xmlns:svg="http://www.w3.org/2000/svg"
   xmlns="http://www.w3.org/2000/svg"
   xmlns:sodipodi="http://sodipodi.sourceforge.net/DTD/sodipodi-0.dtd"
   xmlns:inkscape="http://www.inkscape.org/namespaces/inkscape"
   width="200"
   height="300"
   id="svg7229"
   sodipodi:version="0.32"
   inkscape:version="0.48.4 r9939"
   version="1.0"
   sodipodi:docname="go.svg"
   inkscape:output_extension="org.inkscape.output.svgz.inkscape">
  <title
     id="title3065">Tilain</title>
  <defs
     id="defs7231" />
  <sodipodi:namedview
     id="base"
     pagecolor="#ffffff"
     bordercolor="#666666"
     borderopacity="1.0"
     inkscape:pageopacity="0"
     inkscape:pageshadow="2"
     inkscape:zoom="16"
     inkscape:cx="53.976521"
     inkscape:cy="120.72425"
     inkscape:document-units="px"
     inkscape:current-layer="layer1"
     showgrid="true"
     inkscape:window-width="1920"
     inkscape:window-height="1030"
     inkscape:window-x="0"
     inkscape:window-y="23"
     showguides="true"
     inkscape:guide-bbox="true"
     gridtolerance="6"
     inkscape:window-maximized="1">
    <inkscape:grid
       type="xygrid"
       id="grid7245"
       visible="true"
       enabled="true"
       empspacing="5"
       snapvisiblegridlinesonly="true" />
    <sodipodi:guide
       orientation="0,1"
       position="2,8"
       id="guide3923" />
    <sodipodi:guide
       orientation="1,0"
       position="8,17"
       id="guide3925" />
  </sodipodi:namedview>
  <metadata
     id="metadata7234">
    <rdf:RDF>
      <cc:Work
         rdf:about="">
        <dc:format>image/svg+xml</dc:format>
        <dc:type
           rdf:resource="http://purl.org/dc/dcmitype/StillImage" />
        <dc:title>Tilain</dc:title>
      </cc:Work>
    </rdf:RDF>
  </metadata>
  <g
     inkscape:label="Camada 1"
     inkscape:groupmode="layer"
     id="layer1"
     transform="translate(-214.53572,-126.50504)">
    <g
       id="16-16-go-previous"
       transform="matrix(0.5,0,0,0.5,158.76786,245.25252)">
      <rect
         style="opacity:0;fill:#000000;fill-opacity:1;fill-rule:nonzero;stroke:none"
         id="rect3065"
         width="32"
         height="32"
         x="219.53572"
         y="330.50504" />
      <path
         id="path3799"
         d="m 241.53572,332.50504 -14,14 14,14 2,-2 0,-24 z"
         style="fill:#ffffff;fill-opacity:0.2;stroke:none"
         inkscape:connector-curvature="0"
         sodipodi:nodetypes="cccccc" />
      <path
         sodipodi:nodetypes="cccc"
         inkscape:connector-curvature="0"
         style="fill:#262626;fill-opacity:1;stroke:none"
         d="m 241.53572,334.50504 -12,12 12,12 z"
         id="path3067" />
    </g>
    <g
       id="16-16-go-home"
       transform="matrix(0.5,0,0,0.5,109.76786,208.25252)">
      <rect
         style="opacity:0;fill:#000000;fill-opacity:1;fill-rule:nonzero;stroke:none"
         id="rect3126"
         width="32"
         height="32"
         x="253.53572"
         y="372.50504" />
      <path
         sodipodi:nodetypes="cccccccccccccc"
         inkscape:connector-curvature="0"
         id="path3801"
         d="m 269.53572,374.50504 -14,14 0,4 2,0 0,10 24,0 0,-10 2,-2 0,-2 -2,-2 0,-10 -8,0 0,2 z"
         style="fill:#ffffff;fill-opacity:0.2" />
      <path
         style="fill:#262626;fill-opacity:1"
         d="m 269.53572,376.50504 -12,12 0,2 2,0 0,10 20,0 0,-10 2,0 0,-2 -2,-2 0,-8 -4,0 0,4 z"
         id="path3130"
         inkscape:connector-curvature="0"
         sodipodi:nodetypes="cccccccccccccc" />
    </g>
    <g
       id="22-22-go-home"
       transform="translate(-33,63)">
      <rect
         style="opacity:0;fill:#000000;fill-opacity:1;fill-rule:nonzero;stroke:none"
         id="rect3286"
         width="22"
         height="22"
         x="253.53572"
         y="279.50504" />
      <path
         sodipodi:nodetypes="cccccccccccccc"
         inkscape:connector-curvature="0"
         id="path3809"
         d="m 264.53572,281.50504 -9,9 0,3 1,0 0,6 16,0 0,-6 1,0 0,-3 -2,-2 0,-6 -4,0 0,2 z"
         style="fill:#ffffff;fill-opacity:0.2" />
      <path
         style="fill:#262626;fill-opacity:1"
         d="m 264.53572,282.50504 -8,8 0,2 1,0 0,6 14,0 0,-6 1,0 0,-2 -2,-2 0,-5 -2,0 0,3 z"
         id="path3290"
         inkscape:connector-curvature="0"
         sodipodi:nodetypes="cccccccccccccc" />
    </g>
    <g
       id="22-22-go-previous"
       transform="translate(44.999999,127)">
      <rect
         style="opacity:0;fill:#000000;fill-opacity:1;fill-rule:nonzero;stroke:none"
         id="rect3226"
         width="22"
         height="22"
         x="219.53572"
         y="237.50504" />
      <path
         id="path3811"
         d="m 234.53572,239.50504 -9,9 9,9 1,-1 0,-16 z"
         style="fill:#ffffff;fill-opacity:0.2;stroke:none"
         inkscape:connector-curvature="0"
         sodipodi:nodetypes="cccccc" />
      <path
         sodipodi:nodetypes="cccc"
         inkscape:connector-curvature="0"
         style="fill:#262626;fill-opacity:1;stroke:none"
         d="m 234.53572,240.50504 -8,8 8,8 z"
         id="path3228" />
    </g>
    <g
       transform="matrix(0,-1,1,0,27.030685,584.04076)"
       id="22-22-go-down">
      <rect
         y="237.50504"
         x="219.53572"
         height="22"
         width="22"
         id="rect3960"
         style="opacity:0;fill:#000000;fill-opacity:1;fill-rule:nonzero;stroke:none" />
      <path
         sodipodi:nodetypes="cccccc"
         inkscape:connector-curvature="0"
         style="fill:#ffffff;fill-opacity:0.2;stroke:none"
         d="m 235.53572,240.50503 -1,-1.00001 -9,9 9,9.00002 1,-1 z"
         id="path3813" />
      <path
         id="path3962"
         d="m 234.53572,240.50503 -8,8 8,8.00001 z"
         style="fill:#262626;fill-opacity:1;stroke:none"
         inkscape:connector-curvature="0"
         sodipodi:nodetypes="cccc" />
    </g>
    <g
       id="22-22-go-next"
       transform="matrix(-1,0,0,-1,484.07144,602.01007)">
      <rect
         style="opacity:0;fill:#000000;fill-opacity:1;fill-rule:nonzero;stroke:none"
         id="rect3966"
         width="22"
         height="22"
         x="219.53572"
         y="237.50504" />
      <path
         id="path3815"
         d="m 235.53572,240.50503 -1,-1.00001 -9,9 9,9 1,-0.99999 z"
         style="fill:#ffffff;fill-opacity:0.2;stroke:none"
         inkscape:connector-curvature="0"
         sodipodi:nodetypes="cccccc" />
      <path
         sodipodi:nodetypes="cccc"
         inkscape:connector-curvature="0"
         style="fill:#262626;fill-opacity:1;stroke:none"
         d="m 234.53572,240.50503 -8,8 8,8 z"
         id="path3968" />
    </g>
    <g
       transform="matrix(0,1,-1,0,502.04075,144.96931)"
       id="22-22-go-up">
      <rect
         y="237.50504"
         x="219.53572"
         height="22"
         width="22"
         id="rect3972"
         style="opacity:0;fill:#000000;fill-opacity:1;fill-rule:nonzero;stroke:none" />
      <path
         sodipodi:nodetypes="cccccc"
         inkscape:connector-curvature="0"
         style="fill:#ffffff;fill-opacity:0.2;stroke:none"
         d="m 234.53574,239.50502 -9,9 9,9 0.99999,-0.99999 0,-16 z"
         id="path3817" />
      <path
         id="path3974"
         d="m 234.53573,240.50503 -8,8 8,8 z"
         style="fill:#262626;fill-opacity:1;stroke:none"
         inkscape:connector-curvature="0"
         sodipodi:nodetypes="cccc" />
    </g>
    <g
       id="go-next"
       transform="matrix(-1,0,0,1,498.07144,-55.999996)">
      <rect
         y="330.50504"
         x="219.53572"
         height="32"
         width="32"
         id="rect3927"
         style="opacity:0;fill:#000000;fill-opacity:1;fill-rule:nonzero;stroke:none" />
      <path
         sodipodi:nodetypes="cccccc"
         inkscape:connector-curvature="0"
         style="fill:#ffffff;fill-opacity:0.2;stroke:none"
         d="m 241.53572,335.50504 -1,-1 -12,12 12,12 1,-1 z"
         id="path3819" />
      <path
         id="path3866"
         d="m 240.53572,335.50504 -11,11 11,11 z"
         style="fill:#262626;fill-opacity:1;stroke:none"
         inkscape:connector-curvature="0"
         sodipodi:nodetypes="cccc" />
    </g>
    <g
       id="go-home"
       transform="translate(-39.000001,-98.000001)">
      <rect
         y="372.50504"
         x="253.53572"
         height="32"
         width="32"
         id="rect5009"
         style="opacity:0;fill:#000000;fill-opacity:1;fill-rule:nonzero;stroke:none" />
      <path
         style="fill:#ffffff;fill-opacity:0.2"
         d="m 269.53572,376.50504 -12,12 0,2 2,0 0,10 20,0 0,-10 2,0 0,-2 -4,-4 0,-7 -5,0 0,2 z"
         id="path3821"
         inkscape:connector-curvature="0"
         sodipodi:nodetypes="cccccccccccccc" />
      <path
         sodipodi:nodetypes="cccccccccccccc"
         inkscape:connector-curvature="0"
         id="polygon16"
         d="m 269.53572,377.50504 -11,11 0,1 2,0 0,10 18,0 0,-10 2,0 0,-1 -4,-4 0,-6 -3,0 0,2.99999 z"
         style="fill:#262626;fill-opacity:1" />
    </g>
    <g
       transform="matrix(0,-1,-1,0,641.04075,526.04076)"
       id="go-down">
      <rect
         style="opacity:0;fill:#000000;fill-opacity:1;fill-rule:nonzero;stroke:none"
         id="rect3929"
         width="32"
         height="32"
         x="219.53572"
         y="330.50504" />
      <path
         id="path3823"
         d="m 241.53572,335.50503 -1,-1 -12,12 12,12 1,-1 z"
         style="fill:#ffffff;fill-opacity:0.2;stroke:none"
         inkscape:connector-curvature="0"
         sodipodi:nodetypes="cccccc" />
      <path
         sodipodi:nodetypes="cccc"
         inkscape:connector-curvature="0"
         style="fill:#262626;fill-opacity:1;stroke:none"
         d="m 240.53572,335.50504 -11,11 11,11 z"
         id="path3931" />
    </g>
    <g
       id="go-previous"
       transform="translate(58.999999,-24)">
      <rect
         y="330.50504"
         x="219.53572"
         height="32"
         width="32"
         id="rect3935"
         style="opacity:0;fill:#000000;fill-opacity:1;fill-rule:nonzero;stroke:none" />
      <path
         sodipodi:nodetypes="cccccc"
         inkscape:connector-curvature="0"
         style="fill:#ffffff;fill-opacity:0.2;stroke:none"
         d="m 240.53572,334.50504 -12,12 12,12 1,-1 0,-22 z"
         id="path3825" />
      <path
         id="path3937"
         d="m 240.53572,335.50504 -11,11 11,11 z"
         style="fill:#262626;fill-opacity:1;stroke:none"
         inkscape:connector-curvature="0"
         sodipodi:nodetypes="cccc" />
    </g>
    <g
       transform="matrix(0,1,-1,0,609.04076,86.96932)"
       id="go-up">
      <rect
         style="opacity:0;fill:#000000;fill-opacity:1;fill-rule:nonzero;stroke:none"
         id="rect3941"
         width="32"
         height="32"
         x="219.53572"
         y="330.50504" />
      <path
         id="path3827"
         d="m 240.53572,334.50504 -12,12 12,12 1,-1 0,-22 z"
         style="fill:#ffffff;fill-opacity:0.2;stroke:none"
         inkscape:connector-curvature="0"
         sodipodi:nodetypes="cccccc" />
      <path
         sodipodi:nodetypes="cccc"
         inkscape:connector-curvature="0"
         style="fill:#262626;fill-opacity:1;stroke:none"
         d="m 240.53572,335.50504 -11,11 11,11 z"
         id="path3943" />
    </g>
    <g
       transform="matrix(0,-0.5,0.5,0,103.2832,520.2729)"
       id="16-16-go-down">
      <rect
         y="330.50504"
         x="219.53572"
         height="32"
         width="32"
         id="rect3980"
         style="opacity:0;fill:#000000;fill-opacity:1;fill-rule:nonzero;stroke:none" />
      <path
         sodipodi:nodetypes="cccccc"
         inkscape:connector-curvature="0"
         style="fill:#ffffff;fill-opacity:0.2;stroke:none"
         d="m 241.53572,332.50504 -14,14 14,14 2,-2 0,-24 z"
         id="path3803" />
      <path
         id="path3982"
         d="m 241.53572,334.50504 -12,12 12,12 z"
         style="fill:#262626;fill-opacity:1;stroke:none"
         inkscape:connector-curvature="0"
         sodipodi:nodetypes="cccc" />
    </g>
    <g
       id="16-16-go-next"
       transform="matrix(-0.5,0,0,-0.5,378.30358,575.75756)">
      <rect
         style="opacity:0;fill:#000000;fill-opacity:1;fill-rule:nonzero;stroke:none"
         id="rect3988"
         width="32"
         height="32"
         x="219.53572"
         y="330.50504" />
      <path
         id="path3805"
         d="m 241.53572,332.50504 -14,14 14,14 2,-2 0,-24 z"
         style="fill:#ffffff;fill-opacity:0.2;stroke:none"
         inkscape:connector-curvature="0"
         sodipodi:nodetypes="cccccc" />
      <path
         sodipodi:nodetypes="cccc"
         inkscape:connector-curvature="0"
         style="fill:#262626;fill-opacity:1;stroke:none"
         d="m 241.53572,334.50504 -12,12 12,12 z"
         id="path3990" />
    </g>
    <g
       transform="matrix(0,0.5,-0.5,0,433.78824,300.73718)"
       id="16-16-go-up">
      <rect
         y="330.50504"
         x="219.53572"
         height="32"
         width="32"
         id="rect3994"
         style="opacity:0;fill:#000000;fill-opacity:1;fill-rule:nonzero;stroke:none" />
      <path
         sodipodi:nodetypes="cccccc"
         inkscape:connector-curvature="0"
         style="fill:#ffffff;fill-opacity:0.2;stroke:none"
         d="m 243.53572,334.50504 -2,-2 -14,14 14,14 2,-2 z"
         id="path3807" />
      <path
         id="path3996"
         d="m 241.53572,334.50504 -12,12 12,12 z"
         style="fill:#262626;fill-opacity:1;stroke:none"
         inkscape:connector-curvature="0"
         sodipodi:nodetypes="cccc" />
    </g>
  </g>
</svg>
