<?xml version="1.0" encoding="UTF-8" standalone="no"?>
<!-- Created with Inkscape (http://www.inkscape.org/) -->

<svg
   xmlns:dc="http://purl.org/dc/elements/1.1/"
   xmlns:cc="http://creativecommons.org/ns#"
   xmlns:rdf="http://www.w3.org/1999/02/22-rdf-syntax-ns#"
   xmlns:svg="http://www.w3.org/2000/svg"
   xmlns="http://www.w3.org/2000/svg"
   xmlns:sodipodi="http://sodipodi.sourceforge.net/DTD/sodipodi-0.dtd"
   xmlns:inkscape="http://www.inkscape.org/namespaces/inkscape"
   width="200"
   height="100"
   id="svg7229"
   sodipodi:version="0.32"
   inkscape:version="0.48.4 r9939"
   version="1.0"
   sodipodi:docname="list.svg"
   inkscape:output_extension="org.inkscape.output.svgz.inkscape">
  <title
     id="title3010">Tilain</title>
  <defs
     id="defs7231" />
  <sodipodi:namedview
     id="base"
     pagecolor="#ffffff"
     bordercolor="#666666"
     borderopacity="1.0"
     inkscape:pageopacity="0"
     inkscape:pageshadow="2"
     inkscape:zoom="11.313708"
     inkscape:cx="21.457797"
     inkscape:cy="33.235953"
     inkscape:document-units="px"
     inkscape:current-layer="layer1"
     showgrid="true"
     inkscape:window-width="1920"
     inkscape:window-height="1030"
     inkscape:window-x="0"
     inkscape:window-y="23"
     showguides="true"
     inkscape:guide-bbox="true"
     gridtolerance="6"
     inkscape:window-maximized="1">
    <inkscape:grid
       type="xygrid"
       id="grid7245"
       visible="true"
       enabled="true"
       empspacing="5"
       snapvisiblegridlinesonly="true" />
  </sodipodi:namedview>
  <metadata
     id="metadata7234">
    <rdf:RDF>
      <cc:Work
         rdf:about="">
        <dc:format>image/svg+xml</dc:format>
        <dc:type
           rdf:resource="http://purl.org/dc/dcmitype/StillImage" />
        <dc:title>Tilain</dc:title>
      </cc:Work>
    </rdf:RDF>
  </metadata>
  <g
     inkscape:label="Camada 1"
     inkscape:groupmode="layer"
     id="layer1"
     transform="translate(-214.53572,-326.50504)">
    <g
       id="list-remove"
       transform="matrix(2,0,0,2,-490.53569,-436.50503)">
      <rect
         style="fill:#ffffff;fill-opacity:0;fill-rule:nonzero;stroke:none"
         id="rect3058"
         width="16"
         height="16"
         x="368.53571"
         y="396.50504" />
      <rect
         ry="3.8649523e-06"
         style="fill:#ffffff;fill-opacity:0.2;fill-rule:nonzero;stroke:none"
         id="rect3772"
         width="11.999999"
         height="2.9999995"
         x="370.53571"
         y="403.00504" />
      <rect
         y="403.50504"
         x="371.03571"
         height="1.9999996"
         width="10.999999"
         id="rect3060"
         style="fill:#262626;fill-opacity:1;fill-rule:nonzero;stroke:none"
         ry="3.8649523e-06" />
    </g>
    <g
       id="list-add"
       transform="matrix(2,0,0,2,-486.53569,-438.50503)">
      <rect
         y="397.50504"
         x="350.53571"
         height="16"
         width="16"
         id="rect3064"
         style="fill:#ffffff;fill-opacity:0;fill-rule:nonzero;stroke:none" />
      <path
         inkscape:connector-curvature="0"
         sodipodi:nodetypes="ccccccccccccc"
         style="fill:#ffffff;fill-opacity:0.2;fill-rule:nonzero;stroke:none"
         d="m 357.0357,399.50504 0,4.5 -4.5,0 0,3 4.5,0 0,4.5 3,0 0,-4.5 4.5,0 0,-3 -4.5,0 0,-4.5 z"
         id="path3770" />
      <path
         id="path3066"
         d="m 357.53571,400.00504 0,4.5 -4.5,0 0,2 4.5,0 0,4.5 2,0 0,-4.5 4.5,0 0,-2 -4.5,0 0,-4.5 z"
         style="fill:#262626;fill-opacity:1;fill-rule:nonzero;stroke:none"
         sodipodi:nodetypes="ccccccccccccc"
         inkscape:connector-curvature="0" />
    </g>
    <g
       transform="matrix(1.375,0,0,1.375,-270.20087,-156.68938)"
       id="22-22-list-remove">
      <rect
         y="396.50504"
         x="368.53571"
         height="16"
         width="16"
         id="rect3046"
         style="fill:#ffffff;fill-opacity:0;fill-rule:nonzero;stroke:none" />
      <rect
         y="403.05048"
         x="369.99023"
         height="2.9090769"
         width="13.090899"
         id="rect3776"
         style="fill:#ffffff;fill-opacity:0.2;fill-rule:nonzero;stroke:none"
         ry="4.5996094e-06" />
      <rect
         ry="4.5996094e-06"
         style="fill:#262626;fill-opacity:1;fill-rule:nonzero;stroke:none"
         id="rect3048"
         width="11.636354"
         height="1.4545344"
         x="370.71753"
         y="403.77777" />
    </g>
    <g
       transform="matrix(1.375,0,0,1.375,-267.45087,-158.06438)"
       id="22-22-list-add">
      <rect
         style="fill:#ffffff;fill-opacity:0;fill-rule:nonzero;stroke:none"
         id="rect3052"
         width="16"
         height="16"
         x="350.53571"
         y="397.50504" />
      <path
         id="path3774"
         transform="translate(214.53572,326.50504)"
         d="m 142.54543,72.454538 0,5.09091 -5.0909,0 0,2.90909 5.0909,0 0,5.090908 2.90909,0 0,-5.090908 5.09092,0 0,-2.90909 -5.09092,0 0,-5.09091 z"
         style="fill:#ffffff;fill-opacity:0.2;fill-rule:nonzero;stroke:none"
         sodipodi:nodetypes="ccccccccccccc"
         inkscape:connector-curvature="0" />
      <path
         inkscape:connector-curvature="0"
         sodipodi:nodetypes="ccccccccccccc"
         style="fill:#262626;fill-opacity:1;fill-rule:nonzero;stroke:none"
         d="m 143.27271,73.181811 0,5.090909 -5.09091,0 0,1.454545 5.09091,0 0,5.090909 1.45454,0 0,-5.090909 5.09091,0 0,-1.454545 -5.09091,0 0,-5.090909 z"
         transform="translate(214.53572,326.50504)"
         id="path3054" />
    </g>
    <g
       id="16-16-list-remove"
       transform="translate(-137.99998,14.000005)">
      <rect
         style="fill:#ffffff;fill-opacity:0;fill-rule:nonzero;stroke:none"
         id="rect3818-0"
         width="16"
         height="16"
         x="368.53568"
         y="396.50504" />
      <rect
         ry="4.5996094e-06"
         style="fill:#ffffff;fill-opacity:0.2;fill-rule:nonzero;stroke:none"
         id="rect3778"
         width="13.999994"
         height="3.9999995"
         x="369.53571"
         y="402.50504" />
      <rect
         y="403.50504"
         x="370.53571"
         height="1.9999996"
         width="11.999994"
         id="rect3787-5"
         style="fill:#262626;fill-opacity:1;fill-rule:nonzero;stroke:none"
         ry="4.5996094e-06" />
    </g>
    <g
       id="16-16-list-add"
       transform="translate(-135.99998,13.000005)">
      <rect
         y="397.50504"
         x="350.53571"
         height="16"
         width="16"
         id="rect3816-5"
         style="fill:#ffffff;fill-opacity:0;fill-rule:nonzero;stroke:none" />
      <path
         inkscape:connector-curvature="0"
         sodipodi:nodetypes="ccccccccccccc"
         style="fill:#ffffff;fill-opacity:0.2;fill-rule:nonzero;stroke:none"
         d="m 356.5357,398.50504 0,5 -5,0 0,4 5,0 0,5 4,0 0,-5 5,0 0,-4 -5,0 0,-5 z"
         id="path3780" />
      <path
         id="rect3778-8"
         d="m 357.5357,399.50504 10e-6,5 -5.00001,0 0,2 5.00001,0 -10e-6,5 2,0 10e-6,-5 4.99999,0 0,-2 -4.99999,0 -10e-6,-5 z"
         style="fill:#262626;fill-opacity:1;fill-rule:nonzero;stroke:none"
         sodipodi:nodetypes="ccccccccccccc"
         inkscape:connector-curvature="0" />
    </g>
  </g>
</svg>
