<?xml version="1.0" encoding="UTF-8" standalone="no"?>
<svg
   xmlns:dc="http://purl.org/dc/elements/1.1/"
   xmlns:cc="http://creativecommons.org/ns#"
   xmlns:rdf="http://www.w3.org/1999/02/22-rdf-syntax-ns#"
   xmlns:svg="http://www.w3.org/2000/svg"
   xmlns="http://www.w3.org/2000/svg"
   xmlns:sodipodi="http://sodipodi.sourceforge.net/DTD/sodipodi-0.dtd"
   xmlns:inkscape="http://www.inkscape.org/namespaces/inkscape"
   viewBox="0 0 200 100"
   id="svg2"
   version="1.1"
   inkscape:version="0.48.4 r9939"
   width="100%"
   height="100%"
   sodipodi:docname="media.svg">
  <title
     id="title2995">Tilain</title>
  <metadata
     id="metadata34">
    <rdf:RDF>
      <cc:Work
         rdf:about="">
        <dc:format>image/svg+xml</dc:format>
        <dc:type
           rdf:resource="http://purl.org/dc/dcmitype/StillImage" />
        <dc:title>Tilain</dc:title>
        <cc:license
           rdf:resource="" />
      </cc:Work>
    </rdf:RDF>
  </metadata>
  <sodipodi:namedview
     pagecolor="#ffffff"
     bordercolor="#666666"
     borderopacity="1"
     objecttolerance="10"
     gridtolerance="10"
     guidetolerance="10"
     inkscape:pageopacity="0"
     inkscape:pageshadow="2"
     inkscape:window-width="1920"
     inkscape:window-height="1030"
     id="namedview32"
     showgrid="true"
     inkscape:zoom="5.2149125"
     inkscape:cx="168.77095"
     inkscape:cy="39.149394"
     inkscape:window-x="0"
     inkscape:window-y="23"
     inkscape:window-maximized="1"
     inkscape:current-layer="svg2"
     showguides="true"
     inkscape:guide-bbox="true">
    <inkscape:grid
       type="xygrid"
       id="grid4337"
       empspacing="5"
       visible="true"
       enabled="true"
       snapvisiblegridlinesonly="true" />
    <sodipodi:guide
       orientation="0,1"
       position="-4,1"
       id="guide4370" />
    <sodipodi:guide
       orientation="0,1"
       position="117,16"
       id="guide4372" />
  </sodipodi:namedview>
  <defs
     id="defs4" />
  <g
     id="media-skip-backward"
     transform="matrix(2.9090908,0,0,2.9090908,-864.1039,-892.01463)">
    <rect
       style="opacity:0;fill:#000000;fill-opacity:1;stroke:none"
       id="rect4435"
       width="32"
       height="32"
       x="-360"
       y="100"
       transform="matrix(0.34375001,0,0,0.34375001,420.78573,295.63004)" />
    <path
       sodipodi:nodetypes="ccccccccccc"
       inkscape:connector-curvature="0"
       id="path3921"
       d="m 306.66073,331.38004 -0.34375,0 -6.18751,4.125 6.18751,4.125 0.34375,0 z m -5.84376,0.6875 -2.40625,0 0,6.875 2.40625,0 z"
       style="fill:#ffffff;fill-opacity:0.2" />
    <path
       style="fill:#262626;fill-opacity:1"
       d="m 306.31697,331.72379 -5.84375,3.78125 5.84375,3.78125 z m -5.84375,0.6875 -1.71875,0 0,6.1875 1.71875,0 z"
       id="path4046"
       inkscape:connector-curvature="0"
       sodipodi:nodetypes="ccccccccc" />
  </g>
  <g
     id="media-eject"
     transform="matrix(2.9090908,0,0,2.9090908,-936.8311,-892.01463)">
    <rect
       style="opacity:0;fill:#000000;fill-opacity:1;stroke:none"
       id="rect4417"
       width="32"
       height="32"
       x="-200"
       y="100"
       transform="matrix(0.34375001,0,0,0.34375001,445.78571,295.63004)" />
    <path
       sodipodi:nodetypes="ccccccccccc"
       inkscape:connector-curvature="0"
       id="path3976"
       transform="matrix(0.34375001,0,0,0.34375001,377.03572,306.63004)"
       d="m 15.999996,73.000002 -12.0000403,14 0,1 24.0000003,0 0,-1 z m -10.0000003,16 0,6 20.0000003,0 0,-6 z"
       style="fill:#ffffff;fill-opacity:0.2" />
    <path
       style="fill:#262626;fill-opacity:1"
       d="m 16,74 -11.0000041,13.000002 22.0000001,0 z M 6.9999957,90.000002 6.9999998,94 25,94 l -4e-6,-3.999998 z"
       transform="matrix(0.34375001,0,0,0.34375001,377.03572,306.63004)"
       id="path4086"
       inkscape:connector-curvature="0"
       sodipodi:nodetypes="ccccccccc" />
  </g>
  <g
     id="media-record"
     transform="matrix(1.4545455,0,0,1.4545455,-176.7792,-452.00735)">
    <rect
       style="opacity:0;fill:#000000;fill-opacity:1;stroke:none"
       id="rect4397"
       width="32"
       height="31.999998"
       x="-40"
       y="100"
       transform="matrix(0.68749998,0,0,0.68749998,369.03569,288.75504)" />
    <path
       transform="matrix(0.24742268,0,0,0.24870467,336.76252,352.61902)"
       d="m 97.093857,63.875 c 0,18.320295 -14.928553,33.171829 -33.343857,33.171829 -18.415304,0 -33.343857,-14.851534 -33.343857,-33.171829 0,-18.320295 14.928553,-33.171829 33.343857,-33.171829 18.415304,0 33.343857,14.851534 33.343857,33.171829 z"
       sodipodi:ry="33.171829"
       sodipodi:rx="33.343857"
       sodipodi:cy="63.875"
       sodipodi:cx="63.75"
       id="path4017"
       style="fill:#ffffff;fill-opacity:0.2;fill-rule:evenodd;stroke:none"
       sodipodi:type="arc" />
    <path
       sodipodi:type="arc"
       style="fill:#db4439;fill-opacity:1;fill-rule:evenodd;stroke:none"
       id="path4096"
       sodipodi:cx="63.75"
       sodipodi:cy="63.875"
       sodipodi:rx="30.565212"
       sodipodi:ry="30.407507"
       d="m 94.315212,63.875 c 0,16.793602 -13.684511,30.407507 -30.565212,30.407507 -16.880701,0 -30.565212,-13.613905 -30.565212,-30.407507 0,-16.793602 13.684511,-30.407507 30.565212,-30.407507 16.880701,0 30.565212,13.613905 30.565212,30.407507 z"
       transform="matrix(0.24742268,0,0,0.24870467,336.76252,352.61902)" />
  </g>
  <g
     transform="matrix(-2.9090908,0,0,2.9090908,936.10392,-892.01463)"
     id="media-skip-forward">
    <rect
       style="opacity:0;fill:#000000;fill-opacity:1;stroke:none"
       id="rect4429"
       width="32"
       height="32"
       x="-320"
       y="100"
       transform="matrix(-0.34375001,0,0,0.34375001,198.03573,295.63004)" />
    <path
       style="fill:#ffffff;fill-opacity:0.2"
       d="m 306.66073,331.38004 -0.34375,0 -6.18751,4.125 6.18751,4.125 0.34375,0 z m -5.84376,0.6875 -2.40625,0 0,6.875 2.40625,0 z"
       id="path3925"
       inkscape:connector-curvature="0"
       sodipodi:nodetypes="ccccccccccc" />
    <path
       sodipodi:nodetypes="ccccccccc"
       inkscape:connector-curvature="0"
       id="path3929"
       d="m 306.31697,331.72379 -5.84375,3.78125 5.84375,3.78125 z m -5.84375,0.6875 -1.71875,0 0,6.1875 1.71875,0 z"
       style="fill:#262626;fill-opacity:1" />
  </g>
  <g
     transform="matrix(2.9090908,0,0,2.9090908,-744.1038,-892.01463)"
     id="media-seek-backward">
    <rect
       style="opacity:0;fill:#000000;fill-opacity:1;stroke:none"
       id="rect4421"
       width="32"
       height="32"
       x="-240"
       y="100"
       transform="matrix(0.34375001,0,0,0.34375001,379.5357,295.63004)" />
    <path
       style="fill:#ffffff;fill-opacity:0.2"
       d="m 138,74.000002 -14,10 14,10 1,0 0,-5.84375 -6,-4.15625 6,-4.15625 0,-5.84375 z m 9,0 0,20 1,0 0,-20 z"
       transform="matrix(0.34375001,0,0,0.34375001,255.78569,306.63004)"
       id="path3955"
       inkscape:connector-curvature="0"
       sodipodi:nodetypes="cccccccccccccc" />
    <path
       style="fill:#262626;fill-opacity:1"
       d="m 138,75.000002 -13,9 13,9 0,-5.53125 -5,-3.46875 5,-3.46875 z m 9,0 -13,9 13,9 z"
       transform="matrix(0.34375001,0,0,0.34375001,255.78569,306.63004)"
       id="path3957"
       inkscape:connector-curvature="0"
       sodipodi:nodetypes="ccccccccccc" />
  </g>
  <g
     id="media-playback-start"
     transform="matrix(-2.9090908,0,0,2.9090908,1096.1039,-892.01463)">
    <rect
       style="opacity:0;fill:#000000;fill-opacity:1;stroke:none"
       id="rect4409"
       width="32"
       height="32"
       x="-160"
       y="100"
       transform="matrix(-0.34375001,0,0,0.34375001,253.03573,295.63004)" />
    <path
       sodipodi:nodetypes="cccccc"
       inkscape:connector-curvature="0"
       id="path3980"
       d="m 305.62948,331.38004 -0.34375,0 -5.84375,4.125 5.84375,4.125 0.34375,0 z"
       style="fill:#ffffff;fill-opacity:0.2" />
    <path
       style="fill:#262626;fill-opacity:1"
       d="m 305.28573,331.72379 -5.5,3.78125 5.5,3.78125 z"
       id="path3984"
       inkscape:connector-curvature="0"
       sodipodi:nodetypes="cccc" />
  </g>
  <g
     transform="matrix(-2.9090908,0,0,2.9090908,1136.1039,-892.01463)"
     id="media-playback-pause">
    <rect
       style="opacity:0;fill:#000000;fill-opacity:1;stroke:none"
       id="rect4405"
       width="32"
       height="32"
       x="-120"
       y="100"
       transform="matrix(-0.34375001,0,0,0.34375001,266.78573,295.63004)" />
    <path
       style="fill:#ffffff;fill-opacity:0.2"
       d="m 306.66073,331.38004 -2.40625,0 0,8.25 2.40625,0 z"
       id="path3988"
       inkscape:connector-curvature="0"
       sodipodi:nodetypes="ccccc" />
    <path
       sodipodi:nodetypes="ccccc"
       inkscape:connector-curvature="0"
       id="path3992"
       d="m 306.31698,331.72379 -1.71875,0 0,7.5625 1.71875,0 z"
       style="fill:#262626;fill-opacity:1" />
    <path
       sodipodi:nodetypes="ccccc"
       inkscape:connector-curvature="0"
       id="path3994"
       d="m 300.81698,331.38004 -2.40625,0 0,8.25 2.40625,0 z"
       style="fill:#ffffff;fill-opacity:0.4" />
    <path
       style="fill:#262626;fill-opacity:1"
       d="m 300.47323,331.72379 -1.71875,0 0,7.5625 1.71875,0 z"
       id="path3996"
       inkscape:connector-curvature="0"
       sodipodi:nodetypes="ccccc" />
  </g>
  <g
     id="media-playback-stop"
     transform="matrix(-2.9090908,0,0,2.9090908,1176.1039,-892.01463)">
    <rect
       style="opacity:0;fill:#000000;fill-opacity:1;stroke:none"
       id="rect4403"
       width="32"
       height="32"
       x="-80"
       y="100"
       transform="matrix(-0.34375001,0,0,0.34375001,280.53573,295.63004)" />
    <path
       style="fill:#ffffff;fill-opacity:0.2"
       d="m 306.66073,331.38004 -8.25,0 0,8.25 8.25,0 z"
       id="path4011"
       inkscape:connector-curvature="0"
       sodipodi:nodetypes="ccccc" />
    <path
       sodipodi:nodetypes="ccccc"
       inkscape:connector-curvature="0"
       id="path4013"
       d="m 306.31698,331.72379 -7.5625,0 0,7.5625 7.5625,0 z"
       style="fill:#262626;fill-opacity:1" />
  </g>
  <g
     transform="matrix(1.9999998,0,0,1.9999998,-594.07138,-614.01002)"
     id="22-22-media-skip-backward">
    <rect
       style="opacity:0;fill:#000000;fill-opacity:1;stroke:none"
       id="rect4433"
       width="22"
       height="22"
       x="-360"
       y="78"
       transform="matrix(0.50000005,0,0,0.50000005,477.03574,291.00504)" />
    <path
       style="fill:#ffffff;fill-opacity:0.2"
       d="m 307.03572,331.00504 -0.5,0 -6.5,4.5 6.5,4.5 0.5,0 z m -6,0.5 -3,0 0,8 3,0 z"
       id="path4339"
       inkscape:connector-curvature="0"
       sodipodi:nodetypes="ccccccccccc" />
    <path
       sodipodi:nodetypes="ccccccccc"
       inkscape:connector-curvature="0"
       id="path4267"
       d="m 306.53572,331.50504 -6,4 6,4 z m -6,0.5 -2,0 0,7 2,0 z"
       style="fill:#262626;fill-opacity:1" />
  </g>
  <g
     transform="matrix(1.9999998,0,0,1.9999998,-594.07133,-614.01002)"
     id="22-22-media-eject">
    <rect
       style="opacity:0;fill:#000000;fill-opacity:1;stroke:none"
       id="rect4419"
       width="22"
       height="22"
       x="-200"
       y="78"
       transform="matrix(0.50000005,0,0,0.50000005,477.03571,291.00504)" />
    <path
       style="fill:#ffffff;fill-opacity:0.2"
       d="m 382.53568,331.50504 -4.5,5 0,0.5 9,0 0,-0.5 z m -3.99998,6 0,2.5 8,0 0,-2.5 z"
       id="path4374"
       inkscape:connector-curvature="0"
       sodipodi:nodetypes="ccccccccccc" />
    <path
       sodipodi:nodetypes="ccccccccc"
       inkscape:connector-curvature="0"
       id="path4275"
       d="m 382.5357,332.00504 -4,4.5 8,0 z m -3.49998,6 0,1.5 7,0 0,-1.5 z"
       style="fill:#262626;fill-opacity:1" />
  </g>
  <g
     transform="translate(-21.535719,-311.50503)"
     id="22-22-media-record">
    <rect
       style="opacity:0;fill:#000000;fill-opacity:1;stroke:none"
       id="rect4399"
       width="22"
       height="22"
       x="-40"
       y="78"
       transform="translate(381.53572,279.50503)" />
    <path
       sodipodi:type="arc"
       style="fill:#ffffff;fill-opacity:0.2;fill-rule:evenodd;stroke:none"
       id="path4281"
       sodipodi:cx="63.75"
       sodipodi:cy="63.875"
       sodipodi:rx="30.565102"
       sodipodi:ry="30.407507"
       d="m 94.315102,63.875 c 0,16.793602 -13.684462,30.407507 -30.565102,30.407507 -16.88064,0 -30.565102,-13.613905 -30.565102,-30.407507 0,-16.793602 13.684462,-30.407507 30.565102,-30.407507 16.88064,0 30.565102,13.613905 30.565102,30.407507 z"
       transform="matrix(0.29445387,0,0,0.29597954,333.76429,349.59935)" />
    <path
       transform="matrix(0.28791048,0,0,0.28940226,334.18143,350.01947)"
       d="m 91.536455,63.875 c 0,15.266909 -12.44042,27.643185 -27.786455,27.643185 -15.346035,0 -27.786455,-12.376276 -27.786455,-27.643185 0,-15.266909 12.44042,-27.643185 27.786455,-27.643185 15.346035,0 27.786455,12.376276 27.786455,27.643185 z"
       sodipodi:ry="27.643185"
       sodipodi:rx="27.786455"
       sodipodi:cy="63.875"
       sodipodi:cx="63.75"
       id="path4283"
       style="fill:#db4439;fill-opacity:1;fill-rule:evenodd;stroke:none"
       sodipodi:type="arc" />
  </g>
  <g
     transform="matrix(-1.9999998,0,0,1.9999998,696.07138,-614.01002)"
     id="22-22-media-seek-forward">
    <rect
       style="opacity:0;fill:#000000;fill-opacity:1;stroke:none"
       id="rect4427"
       width="22"
       height="22"
       x="-280"
       y="78"
       transform="matrix(-0.50000005,0,0,0.50000005,168.03571,291.00504)" />
    <path
       sodipodi:nodetypes="cccccccccccc"
       style="fill:#ffffff;fill-opacity:0.2"
       d="m 303.53572,331.50504 0,8 -0.5,0 -5.5,-4 5.5,-4 z m 3.5,0 0,8 -0.5,0 -5.5,-4 5.5,-4 z"
       id="path4353"
       inkscape:connector-curvature="0" />
    <path
       style="fill:#262626;fill-opacity:1"
       d="M 9.9999988,81.999998 10,86.1875 14,89 l -4,2.8125 -1.2e-6,4.187498 9.9999992,-7 z"
       transform="matrix(-0.50000005,0,0,0.50000005,308.03572,291.00504)"
       id="path4299"
       inkscape:connector-curvature="0"
       sodipodi:nodetypes="ccccccc" />
    <path
       sodipodi:nodetypes="cccc"
       style="fill:#262626;fill-opacity:1"
       d="m 306.53572,332.00504 0,7 -5,-3.5 z"
       id="path4355"
       inkscape:connector-curvature="0" />
  </g>
  <g
     transform="matrix(-1.9999998,0,0,1.9999998,816.07138,-614.01002)"
     id="22-22-media-playback-start">
    <rect
       style="opacity:0;fill:#000000;fill-opacity:1;stroke:none"
       id="rect4413"
       width="22"
       height="22"
       x="-160"
       y="78"
       transform="matrix(-0.50000005,0,0,0.50000005,228.03571,291.00504)" />
    <path
       style="fill:#ffffff;fill-opacity:0.2"
       d="m 305.53572,331.00504 -0.5,0 -6.00001,4.5 6.00001,4.5 0.5,0 z"
       id="path4376"
       inkscape:connector-curvature="0"
       sodipodi:nodetypes="cccccc" />
    <path
       sodipodi:nodetypes="cccc"
       inkscape:connector-curvature="0"
       id="path4315"
       d="m 305.03572,331.50504 -5.5,4 5.5,4 z"
       style="fill:#262626;fill-opacity:1" />
  </g>
  <g
     id="22-22-media-playback-pause"
     transform="matrix(-1.9999998,0,0,1.9999998,856.07138,-614.01002)">
    <rect
       style="opacity:0;fill:#000000;fill-opacity:1;stroke:none"
       id="rect4407"
       width="22"
       height="22"
       x="-120"
       y="78"
       transform="matrix(-0.50000005,0,0,0.50000005,248.03571,291.00504)" />
    <path
       sodipodi:nodetypes="cccccccccc"
       inkscape:connector-curvature="0"
       id="path4383"
       d="m 307.03572,331.00504 0,9 -3,0 0,-9 z m -6,0 0,9 -3,0 0,-9 z"
       style="fill:#ffffff;fill-opacity:0.2" />
    <path
       style="fill:#262626;fill-opacity:1"
       d="m 306.53572,331.50504 0,8 -2,0 0,-8 z m -6,0 0,8 -2,0 0,-8 z"
       id="path4323"
       inkscape:connector-curvature="0"
       sodipodi:nodetypes="cccccccccc" />
  </g>
  <g
     id="22-22-media-skip-forward"
     transform="matrix(-1.9999998,0,0,1.9999998,656.07138,-614.01002)">
    <rect
       style="opacity:0;fill:#000000;fill-opacity:1;stroke:none"
       id="rect4431"
       width="22"
       height="22"
       x="-320"
       y="78"
       transform="matrix(-0.50000005,0,0,0.50000005,148.0357,291.00504)" />
    <path
       sodipodi:nodetypes="ccccccccccc"
       inkscape:connector-curvature="0"
       id="path4345"
       d="m 307.03572,331.00504 -0.5,0 -6.5,4.5 6.5,4.5 0.5,0 z m -6,0.5 -3,0 0,8 3,0 z"
       style="fill:#ffffff;fill-opacity:0.2" />
    <path
       style="fill:#262626;fill-opacity:1"
       d="m 306.53572,331.50504 -6,4 6,4 z m -6,0.5 -2,0 0,7 2,0 z"
       id="path4347"
       inkscape:connector-curvature="0"
       sodipodi:nodetypes="ccccccccc" />
  </g>
  <g
     transform="matrix(-1.9999998,0,0,1.9999998,896.07138,-614.01002)"
     id="22-22-media-playback-stop">
    <rect
       style="opacity:0;fill:#000000;fill-opacity:1;stroke:none"
       id="rect4401"
       width="22"
       height="22"
       x="-80"
       y="78"
       transform="matrix(-0.50000005,0,0,0.50000005,268.03572,291.00504)" />
    <path
       style="fill:#ffffff;fill-opacity:0.2"
       d="m 307.03572,331.00504 0,9 -9,0 0,-9 z"
       id="path4391"
       inkscape:connector-curvature="0"
       sodipodi:nodetypes="ccccc" />
    <path
       sodipodi:nodetypes="ccccc"
       inkscape:connector-curvature="0"
       id="path4393"
       d="m 306.53572,331.50504 0,8 -8,0 0,-8 z"
       style="fill:#262626;fill-opacity:1" />
  </g>
  <g
     id="16-16-media-skip-backward"
     transform="matrix(1.4545448,0,0,1.4545448,-432.05176,-468.00711)">
    <rect
       y="330.00504"
       x="297.03574"
       height="11.000001"
       width="11.000001"
       id="rect4439"
       style="opacity:0;fill:#000000;fill-opacity:1;stroke:none" />
    <path
       sodipodi:nodetypes="ccccccccccc"
       inkscape:connector-curvature="0"
       id="path4513"
       d="m 306.66072,330.69254 -6.875,4.8125 6.875,4.8125 0.6875,0 0,-9.625 z m -5.5,0.6875 -3.4375,0 0,8.25 3.4375,0 z"
       style="fill:#ffffff;fill-opacity:0.2" />
    <path
       style="fill:#262626;fill-opacity:1"
       d="m 306.66072,331.38004 -6.1875,4.125 6.1875,4.125 z m -6.1875,0.6875 -2.0625,0 0,6.875 2.0625,0 z"
       id="path4443"
       inkscape:connector-curvature="0"
       sodipodi:nodetypes="ccccccccc" />
  </g>
  <g
     id="16-16-media-eject"
     transform="matrix(1.4545448,0,0,1.4545448,-388.41532,-468.00711)">
    <rect
       transform="matrix(0.50000005,0,0,0.50000005,477.03571,291.00504)"
       y="78"
       x="-200"
       height="22"
       width="22"
       id="rect4447"
       style="opacity:0;fill:#000000;fill-opacity:1;stroke:none" />
    <path
       sodipodi:nodetypes="ccccccccccc"
       inkscape:connector-curvature="0"
       id="path4449"
       d="m 382.5357,331.38004 -4.8125,5.5 0,0.6875 9.62501,0 0,-0.6875 z m -4.125,6.1875 0,2.75 8.25001,0 0,-2.75 z"
       style="fill:#ffffff;fill-opacity:0.2" />
    <path
       style="fill:#262626;fill-opacity:1"
       d="m 382.5357,332.06754 -4.125,4.8125 8.25001,0 z m -3.4375,6.1875 0,1.375 6.87501,0 0,-1.375 z"
       id="path4451"
       inkscape:connector-curvature="0"
       sodipodi:nodetypes="ccccccccc" />
  </g>
  <g
     id="16-16-media-record"
     transform="matrix(0.72727247,0,0,0.72727247,71.610471,-248.00356)">
    <rect
       transform="translate(381.53572,279.50503)"
       y="78"
       x="-40"
       height="22"
       width="22"
       id="rect4455"
       style="opacity:0;fill:#000000;fill-opacity:1;stroke:none" />
    <path
       transform="matrix(0.31490173,0,0,0.31653335,332.46073,348.28646)"
       d="m 94.315102,63.875 c 0,16.793602 -13.684462,30.407507 -30.565102,30.407507 -16.88064,0 -30.565102,-13.613905 -30.565102,-30.407507 0,-16.793602 13.684462,-30.407507 30.565102,-30.407507 16.88064,0 30.565102,13.613905 30.565102,30.407507 z"
       sodipodi:ry="30.407507"
       sodipodi:rx="30.565102"
       sodipodi:cy="63.875"
       sodipodi:cx="63.75"
       id="path4457"
       style="fill:#ffffff;fill-opacity:0.2;fill-rule:evenodd;stroke:none"
       sodipodi:type="arc" />
    <path
       sodipodi:type="arc"
       style="fill:#db4439;fill-opacity:1;fill-rule:evenodd;stroke:none"
       id="path4459"
       sodipodi:cx="63.75"
       sodipodi:cy="63.875"
       sodipodi:rx="27.786455"
       sodipodi:ry="27.643185"
       d="m 91.536455,63.875 c 0,15.266909 -12.44042,27.643185 -27.786455,27.643185 -15.346035,0 -27.786455,-12.376276 -27.786455,-27.643185 0,-15.266909 12.44042,-27.643185 27.786455,-27.643185 15.346035,0 27.786455,12.376276 27.786455,27.643185 z"
       transform="matrix(0.29690736,0,0,0.29844575,333.60788,349.44181)" />
  </g>
  <g
     id="16-16-media-seek-forward"
     transform="matrix(-1.4545448,0,0,1.4545448,528.23355,-468.00711)">
    <rect
       transform="scale(-1,1)"
       y="330.00504"
       x="-308.16071"
       height="11.000001"
       width="11.000001"
       id="rect4463"
       style="opacity:0;fill:#000000;fill-opacity:1;stroke:none" />
    <path
       inkscape:connector-curvature="0"
       id="path4465"
       d="m 304.03571,331.38004 0,8.25 -0.6875,0 -5.5,-4.125 5.5,-4.125 z m 3.43749,0 0,8.25 -0.6875,0 -5.49999,-4.125 5.49999,-4.125 z"
       style="fill:#ffffff;fill-opacity:0.2"
       sodipodi:nodetypes="cccccccccccc" />
    <path
       inkscape:connector-curvature="0"
       id="path4467"
       d="m 303.3482,332.06754 10e-6,2.03125 -2.06251,1.40625 2.06251,1.40625 -10e-6,2.03125 -4.8125,-3.4375 z"
       style="fill:#262626;fill-opacity:1"
       sodipodi:nodetypes="ccccccc" />
    <path
       inkscape:connector-curvature="0"
       id="path4469"
       d="m 306.7857,332.06754 0,6.875 -4.8125,-3.4375 z"
       style="fill:#262626;fill-opacity:1"
       sodipodi:nodetypes="cccc" />
  </g>
  <g
     id="16-16-media-playback-start"
     transform="matrix(-1.4545448,0,0,1.4545448,648.05175,-468.00711)">
    <rect
       transform="matrix(-0.50000005,0,0,0.50000005,228.03571,291.00504)"
       y="78"
       x="-160"
       height="22"
       width="22"
       id="rect4473"
       style="opacity:0;fill:#000000;fill-opacity:1;stroke:none" />
    <path
       sodipodi:nodetypes="cccccc"
       inkscape:connector-curvature="0"
       id="path4475"
       d="m 305.97322,330.69254 -0.6875,0 -6.87501,4.8125 6.87501,4.8125 0.6875,0 z"
       style="fill:#ffffff;fill-opacity:0.2" />
    <path
       style="fill:#262626;fill-opacity:1"
       d="m 305.28572,331.38004 -6.18751,4.125 6.18751,4.125 z"
       id="path4477"
       inkscape:connector-curvature="0"
       sodipodi:nodetypes="cccc" />
  </g>
  <g
     transform="matrix(-1.4545448,0,0,1.4545448,688.05175,-468.00711)"
     id="16-16-media-playback-pause">
    <rect
       transform="matrix(-0.50000005,0,0,0.50000005,248.03571,291.00504)"
       y="78"
       x="-120"
       height="22"
       width="22"
       id="rect4481"
       style="opacity:0;fill:#000000;fill-opacity:1;stroke:none" />
    <path
       style="fill:#ffffff;fill-opacity:0.2"
       d="m 307.34822,330.69254 0,9.625 -3.43751,0 0,-9.625 z m -6.18751,0 0,9.625 -3.4375,0 0,-9.625 z"
       id="path4483"
       inkscape:connector-curvature="0"
       sodipodi:nodetypes="cccccccccc" />
    <path
       sodipodi:nodetypes="cccccccccc"
       inkscape:connector-curvature="0"
       id="path4485"
       d="m 306.66072,331.38004 0,8.25 -2.0625,0 0,-8.25 z m -6.1875,0 0,8.25 -2.0625,0 0,-8.25 z"
       style="fill:#262626;fill-opacity:1" />
  </g>
  <g
     id="16-16-media-playback-stop"
     transform="matrix(-1.4545448,0,0,1.4545448,728.05176,-468.00711)">
    <rect
       transform="matrix(-0.50000005,0,0,0.50000005,268.03572,291.00504)"
       y="78"
       x="-80"
       height="22"
       width="22"
       id="rect4507"
       style="opacity:0;fill:#000000;fill-opacity:1;stroke:none" />
    <path
       sodipodi:nodetypes="ccccc"
       inkscape:connector-curvature="0"
       id="path4509"
       d="m 307.34822,330.69254 0,9.625 -9.625,0 0,-9.625 z"
       style="fill:#ffffff;fill-opacity:0.2" />
    <path
       style="fill:#262626;fill-opacity:1"
       d="m 306.66072,331.38004 0,8.25 -8.25,0 0,-8.25 z"
       id="path4511"
       inkscape:connector-curvature="0"
       sodipodi:nodetypes="ccccc" />
  </g>
  <g
     transform="matrix(-1.4545448,0,0,1.4545448,488.05178,-468.00711)"
     id="16-16-media-skip-forward">
    <rect
       style="opacity:0;fill:#000000;fill-opacity:1;stroke:none"
       id="rect4517"
       width="11.000001"
       height="11.000001"
       x="297.03574"
       y="330.00504" />
    <path
       style="fill:#ffffff;fill-opacity:0.2"
       d="m 306.66075,330.69254 -6.87502,4.8125 6.87502,4.8125 0.6875,0 0,-9.625 z m -5.50002,0.6875 -3.4375,0 0,8.25 3.4375,0 z"
       id="path4519"
       inkscape:connector-curvature="0"
       sodipodi:nodetypes="ccccccccccc" />
    <path
       sodipodi:nodetypes="ccccccccc"
       inkscape:connector-curvature="0"
       id="path4521"
       d="m 306.66075,331.38004 -6.18752,4.125 6.18752,4.125 z m -6.18752,0.6875 -2.0625,0 0,6.875 2.0625,0 z"
       style="fill:#262626;fill-opacity:1" />
  </g>
  <g
     transform="matrix(1.4545448,0,0,1.4545448,-312.23355,-468.00711)"
     id="16-16-media-seek-backward">
    <rect
       style="opacity:0;fill:#000000;fill-opacity:1;stroke:none"
       id="rect4525"
       width="11.000001"
       height="11.000001"
       x="-308.16071"
       y="330.00504"
       transform="scale(-1,1)" />
    <path
       sodipodi:nodetypes="cccccccccccc"
       style="fill:#ffffff;fill-opacity:0.2"
       d="m 304.03571,331.38004 0,8.25 -0.6875,0 -5.50001,-4.125 5.50001,-4.125 z m 3.43749,0 0,8.25 -0.6875,0 -5.5,-4.125 5.5,-4.125 z"
       id="path4527"
       inkscape:connector-curvature="0" />
    <path
       sodipodi:nodetypes="ccccccc"
       style="fill:#262626;fill-opacity:1"
       d="m 303.3482,332.06754 10e-6,2.03125 -2,1.40625 2,1.40625 -10e-6,2.03125 -4.81251,-3.4375 z"
       id="path4529"
       inkscape:connector-curvature="0" />
    <path
       sodipodi:nodetypes="cccc"
       style="fill:#262626;fill-opacity:1"
       d="m 306.7857,332.06754 0,6.875 -4.8125,-3.4375 z"
       id="path4531"
       inkscape:connector-curvature="0" />
  </g>
  <g
     id="22-22-media-seek-backward"
     transform="matrix(1.9999998,0,0,1.9999998,-474.07139,-614.01002)">
    <rect
       transform="matrix(-0.50000005,0,0,0.50000005,168.03571,291.00504)"
       y="78"
       x="-280"
       height="22"
       width="22"
       id="rect3121"
       style="opacity:0;fill:#000000;fill-opacity:1;stroke:none" />
    <path
       inkscape:connector-curvature="0"
       id="path3123"
       d="m 303.53572,331.50504 0,8 -0.5,0 -5.5,-4 5.5,-4 z m 3.5,0 0,8 -0.5,0 -5.5,-4 5.5,-4 z"
       style="fill:#ffffff;fill-opacity:0.2"
       sodipodi:nodetypes="cccccccccccc" />
    <path
       sodipodi:nodetypes="ccccccc"
       inkscape:connector-curvature="0"
       id="path3125"
       transform="matrix(-0.50000005,0,0,0.50000005,308.03572,291.00504)"
       d="M 9.9999988,81.999998 10,86.1875 14,89 l -4,2.8125 -1.2e-6,4.187498 9.9999992,-7 z"
       style="fill:#262626;fill-opacity:1" />
    <path
       inkscape:connector-curvature="0"
       id="path3127"
       d="m 306.53572,332.00504 0,7 -5,-3.5 z"
       style="fill:#262626;fill-opacity:1"
       sodipodi:nodetypes="cccc" />
  </g>
  <g
     id="media-seek-forward"
     transform="matrix(-2.9090908,0,0,2.9090908,976.1038,-892.01463)">
    <rect
       transform="matrix(0.34375001,0,0,0.34375001,379.5357,295.63004)"
       y="100"
       x="-240"
       height="32"
       width="32"
       id="rect3167"
       style="opacity:0;fill:#000000;fill-opacity:1;stroke:none" />
    <path
       sodipodi:nodetypes="cccccccccccccc"
       inkscape:connector-curvature="0"
       id="path3169"
       transform="matrix(0.34375001,0,0,0.34375001,255.78569,306.63004)"
       d="m 138,74.000002 -14,10 14,10 1,0 0,-5.84375 -6,-4.15625 6,-4.15625 0,-5.84375 z m 9,0 0,20 1,0 0,-20 z"
       style="fill:#ffffff;fill-opacity:0.2" />
    <path
       sodipodi:nodetypes="ccccccccccc"
       inkscape:connector-curvature="0"
       id="path3171"
       transform="matrix(0.34375001,0,0,0.34375001,255.78569,306.63004)"
       d="m 138,75.000002 -13,9 13,9 0,-5.53125 -5,-3.46875 5,-3.46875 z m 9,0 -13,9 13,9 z"
       style="fill:#262626;fill-opacity:1" />
  </g>
</svg>
