<?xml version="1.0" encoding="UTF-8" standalone="no"?>
<!-- Created with Inkscape (http://www.inkscape.org/) -->

<svg
   xmlns:dc="http://purl.org/dc/elements/1.1/"
   xmlns:cc="http://creativecommons.org/ns#"
   xmlns:rdf="http://www.w3.org/1999/02/22-rdf-syntax-ns#"
   xmlns:svg="http://www.w3.org/2000/svg"
   xmlns="http://www.w3.org/2000/svg"
   xmlns:sodipodi="http://sodipodi.sourceforge.net/DTD/sodipodi-0.dtd"
   xmlns:inkscape="http://www.inkscape.org/namespaces/inkscape"
   width="200"
   height="100"
   id="svg7229"
   sodipodi:version="0.32"
   inkscape:version="0.48.4 r9939"
   version="1.0"
   sodipodi:docname="window.svg"
   inkscape:output_extension="org.inkscape.output.svgz.inkscape">
  <title
     id="title2995">Tilain</title>
  <defs
     id="defs7231" />
  <sodipodi:namedview
     id="base"
     pagecolor="#ffffff"
     bordercolor="#666666"
     borderopacity="1.0"
     inkscape:pageopacity="0"
     inkscape:pageshadow="2"
     inkscape:zoom="19.136363"
     inkscape:cx="29.542873"
     inkscape:cy="27.475651"
     inkscape:document-units="px"
     inkscape:current-layer="layer1"
     showgrid="true"
     inkscape:window-width="1920"
     inkscape:window-height="1030"
     inkscape:window-x="0"
     inkscape:window-y="23"
     showguides="true"
     inkscape:guide-bbox="true"
     gridtolerance="6"
     inkscape:window-maximized="1"
     inkscape:snap-bbox="true"
     inkscape:snap-bbox-edge-midpoints="true"
     inkscape:bbox-nodes="true"
     inkscape:bbox-paths="true"
     inkscape:snap-bbox-midpoints="true"
     inkscape:object-paths="true"
     inkscape:snap-intersection-paths="true"
     inkscape:object-nodes="true">
    <inkscape:grid
       type="xygrid"
       id="grid7245"
       visible="true"
       enabled="true"
       empspacing="5"
       snapvisiblegridlinesonly="true" />
  </sodipodi:namedview>
  <metadata
     id="metadata7234">
    <rdf:RDF>
      <cc:Work
         rdf:about="">
        <dc:format>image/svg+xml</dc:format>
        <dc:type
           rdf:resource="http://purl.org/dc/dcmitype/StillImage" />
        <dc:title>Tilain</dc:title>
      </cc:Work>
    </rdf:RDF>
  </metadata>
  <g
     inkscape:label="Camada 1"
     inkscape:groupmode="layer"
     id="layer1"
     transform="translate(-214.53572,-326.50504)">
    <g
       id="16-16-window-close"
       transform="translate(-171.99999,64.000005)">
      <rect
         y="346.50504"
         x="386.53571"
         height="16"
         width="16"
         id="rect3925-6"
         style="opacity:0;fill:#ffffff;fill-opacity:0.78431373;stroke:none" />
      <g
         transform="translate(-25,-20.5)"
         id="g3907">
        <path
           sodipodi:nodetypes="ccccccccccccc"
           inkscape:connector-curvature="0"
           id="path3764"
           d="m 412.5357,371.00504 4.00001,4 -4.00001,4 3,3 4.00001,-4 3.99999,4 3,-3 -3.99999,-4 3.99999,-4 -3,-3 -3.99999,4 -4.00001,-4 z"
           style="fill:#ffffff;fill-opacity:0.2;stroke:none" />
        <path
           style="fill:#262626;fill-opacity:1;stroke:none"
           d="m 413.53571,371.00504 4.00001,4 -4.00001,4 2,2 4.00001,-4 3.99999,4 2,-2 -3.99999,-4 3.99999,-4 -2,-2 -3.99999,4 -4.00001,-4 z"
           id="rect3129"
           inkscape:connector-curvature="0"
           sodipodi:nodetypes="ccccccccccccc" />
      </g>
    </g>
    <g
       transform="matrix(1.375,0,0,1.375,-316.95088,-91.939383)"
       id="22-22-window-close">
      <rect
         style="opacity:0;fill:#ffffff;fill-opacity:0.78431373;stroke:none"
         id="rect3026"
         width="16"
         height="16"
         x="386.53571"
         y="346.50504" />
      <g
         id="g3028"
         transform="matrix(0.93506494,0,0,0.93506494,2.2425663,3.8509696)">
        <path
           style="fill:#ffffff;fill-opacity:0.2;stroke:none"
           d="m 412.53572,371.11615 3.88889,3.88889 -3.88889,3.88889 3.11111,3.11111 3.88889,-3.88889 3.88889,3.88889 3.11111,-3.11111 -3.88889,-3.88889 3.88889,-3.88889 -3.11111,-3.11111 -3.88889,3.88889 -3.88889,-3.88889 z"
           id="path3766"
           inkscape:connector-curvature="0"
           sodipodi:nodetypes="ccccccccccccc" />
        <path
           sodipodi:nodetypes="ccccccccccccc"
           inkscape:connector-curvature="0"
           id="path3030"
           d="m 413.3135,371.11615 3.88889,3.88889 -3.88889,3.88889 2.33333,2.33333 3.88889,-3.88889 3.88889,3.88889 2.33333,-2.33333 -3.88889,-3.88889 3.88889,-3.88889 -2.33333,-2.33333 -3.88889,3.88889 -3.88889,-3.88889 z"
           style="fill:#262626;fill-opacity:1;stroke:none" />
      </g>
    </g>
    <g
       id="window-close"
       transform="matrix(2,0,0,2,-558.5357,-338.50503)">
      <rect
         y="346.50504"
         x="386.53571"
         height="16"
         width="16"
         id="rect3034"
         style="opacity:0;fill:#ffffff;fill-opacity:0.78431373;stroke:none" />
      <g
         transform="matrix(0.78571429,0,0,0.78571429,64.900495,59.858217)"
         id="g3036">
        <path
           sodipodi:nodetypes="ccccccccccccc"
           inkscape:connector-curvature="0"
           id="path3768"
           d="m 411.89936,370.55049 4.45455,4.45455 -4.45455,4.45454 3.18182,3.18182 4.45455,-4.45454 4.45454,4.45454 3.18182,-3.18182 -4.45455,-4.45454 4.45455,-4.45455 -3.18182,-3.18181 -4.45454,4.45454 -4.45455,-4.45454 z"
           style="fill:#ffffff;fill-opacity:0.2;stroke:none" />
        <path
           style="fill:#262626;fill-opacity:1;stroke:none"
           d="m 412.53573,370.55049 4.45454,4.45455 -4.45454,4.45454 2.54545,2.54546 4.45455,-4.45455 4.45454,4.45455 2.54546,-2.54546 -4.45455,-4.45454 4.45455,-4.45455 -2.54546,-2.54545 -4.45454,4.45454 -4.45455,-4.45454 z"
           id="path3038"
           inkscape:connector-curvature="0"
           sodipodi:nodetypes="ccccccccccccc" />
      </g>
    </g>
  </g>
</svg>
