<?xml version="1.0" encoding="UTF-8" standalone="no"?>
<!-- Created with Inkscape (http://www.inkscape.org/) -->

<svg
   xmlns:dc="http://purl.org/dc/elements/1.1/"
   xmlns:cc="http://creativecommons.org/ns#"
   xmlns:rdf="http://www.w3.org/1999/02/22-rdf-syntax-ns#"
   xmlns:svg="http://www.w3.org/2000/svg"
   xmlns="http://www.w3.org/2000/svg"
   xmlns:sodipodi="http://sodipodi.sourceforge.net/DTD/sodipodi-0.dtd"
   xmlns:inkscape="http://www.inkscape.org/namespaces/inkscape"
   width="24"
   height="24"
   id="svg3314"
   version="1.1"
   inkscape:version="0.48.4 r9939"
   sodipodi:docname="amarok.svg">
  <title
     id="title3043">Tilain</title>
  <defs
     id="defs3316" />
  <sodipodi:namedview
     id="base"
     pagecolor="#b4b4b4"
     bordercolor="#fffe00"
     borderopacity="1"
     inkscape:pageopacity="1"
     inkscape:pageshadow="2"
     inkscape:zoom="32"
     inkscape:cx="13.378792"
     inkscape:cy="10.847772"
     inkscape:current-layer="layer2"
     showgrid="false"
     inkscape:grid-bbox="true"
     inkscape:document-units="px"
     borderlayer="true"
     inkscape:window-width="1920"
     inkscape:window-height="1030"
     inkscape:window-x="0"
     inkscape:window-y="23"
     inkscape:window-maximized="1"
     showguides="true"
     inkscape:guide-bbox="true">
    <inkscape:grid
       type="xygrid"
       id="grid3045"
       empspacing="5"
       visible="true"
       enabled="true"
       snapvisiblegridlinesonly="true" />
    <sodipodi:guide
       orientation="0,1"
       position="24,20"
       id="guide3086" />
    <sodipodi:guide
       orientation="0,1"
       position="24,4"
       id="guide3088" />
    <sodipodi:guide
       orientation="0,1"
       position="0,12"
       id="guide4128" />
  </sodipodi:namedview>
  <metadata
     id="metadata3319">
    <rdf:RDF>
      <cc:Work
         rdf:about="">
        <dc:format>image/svg+xml</dc:format>
        <dc:type
           rdf:resource="http://purl.org/dc/dcmitype/StillImage" />
        <dc:title>Tilain</dc:title>
        <cc:license
           rdf:resource="" />
      </cc:Work>
    </rdf:RDF>
  </metadata>
  <g
     inkscape:groupmode="layer"
     id="layer2"
     inkscape:label="Ebene#1">
    <g
       id="amarok">
      <rect
         style="fill:none;stroke:none"
         id="rect3113"
         width="24"
         height="24"
         x="0"
         y="-2.2743113e-16" />
      <path
         style="fill:#ffffff;fill-opacity:0;stroke:none"
         d="M 12 3 C 7.0294373 3 3 7.0294373 3 12 C 3 16.970563 7.0294373 21 12 21 C 16.970563 21 21 16.970563 21 12 C 21 7.0294373 16.970563 3 12 3 z M 12 4 C 16.418278 4 20 7.581722 20 12 C 20 16.418278 16.418278 20 12 20 C 7.581722 20 4 16.418278 4 12 C 4 7.581722 7.581722 4 12 4 z M 12 6 C 8.6862915 6 6 8.6862915 6 12 C 6 13.449747 6.5190647 14.775346 7.375 15.8125 C 7.5672577 15.349415 7.9749384 14.783092 8.3125 14.34375 C 8.1021365 14.308719 6.6684376 12.823941 6.84375 12.71875 C 7.0190426 12.613616 8.2484825 12.122737 8.40625 12 C 8.5640175 11.877264 9.1684763 11.205 9.34375 11.1875 C 9.5190624 11.169955 9.8757853 11.108954 10.15625 10.96875 C 10.625227 10.602422 11.130538 10.27612 11.90625 10.375 C 12.134116 10.392525 12.373484 10.304094 12.53125 10.09375 C 12.68902 9.883367 14.352138 8.7301912 14.5625 8.625 C 14.772866 8.5198277 15.335911 7.84375 15.625 7.84375 C 15.712647 7.84375 15.86594 8.1081818 16.09375 8.40625 C 16.321658 8.7042203 16.247739 9.0083676 16.125 9.21875 C 16.002285 9.4291135 15.051079 11.199668 15.15625 11.375 C 15.261461 11.55029 16.029734 11.5038 16.1875 11.46875 C 16.34527 11.433699 16.814803 11.13492 16.9375 11.1875 C 17.06024 11.240096 17.125 11.561002 17.125 11.71875 C 17.125 11.876498 17.237065 12.0686 16.78125 12.15625 C 16.325453 12.243896 15.01826 13.080097 14.5625 13.78125 C 14.106685 14.482442 13.97259 17.153213 13.9375 17.46875 C 13.93222 17.546997 13.89931 17.61742 13.875 17.6875 C 16.268984 16.899312 18 14.65787 18 12 C 18 8.6862915 15.313708 6 12 6 z M 12 7 C 12.893358 7 13.711679 7.24576 14.4375 7.65625 C 13.459909 8.391807 12.692517 9.3897044 12 9.53125 C 11.10341 9.714507 11.026386 9.9614889 10.15625 10.09375 C 9.6755949 10.16681 9.9579956 10.165469 9.25 10.40625 C 8.768484 10.570009 8.55463 10.658503 8 11 C 7.7001736 11.184609 7 12.318016 7 12 C 7 9.2385763 9.2385763 7 12 7 z M 16.53125 9.96875 C 16.622818 10.172037 16.717155 10.377108 16.78125 10.59375 C 16.340937 10.78344 15.890602 11.153553 15.84375 10.9375 C 15.813971 10.800188 16.183988 10.416947 16.53125 9.96875 z M 12 11.09375 C 11.785889 11.082478 11.331792 11.105694 11.03125 11.40625 C 10.630504 11.806973 10.28571 12.701595 10.3125 12.96875 C 10.339182 13.235905 11.121498 12.04886 11.46875 11.96875 C 11.816076 11.888579 12.20519 11.311964 12.125 11.125 C 12.125 11.125 12.07137 11.09755 12 11.09375 z M 16.90625 13 C 16.662489 14.191233 15.957981 15.219161 15.03125 15.9375 C 15.174548 15.279869 15.000089 14.418876 15.59375 13.96875 C 15.84447 13.77865 16.411286 13.441179 16.90625 13 z "
         id="path2999" />
      <path
         style="fill:#4d4d4d;fill-opacity:1;stroke:none;overflow:visible"
         d="m 12,4 c -4.418278,0 -8,3.581722 -8,8 0,4.418278 3.581722,8 8,8 4.418278,0 8,-3.581722 8,-8 0,-4.418278 -3.581722,-8 -8,-8 z m 0,2 c 3.313708,0 6,2.6862915 6,6 0,2.65787 -1.731016,4.899312 -4.125,5.6875 0.02431,-0.07008 0.05722,-0.140503 0.0625,-0.21875 0.03509,-0.315537 0.169185,-2.986308 0.625,-3.6875 0.45576,-0.701153 1.762953,-1.537354 2.21875,-1.625 0.455815,-0.08765 0.34375,-0.279752 0.34375,-0.4375 0,-0.157748 -0.06476,-0.478654 -0.1875,-0.53125 -0.122697,-0.05258 -0.59223,0.246199 -0.75,0.28125 C 16.029734,11.5038 15.261461,11.55029 15.15625,11.375 15.051079,11.199668 16.002285,9.4291135 16.125,9.21875 16.247739,9.0083676 16.321658,8.7042203 16.09375,8.40625 15.86594,8.1081818 15.712647,7.84375 15.625,7.84375 c -0.289089,0 -0.852134,0.6760777 -1.0625,0.78125 -0.210362,0.1051912 -1.87348,1.258367 -2.03125,1.46875 -0.157766,0.210344 -0.397134,0.298775 -0.625,0.28125 -0.775712,-0.09888 -1.281023,0.227422 -1.75,0.59375 C 9.8757853,11.108954 9.5190624,11.169955 9.34375,11.1875 9.1684763,11.205 8.5640175,11.877264 8.40625,12 8.2484825,12.122737 7.0190426,12.613616 6.84375,12.71875 6.6684376,12.823941 8.1021365,14.308719 8.3125,14.34375 7.9749384,14.783092 7.5672577,15.349415 7.375,15.8125 6.5190647,14.775346 6,13.449747 6,12 6,8.6862915 8.6862915,6 12,6 z m 0,5.09375 c 0.07137,0.0038 0.125,0.03125 0.125,0.03125 0.08019,0.186964 -0.308924,0.763579 -0.65625,0.84375 -0.347252,0.08011 -1.129568,1.267155 -1.15625,1 -0.02679,-0.267155 0.318004,-1.161777 0.71875,-1.5625 0.300542,-0.300556 0.754639,-0.323772 0.96875,-0.3125 z"
         id="rect3111"
         inkscape:connector-curvature="0"
         sodipodi:nodetypes="ssssssscccsscscccscccccscccsscccccc" />
    </g>
  </g>
</svg>
