<?xml version="1.0" encoding="UTF-8" standalone="no"?>
<!-- Created with Inkscape (http://www.inkscape.org/) -->

<svg
   xmlns:dc="http://purl.org/dc/elements/1.1/"
   xmlns:cc="http://creativecommons.org/ns#"
   xmlns:rdf="http://www.w3.org/1999/02/22-rdf-syntax-ns#"
   xmlns:svg="http://www.w3.org/2000/svg"
   xmlns="http://www.w3.org/2000/svg"
   xmlns:sodipodi="http://sodipodi.sourceforge.net/DTD/sodipodi-0.dtd"
   xmlns:inkscape="http://www.inkscape.org/namespaces/inkscape"
   width="24"
   height="24"
   id="svg3314"
   version="1.1"
   inkscape:version="0.48.4 r9939"
   sodipodi:docname="apport.svg">
  <title
     id="title3081">Tilain</title>
  <defs
     id="defs3316" />
  <sodipodi:namedview
     id="base"
     pagecolor="#b2b2b2"
     bordercolor="#000000"
     borderopacity="1"
     inkscape:pageopacity="1"
     inkscape:pageshadow="2"
     inkscape:zoom="40.906786"
     inkscape:cx="22.123588"
     inkscape:cy="10.369185"
     inkscape:current-layer="layer2"
     showgrid="true"
     inkscape:grid-bbox="true"
     inkscape:document-units="px"
     borderlayer="true"
     inkscape:window-width="1920"
     inkscape:window-height="1030"
     inkscape:window-x="0"
     inkscape:window-y="23"
     inkscape:window-maximized="1"
     showguides="true"
     inkscape:guide-bbox="true">
    <inkscape:grid
       type="xygrid"
       id="grid3045"
       empspacing="5"
       visible="true"
       enabled="true"
       snapvisiblegridlinesonly="true" />
    <sodipodi:guide
       orientation="-1.8369095e-16,-1"
       position="24,20"
       id="guide3086" />
    <sodipodi:guide
       orientation="0,1"
       position="0,12"
       id="guide4128" />
    <sodipodi:guide
       orientation="1,0"
       position="12,25"
       id="guide3806" />
    <sodipodi:guide
       orientation="0,1"
       position="24,4"
       id="guide3000" />
  </sodipodi:namedview>
  <metadata
     id="metadata3319">
    <rdf:RDF>
      <cc:Work
         rdf:about="">
        <dc:format>image/svg+xml</dc:format>
        <dc:type
           rdf:resource="http://purl.org/dc/dcmitype/StillImage" />
        <dc:title>Tilain</dc:title>
        <cc:license
           rdf:resource="" />
      </cc:Work>
    </rdf:RDF>
  </metadata>
  <g
     inkscape:groupmode="layer"
     id="layer2"
     inkscape:label="Ebene#1">
    <g
       id="apport">
      <rect
         y="-24"
         x="0"
         height="24"
         width="24"
         id="rect3023"
         style="opacity:0;fill:#000000;fill-opacity:1;stroke:none"
         transform="matrix(0,1,-1,0,0,0)" />
      <path
         style="fill:#ffffff;fill-opacity:0.2;stroke:none"
         d="M 8 3 L 7 6 L 6 6 L 3 5 L 3 6 L 6 10 L 3 11 L 3 13 L 6 14 L 2 18 L 2 19 L 7 18 L 7 21 L 11 20 L 12 20 L 13 21 L 15 19 L 15.8125 19.40625 C 15.887681 19.641631 16 20 16 20 L 16 21 C 16 22.104569 16.895431 23 18 23 C 19.104569 23 20 22.104569 20 21 L 20 20 C 20 20 21.605966 15.190952 21.9375 12.03125 L 22 12 L 21.9375 11.9375 C 21.969323 11.611158 22 11.281075 22 11 C 22 11 22.0043 9.8438404 21.0625 8.96875 L 23 8 L 22 7 L 19 7 L 20 4 L 19 3 L 16 6 L 15 6 L 15 4 L 12 5 L 11 5 L 10 3 L 8 3 z M 9 4 L 11 7 L 14 5 L 15 8 L 17 6 L 18 5 L 19 4 L 18 8 L 22 8 L 20.6875 8.6875 C 20.6802 8.68249 20.66368 8.69247 20.65625 8.6875 C 20.066162 8.2924036 19.234456 8 18 8 C 14 8 14 11 14 11 C 14 13.042971 14.90824 16.360562 15.5 18.34375 L 15 18 L 13 20 L 12 18 L 8 20 L 9 16 L 3 18 L 8 14 L 4 12 L 8 11 L 4 6 L 8 8 L 9 4 z M 18 9 C 21 9 21 11 21 11 C 21 14 19 19 19 19 L 17 19 C 17 19 15 14 15 11 C 15 11 15 9 18 9 z M 18 20 C 18.552285 20 19 20.447715 19 21 C 19 21.552285 18.552285 22 18 22 C 17.447715 22 17 21.552285 17 21 C 17 20.447715 17.447715 20 18 20 z "
         id="path3000" />
      <path
         style="fill:#4d4d4d;fill-opacity:1;stroke:none"
         d="M 9,4 8,8 4,6 l 4,5 -4,1 4,2 -5,4 6,-2 -1,4 4,-2 1,2 2,-2 0.5,0.34375 C 14.90824,16.360562 14,13.042971 14,11 14,11 14,8 18,8 L 19,4 18,5 17,6 15,8 14,5 11,7 9,4 z m 9,4 c 1.275676,0 2.127,0.3031164 2.71875,0.71875 C 21.180158,8.4650145 21.6676,8.1662 22,8 l -4,0 z m 0,1 c 0.375,0 0.712891,0.039063 1,0.09375 C 18.707311,9.0357802 18.383513,9 18,9 z m -2,7.1875 c 0.241668,0.783217 0.505258,1.498834 0.6875,2 -0.182386,-0.501562 -0.444363,-1.214712 -0.6875,-2 z"
         id="path3778"
         inkscape:connector-curvature="0" />
      <path
         id="path7972"
         d="m 15,11 c 0,3 2,8 2,8 l 2,0 c 0,0 2,-5 2,-8 0,0 0,-2 -3,-2 -3,0 -3,2 -3,2 z m 3,9 c -0.552285,0 -1,0.447715 -1,1 0,0.552285 0.447715,1 1,1 0.552285,0 1,-0.447715 1,-1 0,-0.552285 -0.447715,-1 -1,-1 z"
         style="fill:#db4439;fill-opacity:1;stroke:none"
         inkscape:connector-curvature="0"
         sodipodi:nodetypes="cccczcsssss" />
    </g>
  </g>
</svg>
