<?xml version="1.0" encoding="UTF-8" standalone="no"?>
<!-- Created with Inkscape (http://www.inkscape.org/) -->

<svg
   xmlns:dc="http://purl.org/dc/elements/1.1/"
   xmlns:cc="http://creativecommons.org/ns#"
   xmlns:rdf="http://www.w3.org/1999/02/22-rdf-syntax-ns#"
   xmlns:svg="http://www.w3.org/2000/svg"
   xmlns="http://www.w3.org/2000/svg"
   xmlns:sodipodi="http://sodipodi.sourceforge.net/DTD/sodipodi-0.dtd"
   xmlns:inkscape="http://www.inkscape.org/namespaces/inkscape"
   width="24"
   height="24"
   id="svg3314"
   version="1.1"
   inkscape:version="0.48.4 r9939"
   sodipodi:docname="battery.svg">
  <title
     id="title3079">Tilain</title>
  <defs
     id="defs3316" />
  <sodipodi:namedview
     id="base"
     pagecolor="#b2b2b2"
     bordercolor="#000000"
     borderopacity="1"
     inkscape:pageopacity="1"
     inkscape:pageshadow="2"
     inkscape:zoom="5.6568543"
     inkscape:cx="-6.1453686"
     inkscape:cy="8.7153339"
     inkscape:current-layer="layer2"
     showgrid="true"
     inkscape:grid-bbox="true"
     inkscape:document-units="px"
     borderlayer="true"
     inkscape:window-width="1920"
     inkscape:window-height="1030"
     inkscape:window-x="0"
     inkscape:window-y="23"
     inkscape:window-maximized="1"
     showguides="true"
     inkscape:guide-bbox="true">
    <inkscape:grid
       type="xygrid"
       id="grid3045"
       empspacing="5"
       visible="true"
       enabled="true"
       snapvisiblegridlinesonly="true" />
    <sodipodi:guide
       orientation="0,1"
       position="8,4"
       id="guide3088" />
  </sodipodi:namedview>
  <metadata
     id="metadata3319">
    <rdf:RDF>
      <cc:Work
         rdf:about="">
        <dc:format>image/svg+xml</dc:format>
        <dc:type
           rdf:resource="http://purl.org/dc/dcmitype/StillImage" />
        <dc:title>Tilain</dc:title>
        <cc:license
           rdf:resource="" />
      </cc:Work>
    </rdf:RDF>
  </metadata>
  <g
     inkscape:groupmode="layer"
     id="layer2"
     inkscape:label="Ebene#1">
    <g
       id="Battery"
       transform="matrix(0,-1,1,0,0,24)">
      <rect
         style="opacity:0;fill:#000000;fill-opacity:1;stroke:none"
         id="rect3857"
         width="24"
         height="24"
         x="0"
         y="0" />
      <path
         style="fill:#ffffff;fill-opacity:0;stroke:none"
         d="m 12,3 c -4.9705627,0 -9,4.0294373 -9,9 0,4.970563 4.0294373,9 9,9 4.970563,0 9,-4.029437 9,-9 0,-4.9705627 -4.029437,-9 -9,-9 z m 0,1 c 4.418278,0 8,3.581722 8,8 0,4.418278 -3.581722,8 -8,8 C 7.5817219,20 4,16.418278 4,12 4,7.581722 7.5817219,4 12,4 z m 0,2 c -3.3137086,0 -6,2.6862915 -6,6 0,3.313708 2.6862914,6 6,6 3.313709,0 6,-2.686292 6,-6 C 18,8.6862915 15.313709,6 12,6 z M 10,7.4375 10,8 9.03125,8 C 9.3332317,7.7741615 9.6507115,7.5912033 10,7.4375 z m 4,0 C 14.349289,7.5912033 14.666768,7.7741615 14.96875,8 L 14,8 14,7.4375 z M 11,8 l 2,0 0,1 1,0 0,7 -4,0 0,-7 1,0 0,-1 z m -2,0.03125 0,7.9375 C 7.8004547,15.055407 7,13.624034 7,12 7,10.375966 7.8004547,8.9445926 9,8.03125 z m 6,0 c 1.199545,0.9133426 2,2.344716 2,3.96875 0,1.624034 -0.800455,3.055407 -2,3.96875 l 0,-7.9375 z"
         transform="matrix(0,1,-1,0,24,0)"
         id="path3816"
         inkscape:connector-curvature="0" />
      <path
         style="opacity:0.2;fill:#4d4d4d;fill-opacity:1;stroke:none"
         d="m 12,4 c -4.4182781,0 -8,3.581722 -8,8 0,4.418278 3.5817219,8 8,8 4.418278,0 8,-3.581722 8,-8 0,-4.418278 -3.581722,-8 -8,-8 z m 0,2 c 3.313709,0 6,2.6862915 6,6 0,3.313708 -2.686291,6 -6,6 C 8.6862914,18 6,15.313708 6,12 6,8.6862915 8.6862914,6 12,6 z m -1,2 0,1 -1,0 0,7 4,0 0,-7 -1,0 0,-1 -2,0 z"
         transform="matrix(0,1,-1,0,24,0)"
         id="path3859"
         inkscape:connector-curvature="0" />
    </g>
    <g
       id="AcAdapter"
       transform="translate(40,0)">
      <rect
         style="opacity:0;fill:#000000;fill-opacity:1;stroke:none"
         id="rect3872"
         width="24"
         height="24"
         x="0"
         y="40" />
      <path
         style="fill:#ffffff;fill-opacity:0.2;stroke:none"
         d="M 51,8 51,9 50.34375,9 50,9.5 50,14.34375 51,14 50.59375,16 53,16 54,14.5 54,9.65625 53,10 53.1875,9 53,9 53,8 51,8 z M 55.96875,9 55,9.34375 55,13 56.71875,10.40625 C 56.542105,9.8992099 56.289697,9.4187209 55.96875,9 z M 49,11 47.28125,13.59375 c 0.176645,0.50704 0.429053,0.987529 0.75,1.40625 L 49,14.65625 49,11 z"
         transform="translate(-40,40)"
         id="path4354"
         inkscape:connector-curvature="0" />
      <path
         style="fill:#4d4d4d;fill-opacity:1;stroke:none"
         d="m 13,46 -5,8 4,-1 -1,5 5,-8 -4,1 z"
         id="path3874"
         inkscape:connector-curvature="0"
         sodipodi:nodetypes="ccccccc" />
    </g>
    <g
       id="Unavailable"
       transform="matrix(0,1,-1,0,24,0)">
      <rect
         style="opacity:0;fill:#000000;fill-opacity:1;stroke:none"
         id="rect3929"
         width="24"
         height="24"
         x="0"
         y="0" />
      <g
         id="g3931"
         style="opacity:0.7" />
      <path
         style="fill:#ffffff;fill-opacity:0;stroke:none"
         d="M 18 8 C 14 8 14 11 14 11 C 14 14 16 20 16 20 L 16 21 C 16 22.104569 16.895431 23 18 23 C 19.104569 23 20 22.104569 20 21 L 20 20 C 20 20 22 14 22 11 C 22 11 22 8 18 8 z M 18 9 C 21 9 21 11 21 11 C 21 14 19 19 19 19 L 17 19 C 17 19 15 14 15 11 C 15 11 15 9 18 9 z M 18 20 C 18.552285 20 19 20.447715 19 21 C 19 21.552285 18.552285 22 18 22 C 17.447715 22 17 21.552285 17 21 C 17 20.447715 17.447715 20 18 20 z "
         transform="matrix(0,-1,1,0,0,24)"
         id="path7976" />
      <g
         id="g7968"
         transform="matrix(0,-1,1,0,23,27)">
        <path
           id="path7972"
           transform="translate(-11,-23)"
           d="m 29,11 c 0,3 2,8 2,8 l 2,0 c 0,0 2,-5 2,-8 0,0 0,-2 -3,-2 -3,0 -3,2 -3,2 z m 3,9 c -0.552285,0 -1,0.447715 -1,1 0,0.552285 0.447715,1 1,1 0.552285,0 1,-0.447715 1,-1 0,-0.552285 -0.447715,-1 -1,-1 z"
           style="fill:#db4439;fill-opacity:1;stroke:none"
           inkscape:connector-curvature="0"
           sodipodi:nodetypes="cccczcsssss" />
      </g>
      <g
         transform="matrix(0,-1,1,0,23,27)"
         id="g4086" />
    </g>
    <g
       transform="matrix(0.88888891,0,0,0.88888889,5.777777,-3.111111)"
       id="g3044">
      <path
         sodipodi:type="arc"
         style="fill:#4d4d4d;fill-opacity:1;stroke:none"
         id="path3046"
         sodipodi:cx="12.5"
         sodipodi:cy="12"
         sodipodi:rx="8.5"
         sodipodi:ry="9"
         d="m 19.376644,17.290067 c -1.055088,1.537629 -2.542831,2.68212 -4.25,3.269442 L 12.5,12 z"
         transform="matrix(1.0588235,0,0,1,38.764706,-40)"
         sodipodi:start="0.62831853"
         sodipodi:end="1.2566371" />
      <path
         transform="matrix(1.0588235,0,0,1,38.764706,-40)"
         d="m 21,12 c 0,1.900613 -0.568267,3.752439 -1.623356,5.290067 L 12.5,12 z"
         sodipodi:ry="9"
         sodipodi:rx="8.5"
         sodipodi:cy="12"
         sodipodi:cx="12.5"
         id="path3048"
         style="fill:#b2b2b2;fill-opacity:1;stroke:none"
         sodipodi:type="arc"
         sodipodi:start="0"
         sodipodi:end="0.62831853" />
      <path
         sodipodi:end="1.8849556"
         sodipodi:start="1.2566371"
         transform="matrix(1.0588235,0,0,1,38.764706,-40)"
         d="m 15.126644,20.559509 c -1.707169,0.587321 -3.54612,0.587321 -5.2532885,0 L 12.5,12 z"
         sodipodi:ry="9"
         sodipodi:rx="8.5"
         sodipodi:cy="12"
         sodipodi:cx="12.5"
         id="path3050"
         style="fill:#b2b2b2;fill-opacity:1;stroke:none"
         sodipodi:type="arc" />
      <path
         sodipodi:type="arc"
         style="fill:#4d4d4d;fill-opacity:1;stroke:none"
         id="path3052"
         sodipodi:cx="12.5"
         sodipodi:cy="12"
         sodipodi:rx="8.5"
         sodipodi:ry="9"
         d="M 9.8733555,20.559509 C 8.1661866,19.972187 6.6784441,18.827696 5.6233557,17.290067 L 12.5,12 z"
         transform="matrix(1.0588235,0,0,1,38.764706,-40)"
         sodipodi:start="1.8849556"
         sodipodi:end="2.5132741" />
      <path
         sodipodi:end="3.1415927"
         sodipodi:start="2.5132741"
         transform="matrix(1.0588235,0,0,1,38.764706,-40)"
         d="M 5.6233557,17.290067 C 4.5682671,15.752439 3.9999999,13.900613 4,12 l 8.5,0 z"
         sodipodi:ry="9"
         sodipodi:rx="8.5"
         sodipodi:cy="12"
         sodipodi:cx="12.5"
         id="path3054"
         style="fill:#b2b2b2;fill-opacity:1;stroke:none"
         sodipodi:type="arc" />
      <path
         sodipodi:type="arc"
         style="fill:#4d4d4d;fill-opacity:1;stroke:none"
         id="path3056"
         sodipodi:cx="12.5"
         sodipodi:cy="12"
         sodipodi:rx="8.5"
         sodipodi:ry="9"
         d="m 4,12 c 1e-7,-1.900614 0.5682672,-3.752439 1.6233556,-5.2900674 L 12.5,12 z"
         transform="matrix(1.0588235,0,0,1,38.764706,-40)"
         sodipodi:start="3.1415927"
         sodipodi:end="3.7699112" />
      <path
         sodipodi:end="4.3982297"
         sodipodi:start="3.7699112"
         transform="matrix(1.0588235,0,0,1,38.764706,-40)"
         d="M 5.6233556,6.7099326 C 6.678444,5.1723043 8.1661866,4.0278132 9.8733554,3.4404914 L 12.5,12 z"
         sodipodi:ry="9"
         sodipodi:rx="8.5"
         sodipodi:cy="12"
         sodipodi:cx="12.5"
         id="path3058"
         style="fill:#b2b2b2;fill-opacity:1;stroke:none"
         sodipodi:type="arc" />
      <path
         sodipodi:type="arc"
         style="fill:#4d4d4d;fill-opacity:1;stroke:none"
         id="path3060"
         sodipodi:cx="12.5"
         sodipodi:cy="12"
         sodipodi:rx="8.5"
         sodipodi:ry="9"
         d="m 9.8733554,3.4404914 c 1.7071686,-0.5873218 3.5461196,-0.5873219 5.2532886,-2e-7 L 12.5,12 z"
         transform="matrix(1.0588235,0,0,1,38.764706,-40)"
         sodipodi:start="4.3982297"
         sodipodi:end="5.0265482" />
      <path
         sodipodi:end="5.6548668"
         sodipodi:start="5.0265482"
         transform="matrix(1.0588235,0,0,1,38.764706,-40)"
         d="m 15.126644,3.4404912 c 1.707169,0.5873218 3.194912,1.7318131 4.250001,3.2694417 L 12.5,12 z"
         sodipodi:ry="9"
         sodipodi:rx="8.5"
         sodipodi:cy="12"
         sodipodi:cx="12.5"
         id="path3062"
         style="fill:#b2b2b2;fill-opacity:1;stroke:none"
         sodipodi:type="arc" />
      <path
         sodipodi:type="arc"
         style="fill:#4d4d4d;fill-opacity:1;stroke:none"
         id="path3064"
         sodipodi:cx="12.5"
         sodipodi:cy="12"
         sodipodi:rx="8.5"
         sodipodi:ry="9"
         d="M 19.376645,6.7099329 C 20.431733,8.2475613 21,10.099387 21,12 l -8.5,0 z"
         transform="matrix(1.0588235,0,0,1,38.764706,-40)"
         sodipodi:start="5.6548668"
         sodipodi:end="6.2831853" />
      <path
         sodipodi:type="arc"
         style="fill:#f7f7f7;fill-opacity:1;stroke:none"
         id="path3066"
         sodipodi:cx="12"
         sodipodi:cy="12"
         sodipodi:rx="6.75"
         sodipodi:ry="6.75"
         d="m 18.75,12 c 0,3.727922 -3.022078,6.75 -6.75,6.75 -3.7279221,0 -6.75,-3.022078 -6.75,-6.75 0,-3.7279221 3.0220779,-6.75 6.75,-6.75 3.727922,0 6.75,3.0220779 6.75,6.75 z"
         transform="translate(40,-40)" />
    </g>
    <g
       id="Fill100">
      <rect
         y="40"
         x="-80"
         height="24"
         width="24"
         id="rect4100"
         style="opacity:0;fill:#000000;fill-opacity:1;stroke:none" />
      <path
         inkscape:connector-curvature="0"
         id="path3107"
         d="m -68,44 c -0.834381,0 -1.665376,0.145218 -2.46875,0.40625 -1.606747,0.522064 -3.006976,1.539469 -4,2.90625 C -75.461774,48.679281 -76,50.310566 -76,52 c 0,1.689434 0.538225,3.320719 1.53125,4.6875 0.993024,1.366781 2.393253,2.384186 4,2.90625 1.606747,0.522064 3.330753,0.522064 4.9375,0 1.606747,-0.522064 3.006976,-1.539469 4,-2.90625 C -60.538226,55.320719 -60,53.689434 -60,52 c 0,-1.689434 -0.538226,-3.320719 -1.53125,-4.6875 -0.993024,-1.366781 -2.393253,-2.384186 -4,-2.90625 C -66.334624,44.145218 -67.165619,44 -68,44 z m 0,2 c 0.645483,0 1.261098,0.123861 1.84375,0.3125 1.222523,0.395803 2.261647,1.168784 3,2.1875 C -62.439968,49.488265 -62,50.686129 -62,52 c 0,1.313871 -0.439968,2.511735 -1.15625,3.5 -0.738353,1.018716 -1.777477,1.791697 -3,2.1875 C -66.738902,57.876139 -67.354517,58 -68,58 c -0.645483,0 -1.261098,-0.123861 -1.84375,-0.3125 -1.222523,-0.395803 -2.261647,-1.168784 -3,-2.1875 C -73.560032,54.511735 -74,53.313871 -74,52 c 0,-1.313871 0.439968,-2.511735 1.15625,-3.5 0.738353,-1.018716 1.777477,-1.791697 3,-2.1875 C -69.261098,46.123861 -68.645483,46 -68,46 z"
         style="fill:#4d4d4d;fill-opacity:1;stroke:none" />
    </g>
    <g
       id="Fill90">
      <rect
         style="opacity:0;fill:#000000;fill-opacity:1;stroke:none"
         id="rect4122"
         width="24"
         height="24"
         x="-80"
         y="20" />
      <path
         inkscape:connector-curvature="0"
         id="path3128"
         d="m -68,24 c -0.834381,0 -1.665376,0.145218 -2.46875,0.40625 -1.606747,0.522064 -3.006976,1.539469 -4,2.90625 C -75.461774,28.679281 -76,30.310566 -76,32 c 0,1.689434 0.538225,3.320719 1.53125,4.6875 0.993024,1.366781 2.393253,2.384186 4,2.90625 1.606747,0.522064 3.330753,0.522064 4.9375,0 1.606747,-0.522064 3.006976,-1.539469 4,-2.90625 C -60.538226,35.320719 -60,33.689434 -60,32 l -2,0 c 0,1.313871 -0.439968,2.511735 -1.15625,3.5 -0.738353,1.018716 -1.777477,1.791697 -3,2.1875 C -66.738902,37.876139 -67.354517,38 -68,38 c -0.645483,0 -1.261098,-0.123861 -1.84375,-0.3125 -1.222523,-0.395803 -2.261647,-1.168784 -3,-2.1875 C -73.560032,34.511735 -74,33.313871 -74,32 c 0,-1.313871 0.439968,-2.511735 1.15625,-3.5 0.738353,-1.018716 1.777477,-1.791697 3,-2.1875 C -69.261098,26.123861 -68.645483,26 -68,26 c 0.645483,0 1.261098,0.123861 1.84375,0.3125 1.222523,0.395803 2.261647,1.168784 3,2.1875 l 1.625,-1.1875 c -0.993024,-1.366781 -2.393253,-2.384186 -4,-2.90625 C -66.334624,24.145218 -67.165619,24 -68,24 z"
         style="fill:#4d4d4d;fill-opacity:1;stroke:none" />
    </g>
    <g
       id="Fill80">
      <rect
         style="opacity:0;fill:#000000;fill-opacity:1;stroke:none"
         id="rect4142"
         width="24"
         height="24"
         x="-80"
         y="0" />
      <path
         inkscape:connector-curvature="0"
         id="path3149"
         d="m -68,4 c -0.834381,0 -1.665376,0.1452181 -2.46875,0.40625 -1.606747,0.5220638 -3.006976,1.5394692 -4,2.90625 C -75.461774,8.6792808 -76,10.310566 -76,12 c 0,1.689434 0.538225,3.320719 1.53125,4.6875 0.993024,1.366781 2.393253,2.384186 4,2.90625 1.606747,0.522064 3.330753,0.522064 4.9375,0 1.606747,-0.522064 3.006976,-1.539469 4,-2.90625 C -60.538226,15.320719 -60,13.689434 -60,12 l -2,0 c 0,1.313871 -0.439968,2.511735 -1.15625,3.5 -0.738353,1.018716 -1.777477,1.791697 -3,2.1875 C -66.738902,17.876139 -67.354517,18 -68,18 c -0.645483,0 -1.261098,-0.123861 -1.84375,-0.3125 -1.222523,-0.395803 -2.261647,-1.168784 -3,-2.1875 C -73.560032,14.511735 -74,13.313871 -74,12 c 0,-1.313871 0.439968,-2.5117349 1.15625,-3.5 0.738353,-1.0187159 1.777477,-1.7916974 3,-2.1875 C -69.261098,6.1238612 -68.645483,6 -68,6 c 0.645483,0 1.261098,0.1238612 1.84375,0.3125 l 0.625,-1.90625 C -66.334624,4.1452181 -67.165619,4 -68,4 z"
         style="fill:#4d4d4d;fill-opacity:1;stroke:none" />
    </g>
    <g
       id="Fill70">
      <rect
         style="opacity:0;fill:#000000;fill-opacity:1;stroke:none"
         id="rect4162"
         width="24"
         height="24"
         x="-80"
         y="-20" />
      <path
         inkscape:connector-curvature="0"
         id="path3170"
         d="m -70.46875,-15.59375 c -1.606747,0.522064 -3.006976,1.539469 -4,2.90625 C -75.461774,-11.320719 -76,-9.689434 -76,-8 c 0,1.689434 0.538225,3.320719 1.53125,4.6875 0.993024,1.366781 2.393253,2.384186 4,2.90625 1.606747,0.522064 3.330753,0.522064 4.9375,0 1.606747,-0.522064 3.006976,-1.539469 4,-2.90625 C -60.538226,-4.679281 -60,-6.310566 -60,-8 l -2,0 c 0,1.313871 -0.439968,2.511735 -1.15625,3.5 -0.738353,1.018716 -1.777477,1.791697 -3,2.1875 C -66.738902,-2.123861 -67.354517,-2 -68,-2 c -0.645483,0 -1.261098,-0.123861 -1.84375,-0.3125 -1.222523,-0.395803 -2.261647,-1.168784 -3,-2.1875 C -73.560032,-5.488265 -74,-6.686129 -74,-8 c 0,-1.313871 0.439968,-2.511735 1.15625,-3.5 0.738353,-1.018716 1.777477,-1.791697 3,-2.1875 l -0.625,-1.90625 z"
         style="fill:#4d4d4d;fill-opacity:1;stroke:none" />
    </g>
    <g
       id="Fill60">
      <rect
         style="opacity:0;fill:#000000;fill-opacity:1;stroke:none"
         id="rect4182"
         width="24"
         height="24"
         x="-80"
         y="-40" />
      <path
         inkscape:connector-curvature="0"
         id="path3191"
         d="M -74.46875,-32.6875 C -75.461774,-31.320719 -76,-29.689434 -76,-28 c 0,1.689434 0.538225,3.320719 1.53125,4.6875 0.993024,1.366781 2.393253,2.384186 4,2.90625 1.606747,0.522064 3.330753,0.522064 4.9375,0 1.606747,-0.522064 3.006976,-1.539469 4,-2.90625 C -60.538226,-24.679281 -60,-26.310566 -60,-28 l -2,0 c 0,1.313871 -0.439968,2.511735 -1.15625,3.5 -0.738353,1.018716 -1.777477,1.791697 -3,2.1875 C -66.738902,-22.123861 -67.354517,-22 -68,-22 c -0.645483,0 -1.261098,-0.123861 -1.84375,-0.3125 -1.222523,-0.395803 -2.261647,-1.168784 -3,-2.1875 C -73.560032,-25.488265 -74,-26.686129 -74,-28 c 0,-1.313871 0.439968,-2.511735 1.15625,-3.5 l -1.625,-1.1875 z"
         style="fill:#4d4d4d;fill-opacity:1;stroke:none" />
    </g>
    <g
       id="Fill50">
      <rect
         style="opacity:0;fill:#000000;fill-opacity:1;stroke:none"
         id="rect4202"
         width="24"
         height="24"
         x="-60"
         y="40" />
      <path
         inkscape:connector-curvature="0"
         id="path3212"
         d="m -56,52 c 0,1.689434 0.538225,3.320719 1.53125,4.6875 0.993024,1.366781 2.393253,2.384186 4,2.90625 1.606747,0.522064 3.330753,0.522064 4.9375,0 1.606747,-0.522064 3.006976,-1.539469 4,-2.90625 C -40.538226,55.320719 -40,53.689434 -40,52 l -2,0 c 0,1.313871 -0.439968,2.511735 -1.15625,3.5 -0.738353,1.018716 -1.777477,1.791697 -3,2.1875 C -46.738902,57.876139 -47.354517,58 -48,58 c -0.645483,0 -1.261098,-0.123861 -1.84375,-0.3125 -1.222523,-0.395803 -2.261647,-1.168784 -3,-2.1875 C -53.560032,54.511735 -54,53.313871 -54,52 l -2,0 z"
         style="fill:#4d4d4d;fill-opacity:1;stroke:none" />
    </g>
    <g
       id="Fill40">
      <rect
         style="opacity:0;fill:#000000;fill-opacity:1;stroke:none"
         id="rect4245"
         width="24"
         height="24"
         x="-60"
         y="20" />
      <path
         inkscape:connector-curvature="0"
         id="path3223"
         d="m -42,32 c 0,1.313871 -0.439968,2.511735 -1.15625,3.5 -0.738353,1.018716 -1.777477,1.791697 -3,2.1875 C -46.738902,37.876139 -47.354517,38 -48,38 c -0.645483,0 -1.261098,-0.123861 -1.84375,-0.3125 -1.222523,-0.395803 -2.261647,-1.168784 -3,-2.1875 l -1.625,1.1875 c 0.993024,1.366781 2.393253,2.384186 4,2.90625 1.606747,0.522064 3.330753,0.522064 4.9375,0 1.606747,-0.522064 3.006976,-1.539469 4,-2.90625 C -40.538226,35.320719 -40,33.689434 -40,32 l -2,0 z"
         style="fill:#4d4d4d;fill-opacity:1;stroke:none" />
    </g>
    <g
       id="Fill30">
      <rect
         style="opacity:0;fill:#000000;fill-opacity:1;stroke:none"
         id="rect4265"
         width="24"
         height="24"
         x="-60"
         y="0" />
      <path
         inkscape:connector-curvature="0"
         id="path3235"
         d="m -42,12 c 0,1.313871 -0.439968,2.511735 -1.15625,3.5 -0.738353,1.018716 -1.777477,1.791697 -3,2.1875 C -46.738902,17.876139 -47.354517,18 -48,18 c -0.645483,0 -1.261098,-0.123861 -1.84375,-0.3125 l -0.625,1.90625 c 1.606747,0.522064 3.330753,0.522064 4.9375,0 1.606747,-0.522064 3.006976,-1.539469 4,-2.90625 C -40.538226,15.320719 -40,13.689434 -40,12 l -2,0 z"
         style="fill:#4d4d4d;fill-opacity:1;stroke:none" />
    </g>
    <g
       id="Fill20">
      <rect
         style="opacity:0;fill:#000000;fill-opacity:1;stroke:none"
         id="rect4285"
         width="24"
         height="24"
         x="-60"
         y="-20" />
      <path
         inkscape:connector-curvature="0"
         id="path3242"
         d="m -42,-8 c 0,1.313871 -0.439968,2.511735 -1.15625,3.5 -0.738353,1.018716 -1.777477,1.791697 -3,2.1875 l 0.625,1.90625 c 1.606747,-0.522064 3.006976,-1.539469 4,-2.90625 C -40.538226,-4.679281 -40,-6.310566 -40,-8 l -2,0 z"
         style="fill:#db4439;fill-opacity:1;stroke:none" />
    </g>
    <g
       id="Fill10">
      <rect
         style="opacity:0;fill:#000000;fill-opacity:1;stroke:none"
         id="rect4326"
         width="24"
         height="24"
         x="-60"
         y="-40" />
      <path
         inkscape:connector-curvature="0"
         id="path3247"
         d="m -42,-28 c 0,1.313871 -0.439968,2.511735 -1.15625,3.5 l 1.625,1.1875 C -40.538226,-24.679281 -40,-26.310566 -40,-28 l -2,0 z"
         style="fill:#db4439;fill-opacity:1;stroke:none" />
    </g>
  </g>
</svg>
