<?xml version="1.0" encoding="UTF-8" standalone="no"?>
<!-- Created with Inkscape (http://www.inkscape.org/) -->

<svg
   xmlns:dc="http://purl.org/dc/elements/1.1/"
   xmlns:cc="http://creativecommons.org/ns#"
   xmlns:rdf="http://www.w3.org/1999/02/22-rdf-syntax-ns#"
   xmlns:svg="http://www.w3.org/2000/svg"
   xmlns="http://www.w3.org/2000/svg"
   xmlns:sodipodi="http://sodipodi.sourceforge.net/DTD/sodipodi-0.dtd"
   xmlns:inkscape="http://www.inkscape.org/namespaces/inkscape"
   width="24"
   height="24"
   id="svg3314"
   version="1.1"
   inkscape:version="0.48.4 r9939"
   sodipodi:docname="device.svg">
  <title
     id="title3055">Tilain</title>
  <defs
     id="defs3316" />
  <sodipodi:namedview
     id="base"
     pagecolor="#b2b2b2"
     bordercolor="#000000"
     borderopacity="1"
     inkscape:pageopacity="1"
     inkscape:pageshadow="2"
     inkscape:zoom="16"
     inkscape:cx="20.853843"
     inkscape:cy="9.2052776"
     inkscape:current-layer="svg3314"
     showgrid="true"
     inkscape:grid-bbox="true"
     inkscape:document-units="px"
     borderlayer="true"
     inkscape:window-width="1920"
     inkscape:window-height="1030"
     inkscape:window-x="0"
     inkscape:window-y="23"
     inkscape:window-maximized="1"
     showguides="true"
     inkscape:guide-bbox="true">
    <inkscape:grid
       type="xygrid"
       id="grid3045"
       empspacing="5"
       visible="true"
       enabled="true"
       snapvisiblegridlinesonly="true" />
    <sodipodi:guide
       orientation="0,1"
       position="0,20"
       id="guide3086" />
    <sodipodi:guide
       orientation="0,1"
       position="0,4"
       id="guide3088" />
    <sodipodi:guide
       orientation="0,1"
       position="0,12"
       id="guide4128" />
  </sodipodi:namedview>
  <metadata
     id="metadata3319">
    <rdf:RDF>
      <cc:Work
         rdf:about="">
        <dc:format>image/svg+xml</dc:format>
        <dc:type
           rdf:resource="http://purl.org/dc/dcmitype/StillImage" />
        <dc:title>Tilain</dc:title>
        <cc:license
           rdf:resource="" />
      </cc:Work>
    </rdf:RDF>
  </metadata>
  <g
     inkscape:groupmode="layer"
     id="layer2"
     inkscape:label="Ebene#1">
    <g
       id="device-notifier"
       transform="translate(0,-1028.3622)">
      <rect
         y="1028.3622"
         x="0"
         height="24"
         width="24"
         id="rect4164"
         style="opacity:0;fill:#ffffff;fill-opacity:0;stroke:none" />
      <path
         style="fill:#ffffff;fill-opacity:0;stroke:none"
         d="M 12 3 C 8.0815184 3 4.7668913 5.5046673 3.53125 9 L 0 9 L 0 15 L 3.53125 15 C 4.7668913 18.495333 8.0815184 21 12 21 C 16.970563 21 21 16.970563 21 12 C 21 7.0294373 16.970563 3 12 3 z M 12 4 C 16.418278 4 20 7.581722 20 12 C 20 16.418278 16.418278 20 12 20 C 8.6414184 20 5.7797393 17.933501 4.59375 15 L 6.8125 15 C 7.8499369 16.793371 9.7791781 18 12 18 C 15.313708 18 18 15.313708 18 12 C 18 8.6862915 15.313708 6 12 6 C 9.7791781 6 7.8499369 7.2066295 6.8125 9 L 4.59375 9 C 5.7797393 6.0664986 8.6414184 4 12 4 z M 12 7 C 14.761424 7 17 9.2385763 17 12 C 17 14.761424 14.761424 17 12 17 C 10.375966 17 8.9445926 16.199545 8.03125 15 L 12 15 C 13.662 15 15 13.662 15 12 C 15 10.338 13.662 9 12 9 L 8.03125 9 C 8.9445926 7.8004547 10.375966 7 12 7 z M 1 10 L 12 10 C 13.108 10 14 10.892 14 12 C 14 13.108 13.108 14 12 14 L 1 14 L 1 10 z "
         transform="translate(0,1028.3622)"
         id="path2999" />
      <path
         style="fill:#4d4d4d;fill-opacity:1;stroke:none"
         d="M 12,4 C 8.6414184,4 5.7797393,6.0664986 4.59375,9 L 6.8125,9 C 7.8499369,7.2066295 9.7791781,6 12,6 c 3.313708,0 6,2.6862915 6,6 0,3.313708 -2.686292,6 -6,6 -2.2208219,0 -4.1500631,-1.206629 -5.1875,-3 l -2.21875,0 c 1.1859893,2.933501 4.0476684,5 7.40625,5 4.418278,0 8,-3.581722 8,-8 0,-4.418278 -3.581722,-8 -8,-8 z m -11,6 0,4 c 0,0 7.3333333,0 11,0 1.108,0 2,-0.892 2,-2 0,-1.108 -0.892,-2 -2,-2 -3.6666667,0 -11,0 -11,0 z"
         transform="translate(0,1028.3622)"
         id="path2992"
         inkscape:connector-curvature="0"
         sodipodi:nodetypes="sccsssccssscccscc" />
    </g>
  </g>
</svg>
