<?xml version="1.0" encoding="UTF-8" standalone="no"?>
<!-- Created with Inkscape (http://www.inkscape.org/) -->

<svg
   xmlns:dc="http://purl.org/dc/elements/1.1/"
   xmlns:cc="http://creativecommons.org/ns#"
   xmlns:rdf="http://www.w3.org/1999/02/22-rdf-syntax-ns#"
   xmlns:svg="http://www.w3.org/2000/svg"
   xmlns="http://www.w3.org/2000/svg"
   xmlns:sodipodi="http://sodipodi.sourceforge.net/DTD/sodipodi-0.dtd"
   xmlns:inkscape="http://www.inkscape.org/namespaces/inkscape"
   width="24"
   height="24"
   id="svg3314"
   version="1.1"
   inkscape:version="0.48.4 r9939"
   sodipodi:docname="juk.svg">
  <title
     id="title3057">Tilain</title>
  <defs
     id="defs3316" />
  <sodipodi:namedview
     id="base"
     pagecolor="#b2b2b2"
     bordercolor="#000000"
     borderopacity="1"
     inkscape:pageopacity="1"
     inkscape:pageshadow="2"
     inkscape:zoom="32"
     inkscape:cx="11.816561"
     inkscape:cy="12.836206"
     inkscape:current-layer="layer2"
     showgrid="true"
     inkscape:grid-bbox="true"
     inkscape:document-units="px"
     borderlayer="true"
     inkscape:window-width="1920"
     inkscape:window-height="1030"
     inkscape:window-x="0"
     inkscape:window-y="23"
     inkscape:window-maximized="1"
     showguides="true"
     inkscape:guide-bbox="true">
    <inkscape:grid
       type="xygrid"
       id="grid3045"
       empspacing="5"
       visible="true"
       enabled="true"
       snapvisiblegridlinesonly="true" />
    <sodipodi:guide
       orientation="0,1"
       position="24,20"
       id="guide3086" />
    <sodipodi:guide
       orientation="0,1"
       position="24,4"
       id="guide3088" />
    <sodipodi:guide
       orientation="0,1"
       position="0,12"
       id="guide4128" />
  </sodipodi:namedview>
  <metadata
     id="metadata3319">
    <rdf:RDF>
      <cc:Work
         rdf:about="">
        <dc:format>image/svg+xml</dc:format>
        <dc:type
           rdf:resource="http://purl.org/dc/dcmitype/StillImage" />
        <dc:title>Tilain</dc:title>
        <cc:license
           rdf:resource="" />
      </cc:Work>
    </rdf:RDF>
  </metadata>
  <g
     inkscape:groupmode="layer"
     id="layer2"
     inkscape:label="Ebene#1">
    <g
       id="juk">
      <rect
         style="fill:none;stroke:none"
         id="rect3113"
         width="24"
         height="24"
         x="0"
         y="-2.2743113e-16" />
      <path
         style="fill:#ffffff;fill-opacity:0;stroke:none"
         d="M 9,3 C 7,3 6.932013,4.5660906 7,5 l 0.75,6.03125 C 7.6671732,11.026224 7.5843193,11 7.5,11 5.5670034,11 4,12.343146 4,14 c 0,0.551042 0.1975242,1.056228 0.5,1.5 L 4,16 c 0,0 2.4329496,2.409823 5,5 l 7,-7 0,-1 c 2.209139,0 4,-1.790861 4,-4 C 20,6.790861 18.209139,5 16,5 14.692329,5 13.542365,5.6234382 12.8125,6.59375 12.850831,4.6384227 10.924206,3 9,3 z m 0,1 c 3,0 4,3 2,5 1,-2 0,-4 -2,-4 0.333333,2.6666667 1,7 1,9 0,1.104569 -1.1192881,2 -2.5,2 C 6.1192881,16 5,15.104569 5,14 c 0,-1.104569 1.1192881,-2 2.5,-2 0.517767,0 1.0072474,0.128101 1.40625,0.34375 L 8,5 C 7.932013,4.5660906 8,4 9,4 z m 7,2 c 1.656854,0 3,1.3431458 3,3 0,1.656854 -1.343146,3 -3,3 -0.355533,0 -0.683528,-0.07398 -1,-0.1875 L 15,14 9,20 5.53125,16.5 C 6.0898536,16.823473 6.7751263,17 7.5,17 9.432997,17 11,15.656854 11,14 11,13.118493 10.860896,11.758081 10.6875,10.3125 L 11,10 13.1875,10 C 13.073979,9.6835283 13,9.3555333 13,9 13,7.3431458 14.343146,6 16,6 z m 0,1 c -1.104569,0 -2,0.8954305 -2,2 0,0.3649651 0.110492,0.7054558 0.28125,1 L 15,10 15,10.71875 C 15.294544,10.889508 15.635035,11 16,11 17.104569,11 18,10.104569 18,9 18,7.8954305 17.104569,7 16,7 z m 0,1 c 0.552285,0 1,0.4477153 1,1 0,0.5522847 -0.447715,1 -1,1 l 0,-1 -1,0 c 0,-0.5522847 0.447715,-1 1,-1 z"
         id="path3786"
         inkscape:connector-curvature="0" />
      <path
         style="fill:#4d4d4d;fill-opacity:1;stroke:none"
         d="m 11,10 -0.3125,0.3125 C 10.860896,11.758081 11,13.118493 11,14 11,15.656854 9.432997,17 7.5,17 6.7751263,17 6.0898536,16.823473 5.53125,16.5 L 9,20 l 6,-6 0,-4 -4,0 z"
         id="path4015"
         inkscape:connector-curvature="0" />
      <path
         sodipodi:nodetypes="ccccccc"
         inkscape:connector-curvature="0"
         id="path4019"
         d="m 8,5 1,8 1,1 C 10,12 9.333333,7.6666667 9,5 11,5 12,7 11,9 13,7 12,4 9,4 8,4 7.932013,4.5660906 8,5 z"
         style="fill:#4d4d4d;fill-opacity:1;stroke:none" />
      <path
         style="fill:#4d4d4d;fill-opacity:1;stroke:none"
         d="m 16,6 c -1.656854,0 -3,1.3431458 -3,3 0,1.656854 1.343146,3 3,3 1.656854,0 3,-1.343146 3,-3 0,-1.6568542 -1.343146,-3 -3,-3 z m 0,1 c 1.104569,0 2,0.8954305 2,2 0,1.104569 -0.895431,2 -2,2 -1.104569,0 -2,-0.895431 -2,-2 0,-1.1045695 0.895431,-2 2,-2 z"
         id="path2998"
         inkscape:connector-curvature="0" />
      <path
         sodipodi:type="arc"
         style="fill:#4d4d4d;fill-opacity:1;stroke:none"
         id="path3771"
         sodipodi:cx="8.5"
         sodipodi:cy="14"
         sodipodi:rx="2.5"
         sodipodi:ry="2"
         d="m 11,14 a 2.5,2 0 1 1 -5,0 2.5,2 0 1 1 5,0 z"
         transform="translate(-1,0)" />
    </g>
  </g>
</svg>
