<?xml version="1.0" encoding="UTF-8" standalone="no"?>
<!-- Created with Inkscape (http://www.inkscape.org/) -->

<svg
   xmlns:dc="http://purl.org/dc/elements/1.1/"
   xmlns:cc="http://creativecommons.org/ns#"
   xmlns:rdf="http://www.w3.org/1999/02/22-rdf-syntax-ns#"
   xmlns:svg="http://www.w3.org/2000/svg"
   xmlns="http://www.w3.org/2000/svg"
   xmlns:sodipodi="http://sodipodi.sourceforge.net/DTD/sodipodi-0.dtd"
   xmlns:inkscape="http://www.inkscape.org/namespaces/inkscape"
   width="24"
   height="24"
   id="svg3314"
   version="1.1"
   inkscape:version="0.48.4 r9939"
   sodipodi:docname="kget.svg">
  <title
     id="title3266">Tilain</title>
  <defs
     id="defs3316" />
  <sodipodi:namedview
     id="base"
     pagecolor="#b2b2b2"
     bordercolor="#000000"
     borderopacity="1"
     inkscape:pageopacity="1"
     inkscape:pageshadow="2"
     inkscape:zoom="32"
     inkscape:cx="8.0903062"
     inkscape:cy="17.069027"
     inkscape:current-layer="svg3314"
     showgrid="true"
     inkscape:grid-bbox="true"
     inkscape:document-units="px"
     borderlayer="true"
     inkscape:window-width="1920"
     inkscape:window-height="1030"
     inkscape:window-x="0"
     inkscape:window-y="23"
     inkscape:window-maximized="1"
     showguides="true"
     inkscape:guide-bbox="true">
    <inkscape:grid
       type="xygrid"
       id="grid3045"
       empspacing="5"
       visible="true"
       enabled="true"
       snapvisiblegridlinesonly="true" />
    <sodipodi:guide
       orientation="0,1"
       position="24,20"
       id="guide3086" />
    <sodipodi:guide
       orientation="0,1"
       position="24,4"
       id="guide3088" />
    <sodipodi:guide
       orientation="0,1"
       position="0,12"
       id="guide4128" />
  </sodipodi:namedview>
  <metadata
     id="metadata3319">
    <rdf:RDF>
      <cc:Work
         rdf:about="">
        <dc:format>image/svg+xml</dc:format>
        <dc:type
           rdf:resource="http://purl.org/dc/dcmitype/StillImage" />
        <dc:title>Tilain</dc:title>
      </cc:Work>
    </rdf:RDF>
  </metadata>
  <g
     inkscape:groupmode="layer"
     id="layer2"
     inkscape:label="Ebene#1">
    <g
       id="kget">
      <rect
         style="opacity:0;fill:#a1a1a1;fill-opacity:1;stroke:none"
         id="rect3872"
         width="24"
         height="24"
         x="0"
         y="0" />
      <path
         style="fill:#ffffff;fill-opacity:0;stroke:none"
         d="M 12 3 C 10.338 3 9 4.338 9 6 L 9 7 L 9 13 L 6 13 L 5 14 L 12 21 L 19 14 L 18 13 L 15 13 L 15 7 L 15 6 C 15 4.338 13.662 3 12 3 z M 12 4 C 13.108 4 14 4.892 14 6 L 14 12 L 14 12.21875 L 14 14 L 18 14 L 12 20 L 6 14 L 10 14 L 10 12.21875 L 10 12 L 10 6 C 10 4.892 10.892 4 12 4 z "
         id="path2996" />
      <path
         style="fill:#4d4d4d;fill-opacity:1;stroke:none"
         d="M 12 4 C 10.892 4 10 4.892 10 6 L 10 12 L 10 14 L 6 14 L 12 20 L 18 14 L 14 14 L 14 12 L 14 6 C 14 4.892 13.108 4 12 4 z "
         id="path3870" />
    </g>
  </g>
</svg>
