<?xml version="1.0" encoding="UTF-8" standalone="no"?>
<!-- Created with Inkscape (http://www.inkscape.org/) -->

<svg
   xmlns:dc="http://purl.org/dc/elements/1.1/"
   xmlns:cc="http://creativecommons.org/ns#"
   xmlns:rdf="http://www.w3.org/1999/02/22-rdf-syntax-ns#"
   xmlns:svg="http://www.w3.org/2000/svg"
   xmlns="http://www.w3.org/2000/svg"
   xmlns:sodipodi="http://sodipodi.sourceforge.net/DTD/sodipodi-0.dtd"
   xmlns:inkscape="http://www.inkscape.org/namespaces/inkscape"
   width="24"
   height="24"
   id="svg3314"
   version="1.1"
   inkscape:version="0.48.4 r9939"
   sodipodi:docname="klipper.svg">
  <title
     id="title2992">Tilain</title>
  <defs
     id="defs3316" />
  <sodipodi:namedview
     id="base"
     pagecolor="#b2b2b2"
     bordercolor="#000000"
     borderopacity="1"
     inkscape:pageopacity="1"
     inkscape:pageshadow="2"
     inkscape:zoom="32"
     inkscape:cx="2.691152"
     inkscape:cy="13.841849"
     inkscape:current-layer="svg3314"
     showgrid="true"
     inkscape:grid-bbox="true"
     inkscape:document-units="px"
     borderlayer="true"
     inkscape:window-width="1920"
     inkscape:window-height="1030"
     inkscape:window-x="0"
     inkscape:window-y="23"
     inkscape:window-maximized="1"
     showguides="true"
     inkscape:guide-bbox="true">
    <inkscape:grid
       type="xygrid"
       id="grid3045"
       empspacing="5"
       visible="true"
       enabled="true"
       snapvisiblegridlinesonly="true" />
    <sodipodi:guide
       orientation="0,1"
       position="0,20"
       id="guide3086" />
    <sodipodi:guide
       orientation="0,1"
       position="0,4"
       id="guide3088" />
    <sodipodi:guide
       orientation="0,1"
       position="0,12"
       id="guide4128" />
  </sodipodi:namedview>
  <metadata
     id="metadata3319">
    <rdf:RDF>
      <cc:Work
         rdf:about="">
        <dc:format>image/svg+xml</dc:format>
        <dc:type
           rdf:resource="http://purl.org/dc/dcmitype/StillImage" />
        <dc:title>Tilain</dc:title>
      </cc:Work>
    </rdf:RDF>
  </metadata>
  <g
     inkscape:groupmode="layer"
     id="layer2"
     inkscape:label="Ebene#1"
     style="display:inline">
    <g
       id="klipper">
      <path
         id="rect3885"
         d="M 0,0 24,0 24,24 0,24 z"
         style="opacity:0;fill:#000000;fill-opacity:1;stroke:none"
         inkscape:connector-curvature="0" />
      <path
         style="fill:#ffffff;fill-opacity:0;stroke:none"
         d="M 6 3 C 4.892 3 4 3.892 4 5 L 4 17 C 4 18.108 4.892 19 6 19 L 10 19 C 10 20.108 10.892 21 12 21 L 18 21 C 19.108 21 20 20.108 20 19 L 20 10 C 20 8.892 19.108 8 18 8 L 18 5 C 18 3.892 17.108 3 16 3 L 6 3 z M 6 4 L 16 4 C 16.552285 4 17 4.4477153 17 5 L 17 8 L 15 8 L 15 7 C 15 6.4477153 14.552285 6 14 6 L 8 6 C 7.4477153 6 7 6.4477153 7 7 L 7 15 C 7 15.552285 7.4477153 16 8 16 L 10 16 L 10 18 L 6 18 C 5.4477153 18 5 17.552285 5 17 L 5 5 C 5 4.4477153 5.4477153 4 6 4 z M 9 7 L 13 7 C 13.554 7 14 7.446 14 8 L 12 8 C 10.892 8 10 8.892 10 10 L 10 15 L 9 15 C 8.446 15 8 14.554 8 14 L 8 8 C 8 7.446 8.446 7 9 7 z M 12 9 L 18 9 C 18.554 9 19 9.446 19 10 L 19 19 C 19 19.554 18.554 20 18 20 L 12 20 C 11.446 20 11 19.554 11 19 L 11 10 C 11 9.446 11.446 9 12 9 z "
         id="path2996" />
      <path
         style="fill:#4d4d4d;fill-opacity:1;stroke:none"
         d="M 6 4 C 5.4477153 4 5 4.4477153 5 5 L 5 17 C 5 17.552285 5.4477153 18 6 18 L 10 18 L 10 16 L 8 16 C 7.4477153 16 7 15.552285 7 15 L 7 7 C 7 6.4477153 7.4477153 6 8 6 L 14 6 C 14.552285 6 15 6.4477153 15 7 L 15 8 L 17 8 L 17 5 C 17 4.4477153 16.552285 4 16 4 L 6 4 z M 12 9 C 11.446 9 11 9.446 11 10 L 11 19 C 11 19.554 11.446 20 12 20 L 18 20 C 18.554 20 19 19.554 19 19 L 19 10 C 19 9.446 18.554 9 18 9 L 12 9 z "
         id="rect2996" />
    </g>
  </g>
</svg>
