<?xml version="1.0" encoding="UTF-8" standalone="no"?>
<!-- Created with Inkscape (http://www.inkscape.org/) -->

<svg
   xmlns:dc="http://purl.org/dc/elements/1.1/"
   xmlns:cc="http://creativecommons.org/ns#"
   xmlns:rdf="http://www.w3.org/1999/02/22-rdf-syntax-ns#"
   xmlns:svg="http://www.w3.org/2000/svg"
   xmlns="http://www.w3.org/2000/svg"
   xmlns:sodipodi="http://sodipodi.sourceforge.net/DTD/sodipodi-0.dtd"
   xmlns:inkscape="http://www.inkscape.org/namespaces/inkscape"
   width="24"
   height="24"
   id="svg3314"
   version="1.1"
   inkscape:version="0.48.4 r9939"
   sodipodi:docname="kmail.svg">
  <title
     id="title2996">Tilain</title>
  <defs
     id="defs3316" />
  <sodipodi:namedview
     id="base"
     pagecolor="#b2b2b2"
     bordercolor="#000000"
     borderopacity="1"
     inkscape:pageopacity="1"
     inkscape:pageshadow="2"
     inkscape:zoom="7.3789455"
     inkscape:cx="11.747481"
     inkscape:cy="-2.4226766"
     inkscape:current-layer="svg3314"
     showgrid="true"
     inkscape:grid-bbox="true"
     inkscape:document-units="px"
     borderlayer="true"
     inkscape:window-width="1920"
     inkscape:window-height="1030"
     inkscape:window-x="0"
     inkscape:window-y="23"
     inkscape:window-maximized="1"
     showguides="true"
     inkscape:guide-bbox="true">
    <inkscape:grid
       type="xygrid"
       id="grid3045"
       empspacing="5"
       visible="true"
       enabled="true"
       snapvisiblegridlinesonly="true" />
    <sodipodi:guide
       orientation="0,1"
       position="5,20"
       id="guide3086" />
    <sodipodi:guide
       orientation="0,1"
       position="6,4"
       id="guide3088" />
    <sodipodi:guide
       orientation="0,1"
       position="0,12"
       id="guide4128" />
  </sodipodi:namedview>
  <metadata
     id="metadata3319">
    <rdf:RDF>
      <cc:Work
         rdf:about="">
        <dc:format>image/svg+xml</dc:format>
        <dc:type
           rdf:resource="http://purl.org/dc/dcmitype/StillImage" />
        <dc:title>Tilain</dc:title>
      </cc:Work>
    </rdf:RDF>
  </metadata>
  <g
     inkscape:groupmode="layer"
     id="layer2"
     inkscape:label="Ebene#1">
    <g
       id="kmail"
       transform="translate(0,-8)">
      <rect
         style="opacity:0;fill:#000000;fill-opacity:1;stroke:none"
         id="rect3986-3"
         y="8"
         x="0"
         height="24"
         width="24" />
      <path
         style="fill:#ffffff;fill-opacity:0;stroke:none"
         d="M 1,4 1,20 23,20 23,4 z M 22,5 22,19 2,19 2,5 z M 5,7 c 0,0 3.5425127,3.409753 5.65625,4.53125 C 11.011924,11.206054 11.480091,11 12,11 c 0.519909,0 0.988076,0.206054 1.34375,0.53125 C 15.457487,10.409753 19,7 19,7 z m 2.09375,1 9.8125,0 C 16.020317,8.7932751 14.77974,9.8320419 13.59375,10.46875 13.131428,10.177619 12.586705,10 12,10 11.413295,10 10.868572,10.177619 10.40625,10.46875 9.2202599,9.8320419 7.9796829,8.7932751 7.09375,8 z M 4,9 l 0,8 16,0 c 0,0 0,-5.329842 0,-8 0,0 -2.838409,3.538474 -6.125,4.65625 C 13.602332,14.436523 12.8733,15 12,15 11.1267,15 10.397668,14.436523 10.125,13.65625 6.8384088,12.538474 4,9 4,9 z m 1,2.09375 c 0.9674431,0.996733 2.5382703,2.419579 4.34375,3.25 C 9.8389807,15.319048 10.831284,16 12,16 13.168716,16 14.161019,15.319048 14.65625,14.34375 16.46173,13.513329 18.032557,12.090483 19,11.09375 19.035464,12.471949 19,16 19,16 L 5,16 z"
         transform="translate(0,8)"
         id="path3012"
         inkscape:connector-curvature="0"
         sodipodi:nodetypes="ccccccccccccsccccccscccccccsccccsccccc" />
      <path
         style="fill:#4d4d4d;fill-opacity:1;stroke:none"
         d="m 2,5 0,14 20,0 0,-14 z m 17,2 c 0,0 -3.542513,3.409753 -5.65625,4.53125 C 12.988076,11.206054 12.519909,11 12,11 11.480091,11 11.011924,11.206054 10.65625,11.53125 8.5425127,10.409753 5,7 5,7 z M 4,9 c 0,0 2.8384088,3.538474 6.125,4.65625 C 10.397668,14.436523 11.1267,15 12,15 12.8733,15 13.602332,14.436523 13.875,13.65625 17.161591,12.538474 20,9 20,9 l 0,8 -16,0 z"
         transform="translate(0,8)"
         id="rect3058"
         inkscape:connector-curvature="0"
         sodipodi:nodetypes="cccccccscccccsccccc" />
    </g>
  </g>
</svg>
