<?xml version="1.0" encoding="UTF-8" standalone="no"?>
<!-- Created with Inkscape (http://www.inkscape.org/) -->

<svg
   xmlns:dc="http://purl.org/dc/elements/1.1/"
   xmlns:cc="http://creativecommons.org/ns#"
   xmlns:rdf="http://www.w3.org/1999/02/22-rdf-syntax-ns#"
   xmlns:svg="http://www.w3.org/2000/svg"
   xmlns="http://www.w3.org/2000/svg"
   xmlns:sodipodi="http://sodipodi.sourceforge.net/DTD/sodipodi-0.dtd"
   xmlns:inkscape="http://www.inkscape.org/namespaces/inkscape"
   width="24"
   height="24"
   id="svg3314"
   version="1.1"
   inkscape:version="0.48.4 r9939"
   sodipodi:docname="korgac.svg">
  <title
     id="title2992">Tilain</title>
  <defs
     id="defs3316" />
  <sodipodi:namedview
     id="base"
     pagecolor="#b2b2b2"
     bordercolor="#000000"
     borderopacity="1"
     inkscape:pageopacity="1"
     inkscape:pageshadow="2"
     inkscape:zoom="29.515782"
     inkscape:cx="4.6413279"
     inkscape:cy="14.426905"
     inkscape:current-layer="svg3314"
     showgrid="true"
     inkscape:grid-bbox="true"
     inkscape:document-units="px"
     borderlayer="true"
     inkscape:window-width="1920"
     inkscape:window-height="1030"
     inkscape:window-x="0"
     inkscape:window-y="23"
     inkscape:window-maximized="1"
     showguides="true"
     inkscape:guide-bbox="true">
    <inkscape:grid
       type="xygrid"
       id="grid3045"
       empspacing="5"
       visible="true"
       enabled="true"
       snapvisiblegridlinesonly="true" />
    <sodipodi:guide
       orientation="0,1"
       position="24,20"
       id="guide3086" />
    <sodipodi:guide
       orientation="0,1"
       position="24,4"
       id="guide3088" />
    <sodipodi:guide
       orientation="0,1"
       position="0,12"
       id="guide4128" />
  </sodipodi:namedview>
  <metadata
     id="metadata3319">
    <rdf:RDF>
      <cc:Work
         rdf:about="">
        <dc:format>image/svg+xml</dc:format>
        <dc:type
           rdf:resource="http://purl.org/dc/dcmitype/StillImage" />
        <dc:title>Tilain</dc:title>
      </cc:Work>
    </rdf:RDF>
  </metadata>
  <g
     inkscape:groupmode="layer"
     id="layer2"
     inkscape:label="Ebene#1">
    <g
       id="korgac">
      <path
         style="fill:#ffffff;fill-opacity:0;stroke:none"
         d="M 12 3 C 11.158612 3 10.452508 3.517272 10.15625 4.25 C 7.1826046 5.0577488 5 7.7705855 5 11 L 5 15 L 3 17 L 4 18 L 9 18 C 9 19.656854 10.343146 21 12 21 C 13.656854 21 15 19.656854 15 18 L 20 18 L 21 17 L 19 15 L 19 11 C 19 7.7705855 16.817395 5.0577488 13.84375 4.25 C 13.547492 3.517272 12.841387 3 12 3 z M 12 4 C 12.554 4 13 4.446 13 5 L 13 5.09375 C 15.847169 5.5651303 18 8.0151378 18 11 L 18 15 L 20 17 L 4 17 L 6 15 L 6 11 C 6 8.0151378 8.1528308 5.5651303 11 5.09375 L 11 5 C 11 4.446 11.446 4 12 4 z M 12 7 C 9.790861 7 8 8.790861 8 11 L 8 15 L 16 15 L 16 11 C 16 8.790861 14.209139 7 12 7 z M 12 8 C 13.656854 8 15 9.3431458 15 11 L 15 14 L 12 14 L 9 14 L 9 11 C 9 9.3431458 10.343146 8 12 8 z M 10 18 L 14 18 C 14 19.108 13.108 20 12 20 C 10.892 20 10 19.108 10 18 z "
         id="path3780" />
      <rect
         style="opacity:0;fill:#000000;fill-opacity:1;stroke:none"
         id="rect3109"
         width="24"
         height="24"
         x="0"
         y="1.8616737e-16"
         rx="0"
         ry="0" />
      <path
         style="fill:#4d4d4d;fill-opacity:1;stroke:none"
         d="M 12 4 C 11.446 4 11 4.446 11 5 L 11 5.09375 C 8.1528308 5.5651303 6 8.0151378 6 11 L 6 15 L 4 17 L 20 17 L 18 15 L 18 11 C 18 8.0151378 15.847169 5.5651303 13 5.09375 L 13 5 C 13 4.446 12.554 4 12 4 z M 12 7 C 14.209139 7 16 8.790861 16 11 L 16 15 L 8 15 L 8 11 C 8 8.790861 9.790861 7 12 7 z M 10 18 C 10 19.108 10.892 20 12 20 C 13.108 20 14 19.108 14 18 L 10 18 z "
         id="rect2996" />
    </g>
  </g>
</svg>
