<?xml version="1.0" encoding="UTF-8" standalone="no"?>
<!-- Created with Inkscape (http://www.inkscape.org/) -->

<svg
   xmlns:dc="http://purl.org/dc/elements/1.1/"
   xmlns:cc="http://creativecommons.org/ns#"
   xmlns:rdf="http://www.w3.org/1999/02/22-rdf-syntax-ns#"
   xmlns:svg="http://www.w3.org/2000/svg"
   xmlns="http://www.w3.org/2000/svg"
   xmlns:sodipodi="http://sodipodi.sourceforge.net/DTD/sodipodi-0.dtd"
   xmlns:inkscape="http://www.inkscape.org/namespaces/inkscape"
   width="24"
   height="24"
   id="svg3314"
   version="1.1"
   inkscape:version="0.48.4 r9939"
   sodipodi:docname="ktorrent.svg">
  <title
     id="title2996">Tilain</title>
  <defs
     id="defs3316" />
  <sodipodi:namedview
     id="base"
     pagecolor="#b2b2b2"
     bordercolor="#000000"
     borderopacity="1"
     inkscape:pageopacity="1"
     inkscape:pageshadow="2"
     inkscape:zoom="29.219134"
     inkscape:cx="5.082001"
     inkscape:cy="12.459439"
     inkscape:current-layer="svg3314"
     showgrid="true"
     inkscape:grid-bbox="true"
     inkscape:document-units="px"
     borderlayer="true"
     inkscape:window-width="1920"
     inkscape:window-height="1030"
     inkscape:window-x="0"
     inkscape:window-y="23"
     inkscape:window-maximized="1"
     showguides="true"
     inkscape:guide-bbox="true">
    <inkscape:grid
       type="xygrid"
       id="grid3045"
       empspacing="5"
       visible="true"
       enabled="true"
       snapvisiblegridlinesonly="true" />
    <sodipodi:guide
       orientation="0,1"
       position="24,20"
       id="guide3086" />
    <sodipodi:guide
       orientation="0,1"
       position="24,4"
       id="guide3088" />
    <sodipodi:guide
       orientation="0,1"
       position="0,12"
       id="guide4128" />
  </sodipodi:namedview>
  <metadata
     id="metadata3319">
    <rdf:RDF>
      <cc:Work
         rdf:about="">
        <dc:format>image/svg+xml</dc:format>
        <dc:type
           rdf:resource="http://purl.org/dc/dcmitype/StillImage" />
        <dc:title>Tilain</dc:title>
      </cc:Work>
    </rdf:RDF>
  </metadata>
  <g
     inkscape:groupmode="layer"
     id="layer2"
     inkscape:label="Ebene#1">
    <g
       id="ktorrent"
       inkscape:label="#ktorrent">
      <rect
         y="0"
         x="0"
         height="24"
         width="24"
         id="rect3867"
         style="opacity:0;fill:#000000;fill-opacity:1;stroke:none" />
      <path
         style="fill:#ffffff;fill-opacity:0;stroke:none"
         d="M 10 3 L 1 12 L 1 14.5 C 1 15.880712 2.1192881 17 3.5 17 L 13 17 L 13 20 L 14 21 L 23 12 L 23 9.5 C 23 8.1192881 21.880712 7 20.5 7 L 11 7 L 11 4 L 10 3 z M 10 4 L 10 8 L 20.5 8 C 21.328427 8 22 8.6715729 22 9.5 C 22 10.328427 21.328427 11 20.5 11 L 3 11 L 10 4 z M 3.5 13 L 21 13 L 14 20 L 14 16 L 3.5 16 C 2.6715729 16 2 15.328427 2 14.5 C 2 13.671573 2.6715729 13 3.5 13 z "
         id="path3012" />
      <path
         style="fill:#4d4d4d;fill-opacity:1;stroke:none"
         d="M 10 4 L 3 11 L 20.5 11 C 21.328427 11 22 10.328427 22 9.5 C 22 8.6715729 21.328427 8 20.5 8 L 10 8 L 10 4 z M 3.5 13 C 2.6715729 13 2 13.671573 2 14.5 C 2 15.328427 2.6715729 16 3.5 16 L 14 16 L 14 20 L 21 13 L 3.5 13 z "
         id="path3877" />
    </g>
  </g>
</svg>
