<?xml version="1.0" encoding="UTF-8" standalone="no"?>
<!-- Created with Inkscape (http://www.inkscape.org/) -->

<svg
   xmlns:dc="http://purl.org/dc/elements/1.1/"
   xmlns:cc="http://creativecommons.org/ns#"
   xmlns:rdf="http://www.w3.org/1999/02/22-rdf-syntax-ns#"
   xmlns:svg="http://www.w3.org/2000/svg"
   xmlns="http://www.w3.org/2000/svg"
   xmlns:sodipodi="http://sodipodi.sourceforge.net/DTD/sodipodi-0.dtd"
   xmlns:inkscape="http://www.inkscape.org/namespaces/inkscape"
   width="24"
   height="24"
   id="svg3314"
   version="1.1"
   inkscape:version="0.48.4 r9939"
   sodipodi:docname="preferences.svg">
  <title
     id="title3011">Tilain</title>
  <defs
     id="defs3316" />
  <sodipodi:namedview
     id="base"
     pagecolor="#b2b2b2"
     bordercolor="#000000"
     borderopacity="1"
     inkscape:pageopacity="1"
     inkscape:pageshadow="2"
     inkscape:zoom="7.3047829"
     inkscape:cx="3.6687159"
     inkscape:cy="35.172694"
     inkscape:current-layer="layer2"
     showgrid="true"
     inkscape:grid-bbox="true"
     inkscape:document-units="px"
     borderlayer="true"
     inkscape:window-width="1920"
     inkscape:window-height="1030"
     inkscape:window-x="0"
     inkscape:window-y="23"
     inkscape:window-maximized="1"
     showguides="true"
     inkscape:guide-bbox="true">
    <inkscape:grid
       type="xygrid"
       id="grid3045"
       empspacing="5"
       visible="true"
       enabled="true"
       snapvisiblegridlinesonly="true" />
    <sodipodi:guide
       orientation="0,1"
       position="24,20"
       id="guide3086" />
    <sodipodi:guide
       orientation="0,1"
       position="24,4"
       id="guide3088" />
    <sodipodi:guide
       orientation="0,1"
       position="0,12"
       id="guide4128" />
  </sodipodi:namedview>
  <metadata
     id="metadata3319">
    <rdf:RDF>
      <cc:Work
         rdf:about="">
        <dc:format>image/svg+xml</dc:format>
        <dc:type
           rdf:resource="http://purl.org/dc/dcmitype/StillImage" />
        <dc:title>Tilain</dc:title>
      </cc:Work>
    </rdf:RDF>
  </metadata>
  <g
     inkscape:groupmode="layer"
     id="layer2"
     inkscape:label="Ebene#1">
    <g
       id="preferences-desktop-text-to-speech"
       transform="translate(0,-48)">
      <rect
         style="opacity:0;fill:#000000;fill-opacity:1;stroke:none"
         id="rect4569"
         width="24"
         height="24"
         x="0"
         y="0" />
      <path
         style="fill:#ffffff;fill-opacity:0.2;stroke:none"
         d="M 5 -45 C 3.338 -45 2 -43.662 2 -42 L 2 -33 C 2 -31.338 3.338 -30 5 -30 L 8 -27 L 11 -30 L 19 -30 C 20.662 -30 22 -31.338 22 -33 L 22 -42 C 22 -43.662 20.662 -45 19 -45 L 5 -45 z M 5 -44 L 19 -44 C 20.108 -44 21 -43.108 21 -42 L 21 -33 C 21 -31.892 20.108 -31 19 -31 L 15 -31 L 11 -31 L 8 -28 L 5 -31 C 3.892 -31 3 -31.892 3 -33 L 3 -42 C 3 -43.108 3.892 -44 5 -44 z M 6 -42 C 5.446 -42 5 -41.554 5 -41 L 5 -34 C 5 -33.446 5.446 -33 6 -33 L 8 -31 L 10 -33 L 15 -33 L 18 -33 C 18.554 -33 19 -33.446 19 -34 L 19 -41 C 19 -41.554 18.554 -42 18 -42 L 6 -42 z M 6 -41 L 9 -41 L 9 -40 L 6 -40 L 6 -41 z M 12 -41 L 17 -41 L 17 -40 L 12 -40 L 12 -41 z M 6 -38 L 14 -38 L 14 -37 L 6 -37 L 6 -38 z M 16 -38 L 18 -38 L 18 -37 L 16 -37 L 16 -38 z M 6 -35 L 10 -35 L 10 -34 L 6 -34 L 6 -35 z M 12 -35 L 14 -35 L 14 -34 L 12 -34 L 12 -35 z M 15 -35 L 18 -35 L 18 -34 L 15 -34 L 15 -35 z "
         transform="translate(0,48)"
         id="path3893" />
      <path
         style="fill:#4d4d4d;fill-opacity:1;stroke:none"
         d="m 5,-44 c -1.108,0 -2,0.892 -2,2 l 0,9 c 0,1.108 0.892,2 2,2 l 3,3 3,-3 4,0 4,0 c 1.108,0 2,-0.892 2,-2 l 0,-9 c 0,-1.108 -0.892,-2 -2,-2 z m 1,2 12,0 c 0.554,0 1,0.446 1,1 l 0,7 c 0,0.554 -0.446,1 -1,1 l -3,0 -5,0 -2,2 -2,-2 c -0.554,0 -1,-0.446 -1,-1 l 0,-7 c 0,-0.554 0.446,-1 1,-1 z m 0,1 0,1 3,0 0,-1 z m 6,0 0,1 5,0 0,-1 z m -6,3 0,1 8,0 0,-1 z m 10,0 0,1 2,0 0,-1 z m -10,3 0,1 4,0 0,-1 z m 6,0 0,1 2,0 0,-1 z m 3,0 0,1 3,0 0,-1 z"
         transform="translate(0,48)"
         id="rect4544"
         inkscape:connector-curvature="0"
         sodipodi:nodetypes="sssccccssssssssssccccsssccccccccccccccccccccccccccccccccccc" />
    </g>
    <g
       id="preferences-desktop-display-randr"
       transform="translate(0,-72)">
      <rect
         style="opacity:0;fill:#000000;fill-opacity:1;stroke:none"
         id="rect4614"
         width="24"
         height="24"
         x="0"
         y="0" />
      <path
         style="fill:#ffffff;fill-opacity:0.2;stroke:none"
         d="M 5 -69 C 3.338 -69 2 -67.662 2 -66 L 2 -57 C 2 -55.338 3.338 -54 5 -54 L 5 -53 C 5 -51.895431 5.8954305 -51 7 -51 L 17 -51 C 18.104569 -51 19 -51.895431 19 -53 L 19 -54 C 20.662 -54 22 -55.338 22 -57 L 22 -66 C 22 -67.662 20.662 -69 19 -69 L 5 -69 z M 5 -68 L 19 -68 C 20.108 -68 21 -67.108 21 -66 L 21 -57 C 21 -55.892 20.108 -55 19 -55 L 14 -55 L 14 -54 L 17 -54 C 17.552285 -54 18 -53.552285 18 -53 C 18 -52.447715 17.552285 -52 17 -52 L 7 -52 C 6.4477153 -52 6 -52.447715 6 -53 C 6 -53.552285 6.4477153 -54 7 -54 L 10 -54 L 10 -55 L 5 -55 C 3.892 -55 3 -55.892 3 -57 L 3 -66 C 3 -67.108 3.892 -68 5 -68 z M 5 -66 L 5 -57 L 19 -57 L 19 -66 L 5 -66 z M 6 -65 L 10 -65 L 6 -61 L 6 -65 z M 11 -65 L 18 -65 L 18 -63 L 13 -58 L 6 -58 L 6 -60 L 11 -65 z M 18 -62 L 18 -58 L 14 -58 L 18 -62 z "
         transform="translate(0,72)"
         id="path3891" />
      <path
         style="fill:#4d4d4d;fill-opacity:1;stroke:none"
         d="M 5 -68 C 3.892 -68 3 -67.108 3 -66 L 3 -57 C 3 -55.892 3.892 -55 5 -55 L 10 -55 L 10 -54 L 7 -54 C 6.4477153 -54 6 -53.552285 6 -53 C 6 -52.447715 6.4477153 -52 7 -52 L 17 -52 C 17.552285 -52 18 -52.447715 18 -53 C 18 -53.552285 17.552285 -54 17 -54 L 14 -54 L 14 -55 L 19 -55 C 20.108 -55 21 -55.892 21 -57 L 21 -66 C 21 -67.108 20.108 -68 19 -68 L 5 -68 z M 5 -66 L 19 -66 L 19 -57 L 5 -57 L 5 -66 z M 6 -65 L 6 -61 L 10 -65 L 6 -65 z M 18 -62 L 14 -58 L 18 -58 L 18 -62 z "
         transform="translate(0,72)"
         id="rect3852" />
    </g>
    <g
       id="preferences-system-bluetooth"
       transform="translate(-24,-24)"
       style="opacity:1">
      <rect
         style="opacity:0;fill:#ffffff;fill-opacity:1;stroke:none"
         id="rect4498"
         width="24"
         height="24"
         x="0"
         y="0" />
      <path
         sodipodi:nodetypes="cccccccccccccccccccccccccccccccccccccccccc"
         inkscape:connector-curvature="0"
         id="path3865"
         d="m 10,4 0,5 -3,-3 -1,1 0,2 3,3 -3,3 0,2 1,1 3,-3 0,5 1,1 1,0 5,-5 -4,-4 4,-4 -5,-5 -1,0 z m 1,0 1,0 4,4 -4,4 4,4 -4,4 -1,0 0,-7 -4,4 0,-2 3,-3 -3,-3 0,-2 4,4 z m 1,2 0,4 2,-2 z m 0,8 0,4 2,-2 z"
         style="fill:#ffffff;fill-opacity:0.2;stroke:none" />
      <path
         sodipodi:nodetypes="ccccccccccccccccccccccc"
         inkscape:connector-curvature="0"
         id="rect3847"
         d="m 11,4 0,7 -4,-4 0,2 3,3 -3,3 0,2 4,-4 0,7 1,0 4,-4 -4,-4 4,-4 -4,-4 z m 1,2 2,2 -2,2 z m 0,8 2,2 -2,2 z"
         style="fill:#4d4d4d;fill-opacity:1;stroke:none" />
    </g>
    <g
       id="preferences-system-bluetooth-inactive"
       style="opacity:1"
       transform="translate(0,-24)">
      <rect
         y="0"
         x="0"
         height="24"
         width="24"
         id="rect3881"
         style="opacity:0;fill:#ffffff;fill-opacity:1;stroke:none" />
      <path
         inkscape:connector-curvature="0"
         id="path3885"
         d="m 11,3 -1,1 0,5 -3,-3 -1,1 0,2 3,3 -3,3 0,2 1,1 3,-3 0,5 1,1 1,0 5,-5 -4,-4 4,-4 -5,-5 -1,0 z m 0,1 1,0 4,4 -4,4 4,4 -4,4 -1,0 0,-7 -4,4 0,-2 3,-3 -3,-3 0,-2 4,4 0,-7 z m 1,2 0,4 2,-2 -2,-2 z m 0,8 0,4 2,-2 -2,-2 z"
         style="fill:#ffffff;fill-opacity:0.2;stroke:none" />
      <path
         style="opacity:0.2;fill:#4d4d4d;fill-opacity:1;stroke:none"
         d="m 11,4 0,7 -4,-4 0,2 3,3 -3,3 0,2 4,-4 0,7 1,0 4,-4 -4,-4 4,-4 -4,-4 z m 1,2 2,2 -2,2 z m 0,8 2,2 -2,2 z"
         id="path3887"
         inkscape:connector-curvature="0"
         sodipodi:nodetypes="ccccccccccccccccccccccc" />
    </g>
    <g
       id="preferences-desktop-notification">
      <rect
         y="0"
         x="0"
         height="24"
         width="24"
         id="rect3034"
         style="opacity:0;fill:#000000;fill-opacity:1;stroke:none" />
      <path
         style="opacity:0.2;fill:#ffffff;fill-opacity:1;stroke:none"
         d="M 12 3 C 7.0294373 3 3 7.0294373 3 12 C 3 16.970563 7.0294373 21 12 21 C 13.440742 21 14.796495 20.668954 16 20.0625 L 16 21 C 16 22.104569 16.895431 23 18 23 C 19.104569 23 20 22.104569 20 21 L 20 20 C 20 20 22 14 22 11 C 22 11 22.002922 9.2754022 20.28125 8.4375 C 18.905242 5.2323423 15.708723 3 12 3 z M 12 4 C 14.98777 4 17.59496 5.635644 18.96875 8.0625 C 18.674147 8.0194973 18.35473 8 18 8 C 17.727707 8 17.48269 8.0041967 17.25 8.03125 C 17.004062 8.0571955 16.804003 8.1065451 16.59375 8.15625 C 15.493119 6.84227 13.848123 6 12 6 C 8.6862915 6 6 8.6862915 6 12 C 6 15.313708 8.6862915 18 12 18 C 11.447715 18 11 17.552285 11 17 C 11 16.447715 11.447715 16 12 16 C 12.552285 16 13 16.447715 13 17 C 13 17.552285 12.552285 18 12 18 C 13.150239 18 14.212064 17.654978 15.125 17.09375 C 15.285158 17.672883 15.429061 18.0966 15.5625 18.53125 C 15.60362 18.667765 15.650719 18.880461 15.6875 19 C 15.695197 19.02479 15.711303 19.069773 15.71875 19.09375 C 14.608901 19.676521 13.340546 20 12 20 C 7.581722 20 4 16.418278 4 12 C 4 7.581722 7.581722 4 12 4 z M 10 7 L 14 7 L 14 10 L 13 14 L 13 15 L 11 15 L 11 14 L 10 10 L 10 7 z M 9 8.03125 L 9 10 L 10 14 L 10 16.5625 C 8.2404781 15.788228 7 14.045693 7 12 C 7 10.375966 7.8004547 8.9445926 9 8.03125 z M 15 8.03125 C 15.203748 8.1863849 15.3842 8.3497631 15.5625 8.53125 C 15.352575 8.6477612 15.157089 8.7687024 15 8.90625 L 15 8.03125 z M 18 9 C 21 9 21 11 21 11 C 21 14 19 19 19 19 L 17 19 C 17 19 15 14 15 11 C 15 11 15 9 18 9 z M 14.21875 13.09375 C 14.379997 14.066335 14.592555 15.080386 14.84375 16.0625 C 14.576774 16.24955 14.301418 16.429862 14 16.5625 L 14 14 L 14.21875 13.09375 z M 18 20 C 18.552285 20 19 20.447715 19 21 C 19 21.552285 18.552285 22 18 22 C 17.447715 22 17 21.552285 17 21 C 17 20.447715 17.447715 20 18 20 z "
         id="path3017" />
      <path
         style="fill:#4d4d4d;fill-opacity:1;stroke:none"
         d="m 12,4 c -4.418278,0 -8,3.581722 -8,8 0,4.418278 3.581722,8 8,8 1.340546,0 2.608901,-0.323479 3.71875,-0.90625 -0.157314,-0.506478 -0.371375,-1.195889 -0.59375,-2 C 14.212064,17.654978 13.150239,18 12,18 8.6862915,18 6,15.313708 6,12 6,8.6862915 8.6862915,6 12,6 13.848123,6 15.493119,6.84227 16.59375,8.15625 17.000143,8.0601763 17.455414,8 18,8 18.35473,8 18.674147,8.0194973 18.96875,8.0625 17.59496,5.635644 14.98777,4 12,4 z m 0,14 c 0.552285,0 1,-0.447715 1,-1 0,-0.552285 -0.447715,-1 -1,-1 -0.552285,0 -1,0.447715 -1,1 0,0.552285 0.447715,1 1,1 z m -2,-11 0,3 1,4 0,1 2,0 0,-1 1,-4 0,-3 -4,0 z"
         id="path3012"
         inkscape:connector-curvature="0" />
      <path
         id="path7972"
         d="m 15,11 c 0,3 2,8 2,8 l 2,0 c 0,0 2,-5 2,-8 0,0 0,-2 -3,-2 -3,0 -3,2 -3,2 z m 3,9 c -0.552285,0 -1,0.447715 -1,1 0,0.552285 0.447715,1 1,1 0.552285,0 1,-0.447715 1,-1 0,-0.552285 -0.447715,-1 -1,-1 z"
         style="fill:#db4439;fill-opacity:1;stroke:none"
         inkscape:connector-curvature="0"
         sodipodi:nodetypes="cccczcsssss" />
    </g>
  </g>
</svg>
