<?xml version="1.0" encoding="UTF-8" standalone="no"?>
<!-- Created with Inkscape (http://www.inkscape.org/) -->

<svg
   xmlns:dc="http://purl.org/dc/elements/1.1/"
   xmlns:cc="http://creativecommons.org/ns#"
   xmlns:rdf="http://www.w3.org/1999/02/22-rdf-syntax-ns#"
   xmlns:svg="http://www.w3.org/2000/svg"
   xmlns="http://www.w3.org/2000/svg"
   xmlns:sodipodi="http://sodipodi.sourceforge.net/DTD/sodipodi-0.dtd"
   xmlns:inkscape="http://www.inkscape.org/namespaces/inkscape"
   width="24"
   height="24"
   id="svg3314"
   version="1.1"
   inkscape:version="0.48.4 r9939"
   sodipodi:docname="printer.svg">
  <title
     id="title2991">Tilain</title>
  <defs
     id="defs3316" />
  <sodipodi:namedview
     id="base"
     pagecolor="#b2b2b2"
     bordercolor="#000000"
     borderopacity="1"
     inkscape:pageopacity="1"
     inkscape:pageshadow="2"
     inkscape:zoom="32"
     inkscape:cx="17.695006"
     inkscape:cy="13.611564"
     inkscape:current-layer="svg3314"
     showgrid="true"
     inkscape:grid-bbox="true"
     inkscape:document-units="px"
     borderlayer="true"
     inkscape:window-width="1920"
     inkscape:window-height="1030"
     inkscape:window-x="0"
     inkscape:window-y="23"
     inkscape:window-maximized="1"
     showguides="true"
     inkscape:guide-bbox="true">
    <inkscape:grid
       type="xygrid"
       id="grid3045"
       empspacing="5"
       visible="true"
       enabled="true"
       snapvisiblegridlinesonly="true" />
    <sodipodi:guide
       orientation="0,1"
       position="4,20"
       id="guide3086" />
    <sodipodi:guide
       orientation="0,1"
       position="0,12"
       id="guide4128" />
    <sodipodi:guide
       orientation="0,1"
       position="6,4"
       id="guide3018" />
  </sodipodi:namedview>
  <metadata
     id="metadata3319">
    <rdf:RDF>
      <cc:Work
         rdf:about="">
        <dc:format>image/svg+xml</dc:format>
        <dc:type
           rdf:resource="http://purl.org/dc/dcmitype/StillImage" />
        <dc:title>Tilain</dc:title>
      </cc:Work>
    </rdf:RDF>
  </metadata>
  <g
     inkscape:groupmode="layer"
     id="layer2"
     inkscape:label="Ebene#1">
    <g
       id="printer">
      <rect
         style="opacity:0;fill:#000000;fill-opacity:1;stroke:none"
         id="rect3883"
         width="24"
         height="24"
         x="0"
         y="-9.2387199e-07" />
      <path
         style="fill:#ffffff;fill-opacity:0;stroke:none"
         d="M 6 3 L 6 8 C 4 8 2 9 2 12 L 2 17 L 5 17 L 5 19 C 5 20.108 5.892 21 7 21 L 17 21 C 18.108 21 19 20.108 19 19 L 19 17 L 22 17 L 22 12 C 22 9 20 8 18 8 L 18 3 L 6 3 z M 7 4 L 17 4 L 17 8 L 7 8 L 7 4 z M 6 9 L 18 9 C 20 9 21 10 21 12 L 21 16 L 18 16 L 18 19 C 18 19.554 17.554 20 17 20 L 7 20 C 6.446 20 6 19.554 6 19 L 6 17 L 6 16 L 3 16 L 3 12 C 3 10 4 9 6 9 z M 4 11 L 4 12 L 7 12 L 7 11 L 4 11 z M 8 14 L 8 18 L 16 18 L 16 14 L 8 14 z M 9 15 L 15 15 L 15 17 L 9 17 L 9 15 z "
         id="path3007" />
      <path
         style="fill:#4d4d4d;fill-opacity:1;stroke:none"
         d="M 7,4 7,8 17,8 17,4 z M 6,9 C 4,9 3,10 3,12 l 0,4 3,0 0,1 0,2 c 0,0.554 0.446,1 1,1 l 10,0 c 0.554,0 1,-0.446 1,-1 l 0,-3 3,0 0,-4 C 21,10 20,9 18,9 z m -2,2 3,0 0,1 -3,0 z m 4,3 8,0 0,4 -8,0 z"
         id="rect3851"
         inkscape:connector-curvature="0"
         sodipodi:nodetypes="cccccsscccssssccssscccccccccc" />
    </g>
  </g>
</svg>
