<?xml version="1.0" encoding="UTF-8" standalone="no"?>
<!-- Created with Inkscape (http://www.inkscape.org/) -->

<svg
   xmlns:dc="http://purl.org/dc/elements/1.1/"
   xmlns:cc="http://creativecommons.org/ns#"
   xmlns:rdf="http://www.w3.org/1999/02/22-rdf-syntax-ns#"
   xmlns:svg="http://www.w3.org/2000/svg"
   xmlns="http://www.w3.org/2000/svg"
   xmlns:sodipodi="http://sodipodi.sourceforge.net/DTD/sodipodi-0.dtd"
   xmlns:inkscape="http://www.inkscape.org/namespaces/inkscape"
   width="24"
   height="24"
   id="svg3314"
   version="1.1"
   inkscape:version="0.48.4 r9939"
   sodipodi:docname="wallet.svg">
  <title
     id="title3001">Tilain</title>
  <defs
     id="defs3316" />
  <sodipodi:namedview
     id="base"
     pagecolor="#b2b2b2"
     bordercolor="#000000"
     borderopacity="1"
     inkscape:pageopacity="1"
     inkscape:pageshadow="2"
     inkscape:zoom="32"
     inkscape:cx="10.084178"
     inkscape:cy="15.911489"
     inkscape:current-layer="svg3314"
     showgrid="true"
     inkscape:grid-bbox="true"
     inkscape:document-units="px"
     borderlayer="true"
     inkscape:window-width="1920"
     inkscape:window-height="1030"
     inkscape:window-x="0"
     inkscape:window-y="23"
     inkscape:window-maximized="1"
     showguides="true"
     inkscape:guide-bbox="true">
    <inkscape:grid
       type="xygrid"
       id="grid3045"
       empspacing="5"
       visible="true"
       enabled="true"
       snapvisiblegridlinesonly="true" />
    <sodipodi:guide
       orientation="0,1"
       position="24,20"
       id="guide3086" />
    <sodipodi:guide
       orientation="0,1"
       position="24,4"
       id="guide3088" />
    <sodipodi:guide
       orientation="0,1"
       position="0,12"
       id="guide4128" />
  </sodipodi:namedview>
  <metadata
     id="metadata3319">
    <rdf:RDF>
      <cc:Work
         rdf:about="">
        <dc:format>image/svg+xml</dc:format>
        <dc:type
           rdf:resource="http://purl.org/dc/dcmitype/StillImage" />
        <dc:title>Tilain</dc:title>
      </cc:Work>
    </rdf:RDF>
  </metadata>
  <g
     transform="translate(0,-48)"
     id="wallet-closed">
    <rect
       style="opacity:0;fill:#000000;fill-opacity:1;stroke:none"
       id="rect3801"
       width="24"
       height="24"
       x="0"
       y="0"
       transform="translate(0,8)"
       rx="0"
       ry="0" />
    <path
       style="fill:#ffffff;fill-opacity:0;stroke:none"
       d="M 5,3 C 3.338,3 2,4.338 2,6 l 0,8 c 0,1.662 1.338,3 3,3 l 14,0 c 1.662,0 3,-1.338 3,-3 L 22,6 C 22,4.338 20.662,3 19,3 L 5,3 z"
       transform="translate(0,8)"
       id="path3795"
       inkscape:connector-curvature="0" />
    <path
       style="fill:#4d4d4d;fill-opacity:1;stroke:none"
       d="M 5,4 C 3.892,4 3,4.892 3,6 l 0,8 c 0,1.108 0.892,2 2,2 l 14,0 c 1.108,0 2,-0.892 2,-2 L 21,6 C 21,4.892 20.108,4 19,4 L 5,4 z m 11,2 3,0 c 0.552285,0 1,0.4477153 1,1 0,0.5522847 -0.447715,1 -1,1 l -2,0 c -0.554,0 -1,0.446 -1,1 l 0,2 c 0,0.554 0.446,1 1,1 l 2,0 c 0.552285,0 1,0.447715 1,1 0,0.552285 -0.447715,1 -1,1 l -3,0 c -1.108,0 -2,-0.892 -2,-2 l 0,-4 c 0,-1.108 0.892,-2 2,-2 z"
       transform="translate(0,8)"
       id="path3803"
       inkscape:connector-curvature="0" />
  </g>
  <g
     id="wallet-open"
     transform="translate(0,-8)">
    <rect
       ry="0"
       rx="0"
       transform="translate(0,8)"
       y="0"
       x="0"
       height="24"
       width="24"
       id="rect3016"
       style="opacity:0;fill:#000000;fill-opacity:1;stroke:none" />
    <path
       style="fill:#ffffff;fill-opacity:0;stroke:none"
       d="M 5,3 C 3.338,3 2,4.338 2,6 l 0,8 c 0,0.20775 0.019031,0.415244 0.0625,0.59375 C 2.3413242,15.963262 3.5457501,17 5,17 l 9,4 c 1.518754,0.675002 3,-1.338 3,-3 l 0,-1 2,0 c 1.662,0 3,-1.338 3,-3 L 22,6 C 22,4.338 20.662,3 19,3 L 5,3 z m 0,1 14,0 c 1.108,0 2,0.892 2,2 l 0,8 c 0,1.108 -0.892,2 -2,2 l -3,0 0,2 c 0,1.108 -0.987497,2.450001 -2,2 L 5,16 c -0.8517751,0 -1.5543926,-0.534064 -1.84375,-1.28125 -0.049847,-0.09394 -0.096357,-0.204386 -0.125,-0.3125 -0.00203,-0.01 0.00188,-0.02122 0,-0.03125 C 3.0022706,14.255996 3,14.1385 3,14 L 3,6 C 3,4.892 3.892,4 5,4 z M 9.5,6 14,8 c 1.012503,0.4500014 2,0.892 2,2 l 0,4 2,0 c 0.554,0 1,-0.446 1,-1 L 19,7 C 19,6.446 18.554,6 18,6 L 9.5,6 z m 4.5,1 3,0 c 0.554,0 1,0.446 1,1 l 0,4 c 0,0.554 -0.446,1 -1,1 l 0,-3 C 17,8.338 15.518755,7.675002 14,7 z"
       transform="translate(0,8)"
       id="path3022"
       inkscape:connector-curvature="0" />
    <path
       style="fill:#4d4d4d;fill-opacity:1;stroke:none"
       d="M 5,4 C 3.892,4 3,4.892 3,6 l 0,8 c 0,0.1385 0.00227,0.255996 0.03125,0.375 0.00188,0.01003 -0.00203,0.02128 0,0.03125 0.028643,0.108114 0.075153,0.21856 0.125,0.3125 C 3.4456074,15.465936 4.1482249,16 5,16 l 9,4 c 1.012503,0.450001 2,-0.892 2,-2 l 0,-2 3,0 c 1.108,0 2,-0.892 2,-2 L 21,6 C 21,4.892 20.108,4 19,4 L 5,4 z M 9.5,6 18,6 c 0.554,0 1,0.446 1,1 l 0,6 c 0,0.554 -0.446,1 -1,1 l -2,0 0,-4 C 16,8.892 15.012503,8.4500014 14,8 L 9.5,6 z"
       transform="translate(0,8)"
       id="path3020"
       inkscape:connector-curvature="0" />
  </g>
</svg>
