<?xml version="1.0" encoding="UTF-8" standalone="no"?>
<!-- Created with Inkscape (http://www.inkscape.org/) -->

<svg
   xmlns:dc="http://purl.org/dc/elements/1.1/"
   xmlns:cc="http://creativecommons.org/ns#"
   xmlns:rdf="http://www.w3.org/1999/02/22-rdf-syntax-ns#"
   xmlns:svg="http://www.w3.org/2000/svg"
   xmlns="http://www.w3.org/2000/svg"
   xmlns:xlink="http://www.w3.org/1999/xlink"
   xmlns:sodipodi="http://sodipodi.sourceforge.net/DTD/sodipodi-0.dtd"
   xmlns:inkscape="http://www.inkscape.org/namespaces/inkscape"
   width="100"
   height="80"
   id="svg2"
   version="1.1"
   inkscape:version="0.48.4 r9939"
   sodipodi:docname="action-overlays.svg">
  <title
     id="title3063">Tilain</title>
  <defs
     id="defs4">
    <radialGradient
       inkscape:collect="always"
       xlink:href="#linearGradient3837"
       id="radialGradient3957"
       gradientUnits="userSpaceOnUse"
       cx="51"
       cy="41"
       fx="51"
       fy="41"
       r="11" />
    <linearGradient
       id="linearGradient3837">
      <stop
         style="stop-color:#000000;stop-opacity:1;"
         offset="0"
         id="stop3839" />
      <stop
         id="stop3845"
         offset="0.82786888"
         style="stop-color:#000000;stop-opacity:0.2;" />
      <stop
         style="stop-color:#000000;stop-opacity:0;"
         offset="1"
         id="stop3841" />
    </linearGradient>
    <radialGradient
       inkscape:collect="always"
       xlink:href="#linearGradient3837-1"
       id="radialGradient3955"
       gradientUnits="userSpaceOnUse"
       gradientTransform="translate(-40,950.36218)"
       cx="51"
       cy="41"
       fx="51"
       fy="41"
       r="11" />
    <linearGradient
       id="linearGradient3837-1">
      <stop
         style="stop-color:#000000;stop-opacity:1;"
         offset="0"
         id="stop3839-5" />
      <stop
         id="stop3845-3"
         offset="0.82786888"
         style="stop-color:#000000;stop-opacity:0.2;" />
      <stop
         style="stop-color:#000000;stop-opacity:0;"
         offset="1"
         id="stop3841-1" />
    </linearGradient>
    <radialGradient
       inkscape:collect="always"
       xlink:href="#linearGradient3837"
       id="radialGradient3953"
       gradientUnits="userSpaceOnUse"
       cx="51"
       cy="41"
       fx="51"
       fy="41"
       r="11" />
    <radialGradient
       inkscape:collect="always"
       xlink:href="#linearGradient3837"
       id="radialGradient3925"
       gradientUnits="userSpaceOnUse"
       cx="51"
       cy="41"
       fx="51"
       fy="41"
       r="11" />
    <radialGradient
       inkscape:collect="always"
       xlink:href="#linearGradient3837-1"
       id="radialGradient3923"
       gradientUnits="userSpaceOnUse"
       gradientTransform="translate(-40,950.36218)"
       cx="51"
       cy="41"
       fx="51"
       fy="41"
       r="11" />
    <radialGradient
       inkscape:collect="always"
       xlink:href="#linearGradient3837"
       id="radialGradient3921"
       gradientUnits="userSpaceOnUse"
       cx="51"
       cy="41"
       fx="51"
       fy="41"
       r="11" />
    <radialGradient
       inkscape:collect="always"
       xlink:href="#linearGradient3837"
       id="radialGradient3895"
       gradientUnits="userSpaceOnUse"
       cx="51"
       cy="41"
       fx="51"
       fy="41"
       r="11" />
    <radialGradient
       gradientTransform="translate(-40,950.36218)"
       r="11"
       fy="41"
       fx="51"
       cy="41"
       cx="51"
       gradientUnits="userSpaceOnUse"
       id="radialGradient3866"
       xlink:href="#linearGradient3837-1"
       inkscape:collect="always" />
    <radialGradient
       inkscape:collect="always"
       xlink:href="#linearGradient3837"
       id="radialGradient3843"
       cx="51"
       cy="41"
       fx="51"
       fy="41"
       r="11"
       gradientUnits="userSpaceOnUse" />
  </defs>
  <sodipodi:namedview
     id="base"
     pagecolor="#ffffff"
     bordercolor="#666666"
     borderopacity="1.0"
     inkscape:pageopacity="0.0"
     inkscape:pageshadow="2"
     inkscape:zoom="7.9195959"
     inkscape:cx="10.954178"
     inkscape:cy="37.984578"
     inkscape:document-units="px"
     inkscape:current-layer="layer1"
     showgrid="false"
     inkscape:window-width="1920"
     inkscape:window-height="1030"
     inkscape:window-x="0"
     inkscape:window-y="23"
     inkscape:window-maximized="1" />
  <metadata
     id="metadata7">
    <rdf:RDF>
      <cc:Work
         rdf:about="">
        <dc:format>image/svg+xml</dc:format>
        <dc:type
           rdf:resource="http://purl.org/dc/dcmitype/StillImage" />
        <dc:title>Tilain</dc:title>
      </cc:Work>
    </rdf:RDF>
  </metadata>
  <g
     inkscape:label="Ebene 1"
     inkscape:groupmode="layer"
     id="layer1"
     transform="translate(0,-972.36218)">
    <g
       id="open-hover"
       transform="translate(22.000004,5.99998)">
      <path
         style="fill:url(#radialGradient3843);fill-opacity:1;stroke:none"
         d="m 51,30 c -6.075132,0 -11,4.924868 -11,11 0,6.075132 4.924868,11 11,11 6.075132,0 11,-4.924868 11,-11 0,-6.075132 -4.924868,-11 -11,-11 z m 0,2 c 4.970563,0 9,4.029437 9,9 0,4.970563 -4.029437,9 -9,9 -4.970563,0 -9,-4.029437 -9,-9 0,-4.970563 4.029437,-9 9,-9 z"
         transform="translate(-40,950.36218)"
         id="path3831"
         inkscape:connector-curvature="0" />
      <path
         sodipodi:type="arc"
         style="fill:#ffffff;fill-opacity:1;stroke:none"
         id="path3815"
         sodipodi:cx="51"
         sodipodi:cy="41"
         sodipodi:rx="9"
         sodipodi:ry="9"
         d="m 60,41 c 0,4.970563 -4.029437,9 -9,9 -4.970563,0 -9,-4.029437 -9,-9 0,-4.970563 4.029437,-9 9,-9 4.970563,0 9,4.029437 9,9 z"
         transform="translate(-40,950.36218)" />
      <path
         style="fill:#262626;fill-opacity:1;stroke:none"
         d="m 4,991.36217 5,0 0,7.00003 4,0 0,-7.00003 5,0 -7,-7 z"
         id="rect3814"
         inkscape:connector-curvature="0"
         sodipodi:nodetypes="cccccccc" />
    </g>
    <g
       id="open-normal"
       style="opacity:0.6"
       transform="translate(0,5.99998)">
      <path
         inkscape:connector-curvature="0"
         style="fill:url(#radialGradient3866);fill-opacity:1;stroke:none"
         d="m 11,980.36218 c -6.075132,0 -11,4.92487 -11,11 0,6.07513 4.924868,11.00002 11,11.00002 6.075132,0 11,-4.92489 11,-11.00002 0,-6.07513 -4.924868,-11 -11,-11 z m 0,2 c 4.970563,0 9,4.02944 9,9 0,4.97056 -4.029437,9.00002 -9,9.00002 -4.970563,0 -9,-4.02946 -9,-9.00002 0,-4.97056 4.029437,-9 9,-9 z"
         id="path3831-2" />
      <path
         transform="translate(-40,950.36218)"
         d="m 60,41 c 0,4.970563 -4.029437,9 -9,9 -4.970563,0 -9,-4.029437 -9,-9 0,-4.970563 4.029437,-9 9,-9 4.970563,0 9,4.029437 9,9 z"
         sodipodi:ry="9"
         sodipodi:rx="9"
         sodipodi:cy="41"
         sodipodi:cx="51"
         id="path3821"
         style="fill:#ffffff;fill-opacity:1;stroke:none"
         sodipodi:type="arc" />
      <path
         sodipodi:nodetypes="cccccccc"
         inkscape:connector-curvature="0"
         id="path3823"
         d="m 4,991.36217 5,0 0,7.00003 4,0 0,-7.00003 5,0 -7,-7 z"
         style="fill:#262626;fill-opacity:1;stroke:none" />
    </g>
    <g
       transform="translate(44.000004,5.99998)"
       id="open-pressed">
      <path
         id="path3889"
         transform="translate(-40,950.36218)"
         d="m 51,30 c -6.075132,0 -11,4.924868 -11,11 0,6.075132 4.924868,11 11,11 6.075132,0 11,-4.924868 11,-11 0,-6.075132 -4.924868,-11 -11,-11 z m 0,2 c 4.970563,0 9,4.029437 9,9 0,4.970563 -4.029437,9 -9,9 -4.970563,0 -9,-4.029437 -9,-9 0,-4.970563 4.029437,-9 9,-9 z"
         style="opacity:0;fill:url(#radialGradient3895);fill-opacity:1;stroke:none"
         inkscape:connector-curvature="0" />
      <path
         transform="translate(-40,950.36218)"
         d="m 60,41 c 0,4.970563 -4.029437,9 -9,9 -4.970563,0 -9,-4.029437 -9,-9 0,-4.970563 4.029437,-9 9,-9 4.970563,0 9,4.029437 9,9 z"
         sodipodi:ry="9"
         sodipodi:rx="9"
         sodipodi:cy="41"
         sodipodi:cx="51"
         id="path3891"
         style="fill:#e5e5e5;fill-opacity:1;stroke:none"
         sodipodi:type="arc" />
      <path
         sodipodi:nodetypes="cccccccc"
         inkscape:connector-curvature="0"
         id="path3893"
         d="m 4,991.36217 5,0 0,7.00003 4,0 0,-7.00003 5,0 -7,-7 z"
         style="fill:#262626;fill-opacity:1;stroke:none" />
    </g>
    <g
       transform="translate(22.000004,27.99998)"
       id="remove-hover">
      <path
         id="path3899"
         transform="translate(-40,950.36218)"
         d="m 51,30 c -6.075132,0 -11,4.924868 -11,11 0,6.075132 4.924868,11 11,11 6.075132,0 11,-4.924868 11,-11 0,-6.075132 -4.924868,-11 -11,-11 z m 0,2 c 4.970563,0 9,4.029437 9,9 0,4.970563 -4.029437,9 -9,9 -4.970563,0 -9,-4.029437 -9,-9 0,-4.970563 4.029437,-9 9,-9 z"
         style="fill:url(#radialGradient3921);fill-opacity:1;stroke:none"
         inkscape:connector-curvature="0" />
      <path
         transform="translate(-40,950.36218)"
         d="m 60,41 c 0,4.970563 -4.029437,9 -9,9 -4.970563,0 -9,-4.029437 -9,-9 0,-4.970563 4.029437,-9 9,-9 4.970563,0 9,4.029437 9,9 z"
         sodipodi:ry="9"
         sodipodi:rx="9"
         sodipodi:cy="41"
         sodipodi:cx="51"
         id="path3901"
         style="fill:#ffffff;fill-opacity:1;stroke:none"
         sodipodi:type="arc" />
      <path
         sodipodi:nodetypes="ccccc"
         inkscape:connector-curvature="0"
         id="path3903"
         d="m 4,989.36218 0,4 14,0 0,-4 z"
         style="fill:#262626;fill-opacity:1;stroke:none" />
    </g>
    <g
       style="opacity:0.6"
       id="remove-normal"
       transform="translate(0,27.99998)">
      <path
         id="path3907"
         d="m 11,980.36218 c -6.075132,0 -11,4.92487 -11,11 0,6.07513 4.924868,11.00002 11,11.00002 6.075132,0 11,-4.92489 11,-11.00002 0,-6.07513 -4.924868,-11 -11,-11 z m 0,2 c 4.970563,0 9,4.02944 9,9 0,4.97056 -4.029437,9.00002 -9,9.00002 -4.970563,0 -9,-4.02946 -9,-9.00002 0,-4.97056 4.029437,-9 9,-9 z"
         style="fill:url(#radialGradient3923);fill-opacity:1;stroke:none"
         inkscape:connector-curvature="0" />
      <path
         sodipodi:type="arc"
         style="fill:#ffffff;fill-opacity:1;stroke:none"
         id="path3909"
         sodipodi:cx="51"
         sodipodi:cy="41"
         sodipodi:rx="9"
         sodipodi:ry="9"
         d="m 60,41 c 0,4.970563 -4.029437,9 -9,9 -4.970563,0 -9,-4.029437 -9,-9 0,-4.970563 4.029437,-9 9,-9 4.970563,0 9,4.029437 9,9 z"
         transform="translate(-40,950.36218)" />
      <path
         style="fill:#262626;fill-opacity:1;stroke:none"
         d="m 4,989.36218 0,4 14,0 0,-4 z"
         id="path3911"
         inkscape:connector-curvature="0"
         sodipodi:nodetypes="ccccc" />
    </g>
    <g
       id="remove-pressed"
       transform="translate(44.000004,27.99998)">
      <path
         inkscape:connector-curvature="0"
         style="opacity:0;fill:url(#radialGradient3925);fill-opacity:1;stroke:none"
         d="m 51,30 c -6.075132,0 -11,4.924868 -11,11 0,6.075132 4.924868,11 11,11 6.075132,0 11,-4.924868 11,-11 0,-6.075132 -4.924868,-11 -11,-11 z m 0,2 c 4.970563,0 9,4.029437 9,9 0,4.970563 -4.029437,9 -9,9 -4.970563,0 -9,-4.029437 -9,-9 0,-4.970563 4.029437,-9 9,-9 z"
         transform="translate(-40,950.36218)"
         id="path3915" />
      <path
         sodipodi:type="arc"
         style="fill:#e5e5e5;fill-opacity:1;stroke:none"
         id="path3917"
         sodipodi:cx="51"
         sodipodi:cy="41"
         sodipodi:rx="9"
         sodipodi:ry="9"
         d="m 60,41 c 0,4.970563 -4.029437,9 -9,9 -4.970563,0 -9,-4.029437 -9,-9 0,-4.970563 4.029437,-9 9,-9 4.970563,0 9,4.029437 9,9 z"
         transform="translate(-40,950.36218)" />
      <path
         style="fill:#262626;fill-opacity:1;stroke:none"
         d="m 4,989.36218 0,4 14,0 0,-4 z"
         id="path3919"
         inkscape:connector-curvature="0"
         sodipodi:nodetypes="ccccc" />
    </g>
    <g
       id="add-hover"
       transform="translate(22.000004,49.99998)">
      <path
         inkscape:connector-curvature="0"
         style="fill:url(#radialGradient3953);fill-opacity:1;stroke:none"
         d="m 51,30 c -6.075132,0 -11,4.924868 -11,11 0,6.075132 4.924868,11 11,11 6.075132,0 11,-4.924868 11,-11 0,-6.075132 -4.924868,-11 -11,-11 z m 0,2 c 4.970563,0 9,4.029437 9,9 0,4.970563 -4.029437,9 -9,9 -4.970563,0 -9,-4.029437 -9,-9 0,-4.970563 4.029437,-9 9,-9 z"
         transform="translate(-40,950.36218)"
         id="path3931" />
      <path
         sodipodi:type="arc"
         style="fill:#ffffff;fill-opacity:1;stroke:none"
         id="path3933"
         sodipodi:cx="51"
         sodipodi:cy="41"
         sodipodi:rx="9"
         sodipodi:ry="9"
         d="m 60,41 c 0,4.970563 -4.029437,9 -9,9 -4.970563,0 -9,-4.029437 -9,-9 0,-4.970563 4.029437,-9 9,-9 4.970563,0 9,4.029437 9,9 z"
         transform="translate(-40,950.36218)" />
      <path
         style="fill:#262626;fill-opacity:1;stroke:none"
         d="m 49,78 0,5 -5,0 0,4 5,0 0,5 4,0 0,-5 5,0 0,-4 -5,0 0,-5 -4,0 z"
         transform="translate(-40,906.36218)"
         id="path3935"
         inkscape:connector-curvature="0" />
    </g>
    <g
       transform="translate(0,49.99998)"
       id="add-normal"
       style="opacity:0.6">
      <path
         inkscape:connector-curvature="0"
         style="fill:url(#radialGradient3955);fill-opacity:1;stroke:none"
         d="m 11,980.36218 c -6.075132,0 -11,4.92487 -11,11 0,6.07513 4.924868,11.00002 11,11.00002 6.075132,0 11,-4.92489 11,-11.00002 0,-6.07513 -4.924868,-11 -11,-11 z m 0,2 c 4.970563,0 9,4.02944 9,9 0,4.97056 -4.029437,9.00002 -9,9.00002 -4.970563,0 -9,-4.02946 -9,-9.00002 0,-4.97056 4.029437,-9 9,-9 z"
         id="path3939" />
      <path
         transform="translate(-40,950.36218)"
         d="m 60,41 c 0,4.970563 -4.029437,9 -9,9 -4.970563,0 -9,-4.029437 -9,-9 0,-4.970563 4.029437,-9 9,-9 4.970563,0 9,4.029437 9,9 z"
         sodipodi:ry="9"
         sodipodi:rx="9"
         sodipodi:cy="41"
         sodipodi:cx="51"
         id="path3941"
         style="fill:#ffffff;fill-opacity:1;stroke:none"
         sodipodi:type="arc" />
      <path
         style="fill:#262626;fill-opacity:1;stroke:none"
         d="m 27,78 0,5 -5,0 0,4 5,0 0,5 4,0 0,-5 5,0 0,-4 -5,0 0,-5 -4,0 z"
         transform="translate(-18,906.36218)"
         id="path3943"
         inkscape:connector-curvature="0" />
    </g>
    <g
       transform="translate(44.000004,49.99998)"
       id="add-pressed">
      <path
         id="path3947"
         transform="translate(-40,950.36218)"
         d="m 51,30 c -6.075132,0 -11,4.924868 -11,11 0,6.075132 4.924868,11 11,11 6.075132,0 11,-4.924868 11,-11 0,-6.075132 -4.924868,-11 -11,-11 z m 0,2 c 4.970563,0 9,4.029437 9,9 0,4.970563 -4.029437,9 -9,9 -4.970563,0 -9,-4.029437 -9,-9 0,-4.970563 4.029437,-9 9,-9 z"
         style="opacity:0;fill:url(#radialGradient3957);fill-opacity:1;stroke:none"
         inkscape:connector-curvature="0" />
      <path
         transform="translate(-40,950.36218)"
         d="m 60,41 c 0,4.970563 -4.029437,9 -9,9 -4.970563,0 -9,-4.029437 -9,-9 0,-4.970563 4.029437,-9 9,-9 4.970563,0 9,4.029437 9,9 z"
         sodipodi:ry="9"
         sodipodi:rx="9"
         sodipodi:cy="41"
         sodipodi:cx="51"
         id="path3949"
         style="fill:#e5e5e5;fill-opacity:1;stroke:none"
         sodipodi:type="arc" />
      <path
         style="fill:#262626;fill-opacity:1;stroke:none"
         d="m 71,78 0,5 -5,0 0,4 5,0 0,5 4,0 0,-5 5,0 0,-4 -5,0 0,-5 -4,0 z"
         transform="translate(-62,906.36218)"
         id="path3951"
         inkscape:connector-curvature="0" />
    </g>
  </g>
</svg>
