<?xml version="1.0" encoding="UTF-8" standalone="no"?>
<svg
   xmlns:dc="http://purl.org/dc/elements/1.1/"
   xmlns:cc="http://creativecommons.org/ns#"
   xmlns:rdf="http://www.w3.org/1999/02/22-rdf-syntax-ns#"
   xmlns:svg="http://www.w3.org/2000/svg"
   xmlns="http://www.w3.org/2000/svg"
   xmlns:sodipodi="http://sodipodi.sourceforge.net/DTD/sodipodi-0.dtd"
   xmlns:inkscape="http://www.inkscape.org/namespaces/inkscape"
   viewBox="0 0 80 46"
   id="svg2"
   version="1.1"
   inkscape:version="0.48.4 r9939"
   width="100%"
   height="100%"
   sodipodi:docname="arrows.svg">
  <title
     id="title2995">Tilain</title>
  <metadata
     id="metadata34">
    <rdf:RDF>
      <cc:Work
         rdf:about="">
        <dc:format>image/svg+xml</dc:format>
        <dc:type
           rdf:resource="http://purl.org/dc/dcmitype/StillImage" />
        <dc:title>Tilain</dc:title>
        <cc:license
           rdf:resource="" />
      </cc:Work>
    </rdf:RDF>
  </metadata>
  <sodipodi:namedview
     pagecolor="#ffffff"
     bordercolor="#666666"
     borderopacity="1"
     objecttolerance="10"
     gridtolerance="10"
     guidetolerance="10"
     inkscape:pageopacity="0"
     inkscape:pageshadow="2"
     inkscape:window-width="1920"
     inkscape:window-height="1030"
     id="namedview32"
     showgrid="true"
     inkscape:zoom="10.429825"
     inkscape:cx="18.908328"
     inkscape:cy="22.357576"
     inkscape:window-x="0"
     inkscape:window-y="23"
     inkscape:window-maximized="1"
     inkscape:current-layer="svg2">
    <inkscape:grid
       type="xygrid"
       id="grid3796" />
  </sodipodi:namedview>
  <defs
     id="defs4" />
  <g
     transform="matrix(-0.63636364,0,0,-0.63636364,72,47.272727)"
     id="16-16-down-arrow">
    <rect
       y="2"
       x="0"
       height="22"
       width="22"
       id="rect3836"
       style="opacity:0;fill:#000000;fill-opacity:1;stroke:none" />
    <path
       sodipodi:nodetypes="cccccc"
       inkscape:connector-curvature="0"
       style="fill:#ffffff;fill-opacity:0.2;stroke:none"
       d="m 50.999999,32.999999 -6,7 1,1 10,0 1,-1 z"
       transform="matrix(1.5714286,0,0,1.5714286,-69.142857,-45.142857)"
       id="path3034" />
    <path
       id="path3840"
       transform="matrix(1.5714286,0,0,1.5714286,-69.142857,-45.142857)"
       d="m 50.999999,33.999999 -5,6 10,0 z"
       style="fill:#262626;fill-opacity:1;stroke:none"
       inkscape:connector-curvature="0"
       sodipodi:nodetypes="cccc" />
  </g>
  <g
     id="16-16-up-arrow"
     transform="matrix(-0.63636364,0,0,0.63636364,58,30.727272)">
    <rect
       style="opacity:0;fill:#000000;fill-opacity:1;stroke:none"
       id="rect3806"
       width="22"
       height="22"
       x="0"
       y="2" />
    <path
       id="path3808"
       transform="matrix(1.5714286,0,0,1.5714286,-69.142857,-45.142857)"
       d="m 50.999999,32.999999 -6,7 1,1.000001 10,0 1,-1.000001 z"
       style="fill:#ffffff;fill-opacity:0.2;stroke:none"
       inkscape:connector-curvature="0"
       sodipodi:nodetypes="cccccc" />
    <path
       sodipodi:nodetypes="cccc"
       inkscape:connector-curvature="0"
       style="fill:#262626;fill-opacity:1;stroke:none"
       d="m 50.999999,33.999999 -5,6 10,0 z"
       transform="matrix(1.5714286,0,0,1.5714286,-69.142857,-45.142857)"
       id="path3810" />
  </g>
  <g
     transform="matrix(0,0.63636364,-0.63636364,0,59.272727,18)"
     id="16-16-right-arrow">
    <rect
       y="2"
       x="0"
       height="22"
       width="22"
       id="rect3814"
       style="opacity:0;fill:#000000;fill-opacity:1;stroke:none" />
    <path
       sodipodi:nodetypes="cccccc"
       inkscape:connector-curvature="0"
       style="fill:#ffffff;fill-opacity:0.2;stroke:none"
       d="m 50.999999,32.999999 -6,7 1,1 10,0 1,-1 z"
       transform="matrix(1.5714286,0,0,1.5714286,-69.142857,-45.142857)"
       id="path3816" />
    <path
       id="path3819"
       transform="matrix(1.5714286,0,0,1.5714286,-69.142857,-45.142857)"
       d="m 50.999999,33.999999 -5,6 10,0 z"
       style="fill:#262626;fill-opacity:1;stroke:none"
       inkscape:connector-curvature="0"
       sodipodi:nodetypes="cccc" />
  </g>
  <g
     id="16-16-left-arrow"
     transform="matrix(0,-0.63636364,0.63636364,0,56.727273,32)">
    <rect
       style="opacity:0;fill:#000000;fill-opacity:1;stroke:none"
       id="rect3823"
       width="22"
       height="22"
       x="0"
       y="2" />
    <path
       id="path3825"
       transform="matrix(1.5714286,0,0,1.5714286,-69.142857,-45.142857)"
       d="m 50.999999,32.999999 -6,7 1,1 10,0 1,-1 z"
       style="fill:#ffffff;fill-opacity:0.2;stroke:none"
       inkscape:connector-curvature="0"
       sodipodi:nodetypes="cccccc" />
    <path
       sodipodi:nodetypes="cccc"
       inkscape:connector-curvature="0"
       style="fill:#262626;fill-opacity:1;stroke:none"
       d="m 50.999999,33.999999 -5,6 10,0 z"
       transform="matrix(1.5714286,0,0,1.5714286,-69.142857,-45.142857)"
       id="path3827" />
  </g>
  <g
     id="right-arrow"
     transform="matrix(0,1,-1,0,24,2)">
    <rect
       style="opacity:0;fill:#000000;fill-opacity:1;stroke:none"
       id="rect3865"
       width="22"
       height="22"
       x="0"
       y="2" />
    <path
       sodipodi:nodetypes="cccccc"
       inkscape:connector-curvature="0"
       style="fill:#ffffff;fill-opacity:0.2;stroke:none"
       d="m 11,27 -9,10 1,1 16,0 1,-1 z"
       transform="translate(0,-20)"
       id="path3829" />
    <path
       id="path3869"
       transform="translate(0,-20)"
       d="m 11,28 -8,9 16,0 z"
       style="fill:#262626;fill-opacity:1;stroke:none"
       inkscape:connector-curvature="0"
       sodipodi:nodetypes="cccc" />
  </g>
  <g
     transform="matrix(-1,0,0,-1,44,48)"
     id="down-arrow">
    <rect
       y="2"
       x="0"
       height="22"
       width="22"
       id="rect3835"
       style="opacity:0;fill:#000000;fill-opacity:1;stroke:none" />
    <path
       id="path3837"
       transform="translate(0,-20)"
       d="m 11,27 -9,10 1,1 16,0 1,-1 z"
       style="fill:#ffffff;fill-opacity:0.2;stroke:none"
       inkscape:connector-curvature="0"
       sodipodi:nodetypes="cccccc" />
    <path
       sodipodi:nodetypes="cccc"
       inkscape:connector-curvature="0"
       style="fill:#262626;fill-opacity:1;stroke:none"
       d="m 11,28 -8,9 16,0 z"
       transform="translate(0,-20)"
       id="path3839" />
  </g>
  <g
     transform="translate(0,22)"
     id="up-arrow">
    <rect
       style="opacity:0;fill:#000000;fill-opacity:1;stroke:none"
       id="rect3843"
       width="22"
       height="22"
       x="0"
       y="2" />
    <path
       sodipodi:nodetypes="cccccc"
       inkscape:connector-curvature="0"
       style="fill:#ffffff;fill-opacity:0.2;stroke:none"
       d="m 11,27 -9,10 1,1 16,0 1,-1 z"
       transform="translate(0,-20)"
       id="path3845" />
    <path
       id="path3847"
       transform="translate(0,-20)"
       d="m 11,28 -8,9 16,0 z"
       style="fill:#262626;fill-opacity:1;stroke:none"
       inkscape:connector-curvature="0"
       sodipodi:nodetypes="cccc" />
  </g>
  <g
     transform="matrix(0,1,1,0,20,2)"
     id="left-arrow">
    <rect
       y="2"
       x="0"
       height="22"
       width="22"
       id="rect3851"
       style="opacity:0;fill:#000000;fill-opacity:1;stroke:none" />
    <path
       id="path3854"
       transform="translate(0,-20)"
       d="m 11,27 -9,10 1,1 16,0 1,-1 z"
       style="fill:#ffffff;fill-opacity:0.2;stroke:none"
       inkscape:connector-curvature="0"
       sodipodi:nodetypes="cccccc" />
    <path
       sodipodi:nodetypes="cccc"
       inkscape:connector-curvature="0"
       style="fill:#262626;fill-opacity:1;stroke:none"
       d="m 11,28 -8,9 16,0 z"
       transform="translate(0,-20)"
       id="path3856" />
  </g>
</svg>
