<?xml version="1.0" encoding="UTF-8" standalone="no"?>
<svg
   xmlns:dc="http://purl.org/dc/elements/1.1/"
   xmlns:cc="http://creativecommons.org/ns#"
   xmlns:rdf="http://www.w3.org/1999/02/22-rdf-syntax-ns#"
   xmlns:svg="http://www.w3.org/2000/svg"
   xmlns="http://www.w3.org/2000/svg"
   xmlns:sodipodi="http://sodipodi.sourceforge.net/DTD/sodipodi-0.dtd"
   xmlns:inkscape="http://www.inkscape.org/namespaces/inkscape"
   viewBox="0 0 100 100"
   id="svg2"
   version="1.1"
   inkscape:version="0.48.4 r9939"
   width="100%"
   height="100%"
   sodipodi:docname="busywidget.svgz">
  <title
     id="title2995">Tilain</title>
  <metadata
     id="metadata34">
    <rdf:RDF>
      <cc:Work
         rdf:about="">
        <dc:format>image/svg+xml</dc:format>
        <dc:type
           rdf:resource="http://purl.org/dc/dcmitype/StillImage" />
        <dc:title>Tilain</dc:title>
        <cc:license
           rdf:resource="" />
      </cc:Work>
    </rdf:RDF>
  </metadata>
  <sodipodi:namedview
     pagecolor="#ffffff"
     bordercolor="#666666"
     borderopacity="1"
     objecttolerance="10"
     gridtolerance="10"
     guidetolerance="10"
     inkscape:pageopacity="0"
     inkscape:pageshadow="2"
     inkscape:window-width="1920"
     inkscape:window-height="1027"
     id="namedview32"
     showgrid="false"
     inkscape:zoom="3.6875002"
     inkscape:cx="-53.423032"
     inkscape:cy="60.279845"
     inkscape:window-x="0"
     inkscape:window-y="26"
     inkscape:window-maximized="1"
     inkscape:current-layer="svg2" />
  <defs
     id="defs4" />
  <rect
     style="fill:#ff00a8;fill-opacity:1;fill-rule:nonzero;stroke:none"
     id="hint-rotation-angle"
     width="15"
     height="8"
     x="-49.93848"
     y="92" />
  <g
     id="busywidget"
     transform="translate(-144,1)">
    <rect
       style="fill:#49a64f;fill-opacity:0;stroke:none"
       id="rect3774"
       width="130"
       height="130"
       x="130"
       y="-15" />
    <g
       id="g3918"
       transform="translate(-2,0)">
      <path
         transform="translate(147,0)"
         id="path3856"
         d="M 50,0 C 22.385763,0 0,22.385763 0,50 0,77.614237 22.385763,100 50,100 77.614237,100 100,77.614237 100,50 100,22.385763 77.614237,0 50,0 z m 0,10 C 72.09139,10 90,27.90861 90,50 90,72.09139 72.09139,90 50,90 27.90861,90 10,72.09139 10,50 10,27.90861 27.90861,10 50,10 z"
         style="fill:#d8d8d8;fill-opacity:1;stroke:none"
         inkscape:connector-curvature="0" />
      <path
         transform="translate(147,0)"
         id="path3858"
         d="m 50,-2 c -28.718807,0 -52,23.281193 -52,52 0,28.718807 23.281193,52 52,52 28.718807,0 52,-23.281193 52,-52 C 102,21.281193 78.718807,-2 50,-2 z m 0,2 c 27.614237,0 50,22.385763 50,50 0,27.614237 -22.385763,50 -50,50 C 22.385763,100 0,77.614237 0,50 0,22.385763 22.385763,0 50,0 z m 0,10 C 27.90861,10 10,27.90861 10,50 10,72.09139 27.90861,90 50,90 72.09139,90 90,72.09139 90,50 90,27.90861 72.09139,10 50,10 z m 0,2 C 70.98682,12 88,29.01318 88,50 88,70.98682 70.98682,88 50,88 29.01318,88 12,70.98682 12,50 12,29.01318 29.01318,12 50,12 z"
         style="fill:#cccccc;fill-opacity:1;stroke:none"
         inkscape:connector-curvature="0" />
      <path
         transform="translate(147,0)"
         id="path3882"
         d="m 0,50 c 0,27.614237 22.385763,50 50,50 L 50,90 C 27.90861,90 10,72.09139 10,50 L 0,50 z"
         style="fill:#f8f8f8;fill-opacity:1;stroke:none"
         inkscape:connector-curvature="0" />
      <path
         transform="translate(147,0)"
         id="path3887"
         d="M 50,0 C 22.385763,0 0,22.385763 0,50 l 10,0 C 10,27.90861 27.90861,10 50,10 L 50,0 z"
         style="fill:#262626;fill-opacity:1;stroke:none"
         inkscape:connector-curvature="0" />
      <path
         transform="translate(147,0)"
         id="path3892"
         d="M 90,50 C 90,72.09139 72.09139,90 50,90 l 0,10 c 27.614237,0 50,-22.385763 50,-50 l -10,0 z"
         style="fill:#f8f8f8;fill-opacity:1;stroke:none"
         inkscape:connector-curvature="0" />
      <path
         transform="translate(147,0)"
         id="path3894"
         d="m 50,0 0,10 c 22.09139,0 40,17.90861 40,40 l 10,0 C 100,22.385763 77.614237,0 50,0 z"
         style="fill:#262626;fill-opacity:1;stroke:none"
         inkscape:connector-curvature="0" />
      <path
         transform="translate(147,-2)"
         d="m 10,52 c 0,2.761424 -2.2385763,5 -5,5 -2.7614237,0 -5,-2.238576 -5,-5 0,-2.761424 2.2385763,-5 5,-5 2.7614237,0 5,2.238576 5,5 z"
         sodipodi:ry="5"
         sodipodi:rx="5"
         sodipodi:cy="52"
         sodipodi:cx="5"
         id="path3908"
         style="fill:#f8f8f8;fill-opacity:1;stroke:none"
         sodipodi:type="arc" />
      <path
         transform="matrix(1,0,0,1.1111111,147,-4.9999994)"
         d="m 100,49.5 c 0,2.485281 -2.238576,4.5 -5,4.5 -2.761424,0 -5,-2.014719 -5,-4.5 0,-2.485281 2.238576,-4.5 5,-4.5 2.761424,0 5,2.014719 5,4.5 z"
         sodipodi:ry="4.5"
         sodipodi:rx="5"
         sodipodi:cy="49.5"
         sodipodi:cx="95"
         id="path3910"
         style="fill:#262626;fill-opacity:1;stroke:none"
         sodipodi:type="arc" />
      <path
         transform="translate(147,0)"
         d="m 55,95 c 0,2.761424 -2.238576,5 -5,5 -2.761424,0 -5,-2.238576 -5,-5 0,-2.761424 2.238576,-5 5,-5 2.761424,0 5,2.238576 5,5 z"
         sodipodi:ry="5"
         sodipodi:rx="5"
         sodipodi:cy="95"
         sodipodi:cx="50"
         id="path3912"
         style="fill:#f8f8f8;fill-opacity:1;stroke:none"
         sodipodi:type="arc" />
      <path
         transform="translate(147,0)"
         d="m 55,5 c 0,2.7614237 -2.238576,5 -5,5 -2.761424,0 -5,-2.2385763 -5,-5 0,-2.7614237 2.238576,-5 5,-5 2.761424,0 5,2.2385763 5,5 z"
         sodipodi:ry="5"
         sodipodi:rx="5"
         sodipodi:cy="5"
         sodipodi:cx="50"
         id="path3914"
         style="fill:#262626;fill-opacity:1;stroke:none"
         sodipodi:type="arc" />
    </g>
  </g>
  <g
     transform="translate(-144,-131)"
     id="stopped">
    <rect
       y="-15"
       x="130"
       height="130"
       width="130"
       id="rect3876"
       style="fill:#49a64f;fill-opacity:0;stroke:none" />
    <g
       id="g3930"
       transform="translate(-2,0)">
      <path
         inkscape:connector-curvature="0"
         style="fill:#cccccc;fill-opacity:1;stroke:none"
         d="M 50,0 C 22.385763,0 0,22.385763 0,50 0,77.614237 22.385763,100 50,100 77.614237,100 100,77.614237 100,50 100,22.385763 77.614237,0 50,0 z m 0,10 C 72.09139,10 90,27.90861 90,50 90,72.09139 72.09139,90 50,90 27.90861,90 10,72.09139 10,50 10,27.90861 27.90861,10 50,10 z"
         id="path3878"
         transform="translate(147,0)" />
      <path
         inkscape:connector-curvature="0"
         style="fill:#cccccc;fill-opacity:1;stroke:none"
         d="m 50,-2 c -28.718807,0 -52,23.281193 -52,52 0,28.718807 23.281193,52 52,52 28.718807,0 52,-23.281193 52,-52 C 102,21.281193 78.718807,-2 50,-2 z m 0,2 c 27.614237,0 50,22.385763 50,50 0,27.614237 -22.385763,50 -50,50 C 22.385763,100 0,77.614237 0,50 0,22.385763 22.385763,0 50,0 z m 0,10 C 27.90861,10 10,27.90861 10,50 10,72.09139 27.90861,90 50,90 72.09139,90 90,72.09139 90,50 90,27.90861 72.09139,10 50,10 z m 0,2 C 70.98682,12 88,29.01318 88,50 88,70.98682 70.98682,88 50,88 29.01318,88 12,70.98682 12,50 12,29.01318 29.01318,12 50,12 z"
         id="path3880"
         transform="translate(147,0)" />
    </g>
  </g>
</svg>
