<?xml version="1.0" encoding="UTF-8" standalone="no"?>
<svg
   xmlns:dc="http://purl.org/dc/elements/1.1/"
   xmlns:cc="http://creativecommons.org/ns#"
   xmlns:rdf="http://www.w3.org/1999/02/22-rdf-syntax-ns#"
   xmlns:svg="http://www.w3.org/2000/svg"
   xmlns="http://www.w3.org/2000/svg"
   xmlns:sodipodi="http://sodipodi.sourceforge.net/DTD/sodipodi-0.dtd"
   xmlns:inkscape="http://www.inkscape.org/namespaces/inkscape"
   viewBox="0 0 200 100"
   id="svg2"
   version="1.1"
   inkscape:version="0.48.4 r9939"
   width="100%"
   height="100%"
   sodipodi:docname="configuration-icons.svg">
  <title
     id="title2995">Tilain</title>
  <metadata
     id="metadata34">
    <rdf:RDF>
      <cc:Work
         rdf:about="">
        <dc:format>image/svg+xml</dc:format>
        <dc:type
           rdf:resource="http://purl.org/dc/dcmitype/StillImage" />
        <dc:title>Tilain</dc:title>
        <cc:license
           rdf:resource="" />
      </cc:Work>
    </rdf:RDF>
  </metadata>
  <sodipodi:namedview
     pagecolor="#ffffff"
     bordercolor="#666666"
     borderopacity="1"
     objecttolerance="10"
     gridtolerance="10"
     guidetolerance="10"
     inkscape:pageopacity="0"
     inkscape:pageshadow="2"
     inkscape:window-width="1912"
     inkscape:window-height="1026"
     id="namedview32"
     showgrid="true"
     inkscape:zoom="22.627416"
     inkscape:cx="82.737566"
     inkscape:cy="8.3368866"
     inkscape:window-x="0"
     inkscape:window-y="27"
     inkscape:window-maximized="0"
     inkscape:current-layer="svg2"
     showguides="true"
     inkscape:guide-bbox="true">
    <inkscape:grid
       type="xygrid"
       id="grid3114"
       empspacing="5"
       visible="true"
       enabled="true"
       snapvisiblegridlinesonly="true" />
    <sodipodi:guide
       orientation="0,1"
       position="84,54"
       id="guide4028" />
    <sodipodi:guide
       orientation="0,1"
       position="82,42"
       id="guide4030" />
  </sodipodi:namedview>
  <defs
     id="defs4" />
  <g
     id="rotate"
     transform="translate(-330.53571,-302.50504)">
    <rect
       style="opacity:0;fill:#000000;fill-opacity:0.49803922;fill-rule:nonzero;stroke:none"
       id="rect4052"
       width="16"
       height="16"
       x="430.53571"
       y="346.50504" />
    <path
       style="fill:#ffffff;fill-opacity:0.2;stroke:none"
       d="M 108 45 C 104.13401 45 101 48.134007 101 52 C 101 55.865993 104.13401 59 108 59 C 109.67735 59 111.20293 58.392788 112.40625 57.40625 L 113 58 L 114 58 L 114 53 L 109.71875 53 C 109.88951 52.705456 110 52.364965 110 52 C 110 51.635035 109.88951 51.294544 109.71875 51 L 114 51 L 114 46 L 113 46 L 112.40625 46.59375 C 111.20293 45.607212 109.67735 45 108 45 z M 108 49 C 108.56894 49 109.08088 49.191217 109.53125 49.46875 L 109 50 L 109 50.28125 C 108.70546 50.110492 108.36497 50 108 50 C 106.89543 50 106 50.895431 106 52 C 106 53.104569 106.89543 54 108 54 C 108.36497 54 108.70546 53.889508 109 53.71875 L 109 54 L 109.53125 54.53125 C 109.08088 54.808783 108.56894 55 108 55 C 106.34315 55 105 53.656854 105 52 C 105 50.343146 106.34315 49 108 49 z "
       transform="translate(330.53571,302.50504)"
       id="path3960" />
    <path
       style="fill:#262626;fill-opacity:1;fill-rule:evenodd;stroke:none"
       d="m 108,46 c -3.31371,0 -6,2.686292 -6,6 0,3.313708 2.68629,6 6,6 1.65686,0 3.16421,-0.664214 4.25,-1.75 L 113,57 l 0,-3 -3,0 0.84375,0.84375 C 110.11989,55.567608 109.10457,56 108,56 c -2.20914,0 -4,-1.790861 -4,-4 0,-2.209139 1.79086,-4 4,-4 1.10457,0 2.11989,0.432392 2.84375,1.15625 L 110,50 l 3,0 0,-3 -0.75,0.75 C 111.16421,46.664214 109.65685,46 108,46 z m 0,5 c -0.554,0 -1,0.446 -1,1 0,0.554 0.446,1 1,1 0.554,0 1,-0.446 1,-1 0,-0.554 -0.446,-1 -1,-1 z"
       transform="translate(330.53571,302.50504)"
       id="path4191-5"
       inkscape:connector-curvature="0"
       sodipodi:nodetypes="ssscccccssscccccssssss" />
  </g>
  <g
     id="size-vertical"
     transform="translate(-236.70297,-285.50504)">
    <path
       style="fill:#ffffff;fill-opacity:0.2;fill-rule:evenodd;stroke:none"
       d="m 304.70297,330.50504 -5,5 2,2 -2,2 5,5 5,-5 -2,-2 2,-2 z m -3,7 3,-3 3,3 -3,3 z"
       id="path3889"
       inkscape:connector-curvature="0"
       sodipodi:nodetypes="cccccccccccccc" />
    <rect
       style="opacity:0;fill:#000000;fill-opacity:0.49803922;fill-rule:nonzero;stroke:none"
       id="rect4150"
       width="16"
       height="16"
       x="296.70297"
       y="329.50504" />
    <path
       style="fill:#262626;fill-opacity:1;stroke:none"
       d="m 304.70297,331.50504 4,4 -1,1 -3,-3 -3,3 -1,-1 z m -4,8 1,-1 3,3 3,-3 1,1 -4,4 z"
       id="rect4014"
       inkscape:connector-curvature="0"
       sodipodi:nodetypes="cccccccccccccc" />
  </g>
  <g
     id="size-diagonal-tl2br"
     transform="translate(-236.53572,-285.50504)">
    <rect
       style="opacity:0;fill:#000000;fill-opacity:0.49803922;fill-rule:nonzero;stroke:none"
       id="rect4265"
       width="16"
       height="16"
       x="236.53572"
       y="329.50504" />
    <path
       inkscape:connector-curvature="0"
       sodipodi:nodetypes="cccccccccccccc"
       style="fill:#ffffff;fill-opacity:0.2;stroke:none"
       d="m 238.53572,331.50504 0,6 4,0 0,-2 2,0 0,-4 z m 6,8 0,4 6,0 0,-6 -4,0 0,2 z"
       id="path3094" />
    <path
       id="path4267"
       d="m 239.53572,332.50504 0,4 2,0 0,-2 2,0 0,-2 z m 6,10 4,0 0,-4 -2,0 0,2 -2,0 z"
       style="fill:#262626;fill-opacity:1;stroke:none"
       sodipodi:nodetypes="cccccccccccccc"
       inkscape:connector-curvature="0" />
  </g>
  <g
     id="status"
     transform="translate(-238.53571,-304.50504)">
    <rect
       transform="scale(-1,1)"
       y="368.50504"
       x="-274.53571"
       height="16"
       width="16"
       id="rect2428"
       style="opacity:0;fill:#000000;fill-opacity:0.49803922;fill-rule:nonzero;stroke:none" />
    <path
       style="fill:#ffffff;fill-opacity:0.2;stroke:none"
       d="m 259.53571,374.50504 0,4 3,0 2,-2 4,4 2,-2 3,0 0,-4 -4,0 -1,1 -3.65625,-4 -3.34375,3 z"
       id="path3920"
       inkscape:connector-curvature="0"
       sodipodi:nodetypes="ccccccccccccc" />
    <path
       style="fill:#262626;fill-opacity:1;stroke:none"
       d="m 264.53571,372.50504 -3,3 -1,0 0,2 2,0 2,-2 4,4 2,-2 2,0 0,-2 -3,0 -1,1 z"
       id="path2432"
       inkscape:connector-curvature="0"
       sodipodi:nodetypes="ccccccccccccc" />
  </g>
  <g
     id="return-to-source"
     transform="translate(-241.53572,-304.50504)">
    <rect
       style="opacity:0;fill:#000000;fill-opacity:1;stroke:none"
       id="rect3107"
       width="16"
       height="16"
       x="40"
       y="64"
       transform="translate(241.53572,304.50504)" />
    <path
       sodipodi:nodetypes="ccccc"
       inkscape:connector-curvature="0"
       id="path3925"
       d="m 282.53572,369.50504 0,13 14,0 0,-13 z"
       style="fill:#ffffff;fill-opacity:0.2;stroke:none" />
    <path
       style="fill:#262626;fill-opacity:1;stroke:none"
       d="m 42,66 0,5 12,0 0,-5 z m 3,1 6,0 -3,3 z m -3,5 0,5 12,0 0,-5 z m 6,1 3,3 -6,0 z"
       transform="translate(241.53572,304.50504)"
       id="path3557"
       inkscape:connector-curvature="0"
       sodipodi:nodetypes="cccccccccccccccccc" />
  </g>
  <g
     id="collapse"
     transform="translate(-243.53571,-305.50504)">
    <rect
       style="opacity:0;fill:#8a8a8a;fill-opacity:0.49803922;stroke:none"
       id="rect2915"
       width="16"
       height="16"
       x="303.53571"
       y="369.50504" />
    <path
       style="fill:#ffffff;fill-opacity:0.2;stroke:none"
       d="m 62.99999,66 0,1 3.00001,3 -4.00001,0 0,4 4.00001,0 -3.00001,3 0,1 10,0 0,-1 L 70,74 l 3.99999,0 0,-4 L 70,70 l 2.99999,-3 0,-1 z"
       transform="translate(243.53571,305.50504)"
       id="path3928"
       inkscape:connector-curvature="0"
       sodipodi:nodetypes="ccccccccccccccccc" />
    <path
       id="rect2917"
       transform="translate(214.53572,326.50504)"
       d="m 92.99999,46 4,4 4,-4 z m -1,4 0,2 10,0 0,-2 z m 5,2 -4,4 8,0 z"
       style="fill:#262626;fill-opacity:1;stroke:none"
       inkscape:connector-curvature="0"
       sodipodi:nodetypes="ccccccccccccc" />
  </g>
  <g
     id="restore"
     transform="translate(-244.53571,-305.50504)">
    <rect
       y="369.50504"
       x="324.53571"
       height="16"
       width="16"
       id="rect3718"
       style="opacity:0;fill:#8a8a8a;fill-opacity:0.49803922;stroke:none" />
    <path
       style="fill:#ffffff;fill-opacity:0.2;stroke:none"
       d="m 88,65 -5,5 -1.00001,0 0,4 1.00001,0 5,5 5,-5 0.99999,0 0,-4 L 93,70 z"
       transform="translate(244.53571,305.50504)"
       id="path3933"
       inkscape:connector-curvature="0"
       sodipodi:nodetypes="ccccccccccc" />
    <path
       id="rect3724"
       transform="translate(214.53572,326.50504)"
       d="m 118,45 -4,4 8,0 z m -5.00001,5 0,2 10,0 0,-2 z M 114,53 l 4,4 4,-4 z"
       style="fill:#262626;fill-opacity:1;stroke:none"
       inkscape:connector-curvature="0"
       sodipodi:nodetypes="ccccccccccccc" />
  </g>
  <g
     id="help"
     transform="translate(-247.53571,-309.50504)">
    <rect
       y="373.50504"
       x="347.53571"
       height="16"
       width="16"
       id="rect3273"
       style="opacity:0;fill:#ffffff;fill-opacity:0.49803922;stroke:none" />
    <path
       sodipodi:nodetypes="cccccccccccc"
       inkscape:connector-curvature="0"
       style="fill:#ffffff;fill-opacity:0.2;stroke:none"
       d="m 349.53571,374.50504 0,6 4.00001,0 -1e-5,-2 4,0 -4,4 0,6 4,0 0,-5 4,-4 0,-5 z"
       id="path3938" />
    <path
       id="rect2460"
       d="m 350.53571,375.50504 1e-5,4 2,0 -1e-5,-2 6,0 0,1 -4,4 1e-5,2 2,0 -1e-5,-1 4,-4 0,-4 z m 4.00001,10 0,2 2,0 0,-2 z"
       style="fill:#262626;fill-opacity:1;stroke:none"
       inkscape:connector-curvature="0"
       sodipodi:nodetypes="cccccccccccccccccc" />
  </g>
  <g
     id="delete"
     transform="translate(-247.53571,-314.50504)">
    <rect
       y="398.50504"
       x="307.53571"
       height="16"
       width="16"
       id="rect3770"
       style="fill:#802626;fill-opacity:0;fill-rule:nonzero;stroke:none" />
    <path
       sodipodi:nodetypes="ccccccccccccc"
       inkscape:connector-curvature="0"
       style="fill:#ffffff;fill-opacity:0.2"
       d="m 311.53571,399.50504 0,2 -3,0 0,4 1,0 0,8 11,0 0,-8 1,0 0,-4 -3,0 0,-2 z"
       id="path3947" />
    <path
       id="path2922"
       d="m 312.53571,400.50504 0,2 -3,0 0,2 1,0 -10e-6,8 9,0 10e-6,-8 1,0 0,-2 -3,0 0,-2 z m 1,1 3,0 0,1 -3,0 z m -1,3 -10e-6,7 -1,0 10e-6,-7 z m 3,0 -10e-6,7 -1,0 10e-6,-7 z m 3,0 -10e-6,7 -1,0 10e-6,-7 z"
       style="fill:#262626;fill-opacity:1"
       inkscape:connector-curvature="0"
       sodipodi:nodetypes="ccccccccccccccccccccccccccccccccc" />
  </g>
  <g
     id="add"
     transform="translate(-250.53571,-313.50504)">
    <rect
       y="397.50504"
       x="350.53571"
       height="16"
       width="16"
       id="rect3816"
       style="fill:#ffffff;fill-opacity:0;fill-rule:nonzero;stroke:none" />
    <path
       inkscape:connector-curvature="0"
       sodipodi:nodetypes="ccccccccccccc"
       style="fill:#ffffff;fill-opacity:0.2;fill-rule:nonzero;stroke:none"
       d="m 356.5357,398.50504 10e-6,5 -5.00001,0 0,4 5.00001,0 -10e-6,5 4,0 10e-6,-5 5,0 -10e-6,-4 -5,0 -1e-5,-5 z"
       id="path3951" />
    <path
       id="rect3778"
       d="m 357.5357,399.50504 10e-6,5 -5.00001,0 0,2 5.00001,0 -10e-6,5 2,0 10e-6,-5 5,0 0,-2 -5,0 -10e-6,-5 z"
       style="fill:#262626;fill-opacity:1;fill-rule:nonzero;stroke:none"
       sodipodi:nodetypes="ccccccccccccc"
       inkscape:connector-curvature="0" />
  </g>
  <g
     id="remove"
     transform="translate(-248.53571,-312.50504)">
    <rect
       style="fill:#ffffff;fill-opacity:0;fill-rule:nonzero;stroke:none"
       id="rect3818"
       width="16"
       height="16"
       x="368.53571"
       y="396.50504" />
    <rect
       ry="4.5996094e-06"
       style="fill:#ffffff;fill-opacity:0.2;fill-rule:nonzero;stroke:none"
       id="rect3953"
       width="13.999995"
       height="3.9999955"
       x="369.53571"
       y="402.50504" />
    <rect
       y="403.50504"
       x="370.53571"
       height="1.9999954"
       width="11.999995"
       id="rect3787"
       style="fill:#262626;fill-opacity:1;fill-rule:nonzero;stroke:none"
       ry="4.5996094e-06" />
  </g>
  <g
     id="filter"
     transform="translate(-307.53571,-315.50504)">
    <rect
       y="399.50504"
       x="387.53571"
       height="16"
       width="16"
       id="rect3912"
       style="fill:#43a958;fill-opacity:0;fill-rule:nonzero;stroke:none" />
    <path
       style="font-size:medium;font-style:normal;font-variant:normal;font-weight:normal;font-stretch:normal;text-indent:0;text-align:start;text-decoration:none;line-height:normal;letter-spacing:normal;word-spacing:normal;text-transform:none;direction:ltr;block-progression:tb;writing-mode:lr-tb;text-anchor:start;color:#000000;fill:#ffffff;fill-opacity:0.2;stroke:none;stroke-width:1.00001502;marker:none;visibility:visible;display:inline;overflow:visible;enable-background:accumulate;font-family:Bitstream Vera Sans;-inkscape-font-specification:Bitstream Vera Sans"
       d="M 81 85 L 81 87 L 85 93 L 85 99 L 91 99 L 91 93 L 95 87 L 95 85 L 81 85 z M 86 89 L 90 89 L 88.5 92 L 87.5 92 L 86 89 z "
       transform="translate(307.53571,315.50504)"
       id="path3949" />
    <path
       id="path3888"
       d="m 389.53571,402.50504 4,6 0,5 4,0 0,-5 4,-6 0,-1 -12,0 z m 10,1 -3,5 -2,0 -3,-5 z"
       style="font-size:medium;font-style:normal;font-variant:normal;font-weight:normal;font-stretch:normal;text-indent:0;text-align:start;text-decoration:none;line-height:normal;letter-spacing:normal;word-spacing:normal;text-transform:none;direction:ltr;block-progression:tb;writing-mode:lr-tb;text-anchor:start;color:#000000;fill:#262626;fill-opacity:1;stroke:none;stroke-width:1.00001502;marker:none;visibility:visible;display:inline;overflow:visible;enable-background:accumulate;font-family:Bitstream Vera Sans;-inkscape-font-specification:Bitstream Vera Sans"
       inkscape:connector-curvature="0"
       sodipodi:nodetypes="cccccccccccccc" />
  </g>
  <g
     id="close"
     transform="translate(-246.53571,-302.50504)">
    <rect
       y="346.50504"
       x="386.53571"
       height="16"
       width="16"
       id="rect3925"
       style="opacity:0;fill:#ffffff;fill-opacity:0.78431373;stroke:none" />
    <path
       style="fill:#ffffff;fill-opacity:0.2;stroke:none"
       d="m 387.53571,350.50504 4,4 -4,4 3,3 4,-4 4,4 3,-3 -4,-4 4,-4 -3,-3 -4,4 -4,-4 z"
       id="path3916"
       inkscape:connector-curvature="0"
       sodipodi:nodetypes="ccccccccccccc" />
    <path
       sodipodi:nodetypes="ccccccccccccc"
       inkscape:connector-curvature="0"
       id="rect3129"
       d="m 388.53572,350.50504 4,4 -4,4 2,2 4,-4 4,4 2,-2 -4,-4 4,-4 -2,-2 -4,4 -4,-4 z"
       style="fill:#262626;fill-opacity:1;stroke:none" />
  </g>
  <g
     id="configure"
     transform="translate(-208.53572,-364.50504)">
    <path
       id="rect3866-2"
       transform="translate(214.53572,326.50504)"
       d="m 114,82 0,15 0,1 16,0 0,-16 -1,0 -15,0 z"
       style="opacity:0;fill:#000000;fill-opacity:1"
       inkscape:connector-curvature="0" />
    <path
       inkscape:connector-curvature="0"
       style="fill:#ffffff;fill-opacity:0.2;stroke:none"
       d="m 18,86 c -0.884468,0 -1.669676,0.391095 -2.21875,1 L 9,87 l 0,4 6.78125,0 c 0.549074,0.608905 1.334282,1 2.21875,1 0.884468,0 1.669676,-0.391095 2.21875,-1 L 23,91 23,87 20.21875,87 C 19.669676,86.391095 18.884468,86 18,86 z m -4,7 c -0.884468,0 -1.669676,0.391095 -2.21875,1 L 9,94 l 0,4 2.78125,0 c 0.549074,0.608905 1.334282,1 2.21875,1 0.884468,0 1.669676,-0.391095 2.21875,-1 L 23,98 23,94 16.21875,94 C 15.669676,93.391095 14.884468,93 14,93 z"
       transform="translate(320.53572,324.50504)"
       id="path3781"
       sodipodi:nodetypes="sccccsccccssccccsccccs" />
    <path
       style="fill:#262626;fill-opacity:1;stroke:none"
       d="m 18,87 c -0.739604,0 -1.372707,0.403104 -1.71875,1 L 10,88 l 0,2 6.28125,0 c 0.346043,0.596896 0.979146,1 1.71875,1 0.739604,0 1.372707,-0.403104 1.71875,-1 L 22,90 22,88 19.71875,88 C 19.372707,87.403104 18.739604,87 18,87 z m -4,7 c -0.739604,0 -1.372707,0.403104 -1.71875,1 L 10,95 l 0,2 2.28125,0 c 0.346043,0.596896 0.979146,1 1.71875,1 0.739604,0 1.372707,-0.403104 1.71875,-1 L 22,97 22,95 15.71875,95 C 15.372707,94.403104 14.739604,94 14,94 z"
       transform="translate(320.53572,324.50504)"
       id="path4076-0"
       inkscape:connector-curvature="0"
       sodipodi:nodetypes="sccccsccccssccccsccccs" />
  </g>
  <g
     transform="matrix(-1,0,0,1,272.53572,-285.50504)"
     id="size-diagonal-tr2bl">
    <rect
       y="329.50504"
       x="236.53572"
       height="16"
       width="16"
       id="rect3868"
       style="opacity:0;fill:#000000;fill-opacity:0.49803922;fill-rule:nonzero;stroke:none" />
    <path
       id="path3870"
       d="m 238.53572,331.50504 0,6 4,0 0,-2 2,0 0,-4 z m 6,8 0,4 6,0 0,-6 -4,0 0,2 z"
       style="fill:#ffffff;fill-opacity:0.2;stroke:none"
       sodipodi:nodetypes="cccccccccccccc"
       inkscape:connector-curvature="0" />
    <path
       inkscape:connector-curvature="0"
       sodipodi:nodetypes="cccccccccccccc"
       style="fill:#262626;fill-opacity:1;stroke:none"
       d="m 239.53572,332.50504 0,4 2,0 0,-2 2,0 0,-2 z m 6,10 4,0 0,-4 -2,0 0,2 -2,0 z"
       id="path3872" />
  </g>
  <g
     id="move">
    <path
       style="fill:#ffffff;fill-opacity:0.2;stroke:none"
       d="M 88 45 C 84.134007 45 81 48.134007 81 52 C 81 55.865993 84.134007 59 88 59 C 91.865993 59 95 55.865993 95 52 C 95 48.134007 91.865993 45 88 45 z M 88 49 C 89.656854 49 91 50.343146 91 52 C 91 53.656854 89.656854 55 88 55 C 87.099695 55 86.299887 54.596752 85.75 53.96875 C 85.83247 53.979109 85.914721 54 86 54 C 87.104569 54 88 53.104569 88 52 C 88 50.895431 87.104569 50 86 50 C 85.914721 50 85.83247 50.020891 85.75 50.03125 C 86.299887 49.403248 87.099695 49 88 49 z "
       id="path3990" />
    <rect
       y="44.000004"
       x="79.999992"
       height="16"
       width="16"
       id="rect4086"
       style="opacity:0;fill:#000000;fill-opacity:0.49803922;fill-rule:nonzero;stroke:none" />
    <path
       id="path3982"
       d="m 88,46 c -3.313708,0 -6,2.686292 -6,6 0,3.313708 2.686292,6 6,6 3.313708,0 6,-2.686292 6,-6 0,-3.313708 -2.686292,-6 -6,-6 z m 0,2 c 2.209139,0 4,1.790861 4,4 0,2.209139 -1.790861,4 -4,4 -2.209139,0 -4,-1.790861 -4,-4 0,-2.209139 1.790861,-4 4,-4 z m -2,3 c -0.552285,0 -1,0.447715 -1,1 0,0.552285 0.447715,1 1,1 0.552285,0 1,-0.447715 1,-1 0,-0.552285 -0.447715,-1 -1,-1 z"
       style="fill:#262626;fill-opacity:1;stroke:none"
       inkscape:connector-curvature="0"
       sodipodi:nodetypes="sssssssssssssss" />
  </g>
  <g
     id="size-horizontal">
    <path
       sodipodi:nodetypes="cccccccccccccc"
       inkscape:connector-curvature="0"
       id="path4037"
       d="m 41.00001,52 5,5 2,-2 2,2 5,-5 -5,-5 -2,2 -2,-2 z m 7,3 -3,-3 3,-3 3,3 z"
       style="fill:#ffffff;fill-opacity:0.2;fill-rule:evenodd;stroke:none" />
    <rect
       transform="matrix(0,-1,1,0,0,0)"
       y="40.000004"
       x="-59.999996"
       height="16"
       width="16"
       id="rect4039"
       style="opacity:0;fill:#000000;fill-opacity:0.49803922;fill-rule:nonzero;stroke:none" />
    <path
       sodipodi:nodetypes="cccccccccccccc"
       inkscape:connector-curvature="0"
       id="path4041"
       d="m 42.00001,52 4,-4 1,1 -3,3 3,3 -1,1 z m 8,4 -1,-1 3,-3 -3,-3 1,-1 4,4 z"
       style="fill:#262626;fill-opacity:1;stroke:none" />
  </g>
  <g
     id="maximize"
     transform="matrix(-1,0,0,-1,-4.000002,123.99999)">
    <rect
       transform="scale(-1,1)"
       style="opacity:0;fill:#000000;fill-opacity:0.49803922;fill-rule:nonzero;stroke:none"
       id="rect4061"
       width="16"
       height="16"
       x="4.000001"
       y="43.999996" />
    <path
       style="fill:#ffffff;fill-opacity:0.2;stroke:none"
       d="m -11.000001,44.999996 0,4 2,0 0,2 4,0 0,-6 z m -8,4 0,10 10,0 0,-4 -6,0 0,-6 z"
       id="path4091"
       inkscape:connector-curvature="0"
       sodipodi:nodetypes="cccccccccccccc" />
    <path
       style="fill:#262626;fill-opacity:1;stroke:none"
       d="m -10.000001,45.999996 0,2 2,0 0,2 2,0 0,-4 z m -8,4 0,8 8,0 0,-2 -6,0 0,-6 z"
       id="path4057"
       inkscape:connector-curvature="0"
       sodipodi:nodetypes="cccccccccccccc" />
  </g>
  <g
     transform="matrix(-1,0,0,-1,-4.000002,143.99999)"
     id="unmaximize">
    <rect
       y="43.999996"
       x="4.000001"
       height="16"
       width="16"
       id="rect4106"
       style="opacity:0;fill:#000000;fill-opacity:0.49803922;fill-rule:nonzero;stroke:none"
       transform="scale(-1,1)" />
    <path
       sodipodi:nodetypes="cccccccccccccc"
       inkscape:connector-curvature="0"
       id="path4108"
       d="m -11.000001,44.999996 0,4 2,0 0,2 4,0 0,-6 z m -8,4 0,10 10,0 0,-4 -6,0 0,-6 z"
       style="fill:#ffffff;fill-opacity:0.2;stroke:none" />
    <path
       sodipodi:nodetypes="cccccccccccccc"
       inkscape:connector-curvature="0"
       id="path4110"
       d="m -10.000001,45.999996 0,2 2,0 0,2 2,0 0,-4 z m -8,4 0,8 8,0 0,-2 -6,0 0,-6 z"
       style="fill:#262626;fill-opacity:1;stroke:none" />
  </g>
</svg>
