<?xml version="1.0" encoding="UTF-8" standalone="no"?>
<svg
   xmlns:dc="http://purl.org/dc/elements/1.1/"
   xmlns:cc="http://creativecommons.org/ns#"
   xmlns:rdf="http://www.w3.org/1999/02/22-rdf-syntax-ns#"
   xmlns:svg="http://www.w3.org/2000/svg"
   xmlns="http://www.w3.org/2000/svg"
   xmlns:sodipodi="http://sodipodi.sourceforge.net/DTD/sodipodi-0.dtd"
   xmlns:inkscape="http://www.inkscape.org/namespaces/inkscape"
   viewBox="0 0 128 128"
   id="svg2"
   version="1.1"
   inkscape:version="0.48.4 r9939"
   width="100%"
   height="100%"
   sodipodi:docname="containment-controls.svgz">
  <title
     id="title2995">Tilain</title>
  <metadata
     id="metadata34">
    <rdf:RDF>
      <cc:Work
         rdf:about="">
        <dc:format>image/svg+xml</dc:format>
        <dc:type
           rdf:resource="http://purl.org/dc/dcmitype/StillImage" />
        <dc:title>Tilain</dc:title>
        <cc:license
           rdf:resource="" />
      </cc:Work>
    </rdf:RDF>
  </metadata>
  <sodipodi:namedview
     pagecolor="#ffffff"
     bordercolor="#666666"
     borderopacity="1"
     objecttolerance="10"
     gridtolerance="10"
     guidetolerance="10"
     inkscape:pageopacity="0"
     inkscape:pageshadow="2"
     inkscape:window-width="1920"
     inkscape:window-height="1027"
     id="namedview32"
     showgrid="true"
     inkscape:zoom="3.6875002"
     inkscape:cx="169.08015"
     inkscape:cy="-23.307055"
     inkscape:window-x="0"
     inkscape:window-y="26"
     inkscape:window-maximized="1"
     inkscape:current-layer="svg2"
     showguides="true"
     inkscape:guide-bbox="true">
    <inkscape:grid
       type="xygrid"
       id="grid3060"
       empspacing="5"
       visible="true"
       enabled="true"
       snapvisiblegridlinesonly="true" />
    <sodipodi:guide
       orientation="0,1"
       position="-6,64"
       id="guide3062" />
    <sodipodi:guide
       orientation="1,0"
       position="64,129"
       id="guide3064" />
  </sodipodi:namedview>
  <defs
     id="defs4" />
  <g
     id="g4025"
     style="fill:#ffffff;fill-opacity:1"
     transform="matrix(0,-1,1,0,34.44194,137)" />
  <g
     id="north-center"
     transform="translate(-209,-19)"
     style="fill:#0070ff;fill-opacity:1">
    <path
       id="path3269"
       d="m 264,112 0,5 5,0 0,-5 -5,0 z"
       style="fill:#e5e5e5;fill-opacity:1;fill-rule:nonzero;stroke:none"
       inkscape:connector-curvature="0" />
  </g>
  <g
     id="north-top"
     transform="translate(-209,-20)">
    <path
       id="path3273"
       d="m 264,108 0,4 5,0 0,-4 -5,0 z"
       style="fill:#e5e5e5;fill-opacity:1;fill-rule:nonzero;stroke:none"
       inkscape:connector-curvature="0" />
    <path
       id="path3277"
       d="m 264,107 0,1 5,0 0,-1 -5,0 z"
       style="fill:#b2b2b2;fill-opacity:1;fill-rule:nonzero;stroke:none"
       inkscape:connector-curvature="0" />
  </g>
  <g
     id="north-bottom"
     transform="translate(-209,-18)">
    <path
       id="path3283"
       d="m 264,117 0,4 5,0 0,-4 -5,0 z"
       style="fill:#e5e5e5;fill-opacity:1;fill-rule:nonzero;stroke:none"
       inkscape:connector-curvature="0" />
    <path
       id="path3287"
       d="m 264,121 0,1 5,0 0,-1 -5,0 z"
       style="fill:#b2b2b2;fill-opacity:1;fill-rule:nonzero;stroke:none"
       inkscape:connector-curvature="0" />
  </g>
  <g
     transform="translate(-222,-19)"
     id="south-center"
     style="fill:#0070ff;fill-opacity:1">
    <path
       style="fill:#e5e5e5;fill-opacity:1;fill-rule:nonzero;stroke:none"
       d="m 264,112 0,5 5,0 0,-5 -5,0 z"
       id="path4084"
       inkscape:connector-curvature="0" />
  </g>
  <g
     transform="translate(-222,-20)"
     id="south-top">
    <path
       style="fill:#e5e5e5;fill-opacity:1;fill-rule:nonzero;stroke:none"
       d="m 264,108 0,4 5,0 0,-4 -5,0 z"
       id="path4088"
       inkscape:connector-curvature="0" />
    <path
       style="fill:#b2b2b2;fill-opacity:1;fill-rule:nonzero;stroke:none"
       d="m 264,107 0,1 5,0 0,-1 -5,0 z"
       id="path4092"
       inkscape:connector-curvature="0" />
  </g>
  <g
     transform="translate(-222,-18)"
     id="south-bottom">
    <path
       style="fill:#e5e5e5;fill-opacity:1;fill-rule:nonzero;stroke:none"
       d="m 264,117 0,4 5,0 0,-4 -5,0 z"
       id="path4098"
       inkscape:connector-curvature="0" />
    <path
       style="fill:#b2b2b2;fill-opacity:1;fill-rule:nonzero;stroke:none"
       d="m 264,121 0,1 5,0 0,-1 -5,0 z"
       id="path4102"
       inkscape:connector-curvature="0" />
  </g>
  <g
     transform="matrix(0,-1,1,0,-83,336)"
     id="east-center">
    <path
       inkscape:connector-curvature="0"
       style="fill:#e5e5e5;fill-opacity:1;fill-rule:nonzero;stroke:none"
       d="m 264,112 0,5 5,0 0,-5 -5,0 z"
       id="path4106" />
  </g>
  <g
     transform="matrix(0,-1,1,0,-84,336)"
     id="east-left">
    <path
       inkscape:connector-curvature="0"
       style="fill:#e5e5e5;fill-opacity:1;fill-rule:nonzero;stroke:none"
       d="m 264,108 0,4 5,0 0,-4 -5,0 z"
       id="path4110" />
    <path
       inkscape:connector-curvature="0"
       style="fill:#b2b2b2;fill-opacity:1;fill-rule:nonzero;stroke:none"
       d="m 264,107 0,1 5,0 0,-1 -5,0 z"
       id="path4114" />
  </g>
  <g
     transform="matrix(0,-1,1,0,-82,336)"
     id="east-right">
    <path
       inkscape:connector-curvature="0"
       style="fill:#e5e5e5;fill-opacity:1;fill-rule:nonzero;stroke:none"
       d="m 264,117 0,4 5,0 0,-4 -5,0 z"
       id="path4120" />
    <path
       inkscape:connector-curvature="0"
       style="fill:#b2b2b2;fill-opacity:1;fill-rule:nonzero;stroke:none"
       d="m 264,121 0,1 5,0 0,-1 -5,0 z"
       id="path4124" />
  </g>
  <g
     id="west-center"
     transform="matrix(0,-1,1,0,-83,349)">
    <path
       inkscape:connector-curvature="0"
       id="path4128"
       d="m 264,112 0,5 5,0 0,-5 -5,0 z"
       style="fill:#e5e5e5;fill-opacity:1;fill-rule:nonzero;stroke:none" />
  </g>
  <g
     id="west-left"
     transform="matrix(0,-1,1,0,-84,349)">
    <path
       inkscape:connector-curvature="0"
       id="path4132"
       d="m 264,108 0,4 5,0 0,-4 -5,0 z"
       style="fill:#e5e5e5;fill-opacity:1;fill-rule:nonzero;stroke:none" />
    <path
       inkscape:connector-curvature="0"
       id="path4136"
       d="m 264,107 0,1 5,0 0,-1 -5,0 z"
       style="fill:#b2b2b2;fill-opacity:1;fill-rule:nonzero;stroke:none" />
  </g>
  <g
     id="west-right"
     transform="matrix(0,-1,1,0,-82,349)">
    <path
       inkscape:connector-curvature="0"
       id="path4143"
       d="m 264,117 0,4 5,0 0,-4 -5,0 z"
       style="fill:#e5e5e5;fill-opacity:1;fill-rule:nonzero;stroke:none" />
    <path
       inkscape:connector-curvature="0"
       id="path4147"
       d="m 264,121 0,1 5,0 0,-1 -5,0 z"
       style="fill:#b2b2b2;fill-opacity:1;fill-rule:nonzero;stroke:none" />
  </g>
  <g
     id="north-offsetslider"
     transform="translate(0,-7)">
    <path
       id="path6079"
       d="m 51,7 0,14 26,0 0,-14 z m 25,5 0,8 -24,0 0,-8 z"
       style="font-size:medium;font-style:normal;font-variant:normal;font-weight:normal;font-stretch:normal;text-indent:0;text-align:start;text-decoration:none;line-height:normal;letter-spacing:normal;word-spacing:normal;text-transform:none;direction:ltr;block-progression:tb;writing-mode:lr-tb;text-anchor:start;baseline-shift:baseline;color:#000000;fill:#b2b2b2;fill-opacity:1;fill-rule:nonzero;stroke:none;stroke-width:2;marker:none;visibility:visible;display:inline;overflow:visible;enable-background:accumulate;font-family:Sans;-inkscape-font-specification:Sans"
       inkscape:connector-curvature="0"
       sodipodi:nodetypes="cccccccccc" />
    <path
       inkscape:connector-curvature="0"
       style="fill:#ffffff;fill-opacity:1;fill-rule:nonzero;stroke:none"
       d="m 76,20 0,-8 -8,0 -4,-4 -4,4 -8,0 0,8 z"
       id="path4003"
       sodipodi:nodetypes="cccccccc" />
  </g>
  <g
     id="north-minslider"
     transform="translate(-6,-11)">
    <path
       inkscape:connector-curvature="0"
       sodipodi:nodetypes="ccccc"
       id="path3979"
       d="m 116,24 0,-12 -30,0 0,12 z"
       style="fill:#ffffff;fill-opacity:1;fill-rule:nonzero;stroke:none" />
    <path
       id="path6138"
       d="m 85,11 0,14 32,0 0,-14 z m 14,1 6,6 -6,6 -13,0 0,-12 z"
       style="font-size:medium;font-style:normal;font-variant:normal;font-weight:normal;font-stretch:normal;text-indent:0;text-align:start;text-decoration:none;line-height:normal;letter-spacing:normal;word-spacing:normal;text-transform:none;direction:ltr;block-progression:tb;writing-mode:lr-tb;text-anchor:start;baseline-shift:baseline;color:#000000;fill:#b2b2b2;fill-opacity:1;fill-rule:nonzero;stroke:none;stroke-width:2;marker:none;visibility:visible;display:inline;overflow:visible;enable-background:accumulate;font-family:Sans;-inkscape-font-specification:Sans"
       inkscape:connector-curvature="0"
       sodipodi:nodetypes="ccccccccccc" />
  </g>
  <g
     id="north-maxslider"
     transform="translate(-69,8)">
    <path
       inkscape:connector-curvature="0"
       style="fill:#ffffff;fill-opacity:1;fill-rule:nonzero;stroke:none"
       d="m 87,5 0,-12 30,0 0,12 z"
       id="path3955"
       sodipodi:nodetypes="ccccc" />
    <path
       id="path6200"
       d="m 86,-8 0,14 32,0 0,-14 z m 18,1 13,0 0,12 -13,0 -6,-6 z"
       style="font-size:medium;font-style:normal;font-variant:normal;font-weight:normal;font-stretch:normal;text-indent:0;text-align:start;text-decoration:none;line-height:normal;letter-spacing:normal;word-spacing:normal;text-transform:none;direction:ltr;block-progression:tb;writing-mode:lr-tb;text-anchor:start;baseline-shift:baseline;color:#000000;fill:#b2b2b2;fill-opacity:1;fill-rule:nonzero;stroke:none;stroke-width:2;marker:none;visibility:visible;display:inline;overflow:visible;enable-background:accumulate;font-family:Sans;-inkscape-font-specification:Sans"
       inkscape:connector-curvature="0"
       sodipodi:nodetypes="ccccccccccc" />
  </g>
  <g
     id="vertical-centerindicator"
     transform="translate(7,31)">
    <rect
       style="fill:#b2b2b2;fill-opacity:1;fill-rule:nonzero;stroke:none"
       id="rect4223-8"
       width="42"
       height="1"
       x="11"
       y="32" />
  </g>
  <g
     id="horizontal-centerindicator"
     transform="translate(10,77)">
    <rect
       transform="matrix(0,-1,1,0,0,0)"
       y="8"
       x="-31"
       height="1"
       width="42"
       id="rect4227-2"
       style="fill:#b2b2b2;fill-opacity:1;fill-rule:nonzero;stroke:none" />
  </g>
  <g
     transform="matrix(1,0,0,-1,0,135)"
     id="south-offsetslider">
    <path
       sodipodi:nodetypes="cccccccccc"
       inkscape:connector-curvature="0"
       style="font-size:medium;font-style:normal;font-variant:normal;font-weight:normal;font-stretch:normal;text-indent:0;text-align:start;text-decoration:none;line-height:normal;letter-spacing:normal;word-spacing:normal;text-transform:none;direction:ltr;block-progression:tb;writing-mode:lr-tb;text-anchor:start;baseline-shift:baseline;color:#000000;fill:#b2b2b2;fill-opacity:1;fill-rule:nonzero;stroke:none;stroke-width:2;marker:none;visibility:visible;display:inline;overflow:visible;enable-background:accumulate;font-family:Sans;-inkscape-font-specification:Sans"
       d="m 51,7 0,14 26,0 0,-14 z m 25,5 0,8 -24,0 0,-8 z"
       id="path3180" />
    <path
       sodipodi:nodetypes="cccccccc"
       id="path3182"
       d="m 76,20 0,-8 -8,0 -4,-4 -4,4 -8,0 0,8 z"
       style="fill:#ffffff;fill-opacity:1;fill-rule:nonzero;stroke:none"
       inkscape:connector-curvature="0" />
  </g>
  <g
     transform="matrix(1,0,0,-1,-6,139)"
     id="south-maxslider">
    <path
       style="fill:#ffffff;fill-opacity:1;fill-rule:nonzero;stroke:none"
       d="m 116,24 0,-12 -30,0 0,12 z"
       id="path3186"
       sodipodi:nodetypes="ccccc"
       inkscape:connector-curvature="0" />
    <path
       sodipodi:nodetypes="ccccccccccc"
       inkscape:connector-curvature="0"
       style="font-size:medium;font-style:normal;font-variant:normal;font-weight:normal;font-stretch:normal;text-indent:0;text-align:start;text-decoration:none;line-height:normal;letter-spacing:normal;word-spacing:normal;text-transform:none;direction:ltr;block-progression:tb;writing-mode:lr-tb;text-anchor:start;baseline-shift:baseline;color:#000000;fill:#b2b2b2;fill-opacity:1;fill-rule:nonzero;stroke:none;stroke-width:2;marker:none;visibility:visible;display:inline;overflow:visible;enable-background:accumulate;font-family:Sans;-inkscape-font-specification:Sans"
       d="m 85,11 0,14 32,0 0,-14 z m 14,1 6,6 -6,6 -13,0 0,-12 z"
       id="path3188" />
  </g>
  <g
     transform="matrix(1,0,0,-1,-69,120)"
     id="south-minslider">
    <path
       sodipodi:nodetypes="ccccc"
       id="path3192"
       d="m 87,5 0,-12 30,0 0,12 z"
       style="fill:#ffffff;fill-opacity:1;fill-rule:nonzero;stroke:none"
       inkscape:connector-curvature="0" />
    <path
       sodipodi:nodetypes="ccccccccccc"
       inkscape:connector-curvature="0"
       style="font-size:medium;font-style:normal;font-variant:normal;font-weight:normal;font-stretch:normal;text-indent:0;text-align:start;text-decoration:none;line-height:normal;letter-spacing:normal;word-spacing:normal;text-transform:none;direction:ltr;block-progression:tb;writing-mode:lr-tb;text-anchor:start;baseline-shift:baseline;color:#000000;fill:#b2b2b2;fill-opacity:1;fill-rule:nonzero;stroke:none;stroke-width:2;marker:none;visibility:visible;display:inline;overflow:visible;enable-background:accumulate;font-family:Sans;-inkscape-font-specification:Sans"
       d="m 86,-8 0,14 32,0 0,-14 z m 18,1 13,0 0,12 -13,0 -6,-6 z"
       id="path3194" />
  </g>
  <g
     transform="matrix(0,1,-1,0,135,0)"
     id="east-offsetslider">
    <path
       sodipodi:nodetypes="cccccccccc"
       inkscape:connector-curvature="0"
       style="font-size:medium;font-style:normal;font-variant:normal;font-weight:normal;font-stretch:normal;text-indent:0;text-align:start;text-decoration:none;line-height:normal;letter-spacing:normal;word-spacing:normal;text-transform:none;direction:ltr;block-progression:tb;writing-mode:lr-tb;text-anchor:start;baseline-shift:baseline;color:#000000;fill:#b2b2b2;fill-opacity:1;fill-rule:nonzero;stroke:none;stroke-width:2;marker:none;visibility:visible;display:inline;overflow:visible;enable-background:accumulate;font-family:Sans;-inkscape-font-specification:Sans"
       d="m 51,7 0,14 26,0 0,-14 z m 25,5 0,8 -24,0 0,-8 z"
       id="path3198" />
    <path
       sodipodi:nodetypes="cccccccc"
       id="path3200"
       d="m 76,20 0,-8 -8,0 -4,-4 -4,4 -8,0 0,8 z"
       style="fill:#ffffff;fill-opacity:1;fill-rule:nonzero;stroke:none"
       inkscape:connector-curvature="0" />
  </g>
  <g
     transform="matrix(0,1,-1,0,139,-6)"
     id="east-maxslider">
    <path
       style="fill:#ffffff;fill-opacity:1;fill-rule:nonzero;stroke:none"
       d="m 116,24 0,-12 -30,0 0,12 z"
       id="path3204"
       sodipodi:nodetypes="ccccc"
       inkscape:connector-curvature="0" />
    <path
       sodipodi:nodetypes="ccccccccccc"
       inkscape:connector-curvature="0"
       style="font-size:medium;font-style:normal;font-variant:normal;font-weight:normal;font-stretch:normal;text-indent:0;text-align:start;text-decoration:none;line-height:normal;letter-spacing:normal;word-spacing:normal;text-transform:none;direction:ltr;block-progression:tb;writing-mode:lr-tb;text-anchor:start;baseline-shift:baseline;color:#000000;fill:#b2b2b2;fill-opacity:1;fill-rule:nonzero;stroke:none;stroke-width:2;marker:none;visibility:visible;display:inline;overflow:visible;enable-background:accumulate;font-family:Sans;-inkscape-font-specification:Sans"
       d="m 85,11 0,14 32,0 0,-14 z m 14,1 6,6 -6,6 -13,0 0,-12 z"
       id="path3206" />
  </g>
  <g
     transform="matrix(0,1,-1,0,120,-69)"
     id="east-minslider">
    <path
       sodipodi:nodetypes="ccccc"
       id="path3210"
       d="m 87,5 0,-12 30,0 0,12 z"
       style="fill:#ffffff;fill-opacity:1;fill-rule:nonzero;stroke:none"
       inkscape:connector-curvature="0" />
    <path
       sodipodi:nodetypes="ccccccccccc"
       inkscape:connector-curvature="0"
       style="font-size:medium;font-style:normal;font-variant:normal;font-weight:normal;font-stretch:normal;text-indent:0;text-align:start;text-decoration:none;line-height:normal;letter-spacing:normal;word-spacing:normal;text-transform:none;direction:ltr;block-progression:tb;writing-mode:lr-tb;text-anchor:start;baseline-shift:baseline;color:#000000;fill:#b2b2b2;fill-opacity:1;fill-rule:nonzero;stroke:none;stroke-width:2;marker:none;visibility:visible;display:inline;overflow:visible;enable-background:accumulate;font-family:Sans;-inkscape-font-specification:Sans"
       d="m 86,-8 0,14 32,0 0,-14 z m 18,1 13,0 0,12 -13,0 -6,-6 z"
       id="path3212" />
  </g>
  <g
     id="west-offsetslider"
     transform="matrix(0,1,1,0,-7,0)">
    <path
       id="path3218"
       d="m 51,7 0,14 26,0 0,-14 z m 25,5 0,8 -24,0 0,-8 z"
       style="font-size:medium;font-style:normal;font-variant:normal;font-weight:normal;font-stretch:normal;text-indent:0;text-align:start;text-decoration:none;line-height:normal;letter-spacing:normal;word-spacing:normal;text-transform:none;direction:ltr;block-progression:tb;writing-mode:lr-tb;text-anchor:start;baseline-shift:baseline;color:#000000;fill:#b2b2b2;fill-opacity:1;fill-rule:nonzero;stroke:none;stroke-width:2;marker:none;visibility:visible;display:inline;overflow:visible;enable-background:accumulate;font-family:Sans;-inkscape-font-specification:Sans"
       inkscape:connector-curvature="0"
       sodipodi:nodetypes="cccccccccc" />
    <path
       inkscape:connector-curvature="0"
       style="fill:#ffffff;fill-opacity:1;fill-rule:nonzero;stroke:none"
       d="m 76,20 0,-8 -8,0 -4,-4 -4,4 -8,0 0,8 z"
       id="path3220"
       sodipodi:nodetypes="cccccccc" />
  </g>
  <g
     id="west-maxslider"
     transform="matrix(0,1,1,0,-11,-6)">
    <path
       inkscape:connector-curvature="0"
       sodipodi:nodetypes="ccccc"
       id="path3224"
       d="m 116,24 0,-12 -30,0 0,12 z"
       style="fill:#ffffff;fill-opacity:1;fill-rule:nonzero;stroke:none" />
    <path
       id="path3226"
       d="m 85,11 0,14 32,0 0,-14 z m 14,1 6,6 -6,6 -13,0 0,-12 z"
       style="font-size:medium;font-style:normal;font-variant:normal;font-weight:normal;font-stretch:normal;text-indent:0;text-align:start;text-decoration:none;line-height:normal;letter-spacing:normal;word-spacing:normal;text-transform:none;direction:ltr;block-progression:tb;writing-mode:lr-tb;text-anchor:start;baseline-shift:baseline;color:#000000;fill:#b2b2b2;fill-opacity:1;fill-rule:nonzero;stroke:none;stroke-width:2;marker:none;visibility:visible;display:inline;overflow:visible;enable-background:accumulate;font-family:Sans;-inkscape-font-specification:Sans"
       inkscape:connector-curvature="0"
       sodipodi:nodetypes="ccccccccccc" />
  </g>
  <g
     id="west-minslider"
     transform="matrix(0,1,1,0,8,-69)">
    <path
       inkscape:connector-curvature="0"
       style="fill:#ffffff;fill-opacity:1;fill-rule:nonzero;stroke:none"
       d="m 87,5 0,-12 30,0 0,12 z"
       id="path3230"
       sodipodi:nodetypes="ccccc" />
    <path
       id="path3232"
       d="m 86,-8 0,14 32,0 0,-14 z m 18,1 13,0 0,12 -13,0 -6,-6 z"
       style="font-size:medium;font-style:normal;font-variant:normal;font-weight:normal;font-stretch:normal;text-indent:0;text-align:start;text-decoration:none;line-height:normal;letter-spacing:normal;word-spacing:normal;text-transform:none;direction:ltr;block-progression:tb;writing-mode:lr-tb;text-anchor:start;baseline-shift:baseline;color:#000000;fill:#b2b2b2;fill-opacity:1;fill-rule:nonzero;stroke:none;stroke-width:2;marker:none;visibility:visible;display:inline;overflow:visible;enable-background:accumulate;font-family:Sans;-inkscape-font-specification:Sans"
       inkscape:connector-curvature="0"
       sodipodi:nodetypes="ccccccccccc" />
  </g>
</svg>
