<?xml version="1.0" encoding="UTF-8" standalone="no"?>
<svg
   xmlns:dc="http://purl.org/dc/elements/1.1/"
   xmlns:cc="http://creativecommons.org/ns#"
   xmlns:rdf="http://www.w3.org/1999/02/22-rdf-syntax-ns#"
   xmlns:svg="http://www.w3.org/2000/svg"
   xmlns="http://www.w3.org/2000/svg"
   xmlns:xlink="http://www.w3.org/1999/xlink"
   xmlns:sodipodi="http://sodipodi.sourceforge.net/DTD/sodipodi-0.dtd"
   xmlns:inkscape="http://www.inkscape.org/namespaces/inkscape"
   viewBox="0 0 128 300"
   id="svg2"
   version="1.1"
   inkscape:version="0.48.4 r9939"
   width="100%"
   height="100%"
   sodipodi:docname="listitem.svgz">
  <title
     id="title2995">Tilain</title>
  <metadata
     id="metadata34">
    <rdf:RDF>
      <cc:Work
         rdf:about="">
        <dc:format>image/svg+xml</dc:format>
        <dc:type
           rdf:resource="http://purl.org/dc/dcmitype/StillImage" />
        <dc:title>Tilain</dc:title>
        <cc:license
           rdf:resource="" />
      </cc:Work>
    </rdf:RDF>
  </metadata>
  <sodipodi:namedview
     pagecolor="#ffffff"
     bordercolor="#666666"
     borderopacity="1"
     objecttolerance="10"
     gridtolerance="10"
     guidetolerance="10"
     inkscape:pageopacity="0"
     inkscape:pageshadow="2"
     inkscape:window-width="1920"
     inkscape:window-height="1027"
     id="namedview32"
     showgrid="false"
     inkscape:zoom="1.3037282"
     inkscape:cx="-131.76737"
     inkscape:cy="158.25498"
     inkscape:window-x="0"
     inkscape:window-y="26"
     inkscape:window-maximized="1"
     inkscape:current-layer="separator" />
  <defs
     id="defs4">
    <radialGradient
       inkscape:collect="always"
       xlink:href="#linearGradient3205"
       id="radialGradient3844"
       gradientUnits="userSpaceOnUse"
       gradientTransform="matrix(0.06419612,0,0,0.2257731,57.97286,-72.996376)"
       cx="389.85434"
       cy="108.5"
       fx="389.85434"
       fy="108.5"
       r="373.85434" />
    <linearGradient
       id="linearGradient3205">
      <stop
         style="stop-color:#000000;stop-opacity:1;"
         offset="0"
         id="stop3207" />
      <stop
         style="stop-color:#000000;stop-opacity:0;"
         offset="1"
         id="stop3209" />
    </linearGradient>
  </defs>
  <g
     id="separator"
     style="opacity:0"
     transform="translate(-48.999993,229)">
    <rect
       style="opacity:0.25;fill:url(#radialGradient3844);fill-opacity:1;stroke:none"
       id="rect3062"
       width="48"
       height="1"
       x="59"
       y="-49"
       transform="scale(1,-1)" />
  </g>
  <path
     inkscape:connector-curvature="0"
     id="pressed-center"
     d="m 4.000003,286 -3e-4,10.00002 10.000304,-2e-5 3e-4,-10.00002 z"
     style="fill:#e5e5e5;fill-opacity:1;fill-rule:nonzero;stroke:none"
     sodipodi:nodetypes="ccccc" />
  <g
     id="pressed-top"
     transform="translate(-60.0003,225.99967)">
    <rect
       style="opacity:0;fill:#000000;fill-opacity:1;stroke:none"
       id="rect3924"
       width="10.000301"
       height="2.99998"
       x="20"
       y="8"
       transform="translate(44.0003,49.00033)" />
    <path
       style="fill:#e5e5e5;fill-opacity:1;fill-rule:nonzero;stroke:none"
       d="m 64.0003,58.00033 0,2 10,0 0,-2 z"
       id="path4824"
       inkscape:connector-curvature="0"
       sodipodi:nodetypes="ccccc" />
    <path
       sodipodi:nodetypes="ccccc"
       inkscape:connector-curvature="0"
       id="path3881"
       d="m 64.0003,58.00033 0,1 10,0 0,-1 z"
       style="fill:#e5e5e5;fill-opacity:1;fill-rule:nonzero;stroke:none" />
  </g>
  <g
     id="pressed-topleft"
     transform="translate(-60.0003,226.99967)">
    <rect
       transform="translate(44.0003,49.00033)"
       y="6"
       x="16"
       height="4"
       width="4"
       id="rect3936"
       style="opacity:0;fill:#000000;fill-opacity:1;stroke:none" />
    <path
       style="fill:#e5e5e5;fill-opacity:1;fill-rule:nonzero;stroke:none"
       d="m 64,57.000345 -1.9997,-1.5e-5 -3e-4,2.000015 2.0003,-1.5e-5 z"
       id="path4832"
       inkscape:connector-curvature="0"
       sodipodi:nodetypes="ccccc" />
    <path
       sodipodi:nodetypes="ccccccc"
       inkscape:connector-curvature="0"
       id="path3877"
       d="m 64,57.000345 -1.9997,-1.5e-5 0,2 1,0 0,-1 1,0 z"
       style="fill:#e5e5e5;fill-opacity:1;fill-rule:nonzero;stroke:none" />
  </g>
  <g
     id="pressed-topright"
     transform="translate(-60.999999,226.99967)">
    <rect
       style="opacity:0;fill:#000000;fill-opacity:1;stroke:none"
       id="rect3926"
       width="4"
       height="4"
       x="31"
       y="6"
       transform="translate(44.0003,49.00033)" />
    <path
       style="fill:#e5e5e5;fill-opacity:1;fill-rule:nonzero;stroke:none"
       d="m 74.999999,57.000345 0,2 2,0 3.01e-4,-2.000015 z"
       id="path4838"
       inkscape:connector-curvature="0"
       sodipodi:nodetypes="ccccc" />
    <path
       sodipodi:nodetypes="ccccccc"
       inkscape:connector-curvature="0"
       id="path3879"
       d="m 74.999999,57.000345 3.01e-4,0.999985 1,0 0,1 0.999699,1.5e-5 3.01e-4,-2.000015 z"
       style="fill:#e5e5e5;fill-opacity:1;fill-rule:nonzero;stroke:none" />
  </g>
  <g
     id="pressed-bottomleft"
     transform="translate(-60.0003,225.99967)">
    <rect
       transform="translate(44.0003,49.00033)"
       y="21"
       x="16"
       height="4"
       width="4"
       id="rect3940"
       style="opacity:0;fill:#000000;fill-opacity:1;stroke:none" />
    <path
       style="fill:#e5e5e5;fill-opacity:1;fill-rule:nonzero;stroke:none"
       d="m 62,70.000345 3e-4,1.999985 1.9997,1.5e-5 0,-2 z"
       id="path4844"
       inkscape:connector-curvature="0"
       sodipodi:nodetypes="ccccc" />
    <path
       sodipodi:nodetypes="ccccccc"
       inkscape:connector-curvature="0"
       id="path3885"
       d="m 62,70.000345 3e-4,1.999985 1.9997,1.5e-5 3e-4,-1.000015 -1,0 0,-1 z"
       style="fill:#e5e5e5;fill-opacity:1;fill-rule:nonzero;stroke:none" />
  </g>
  <g
     id="pressed-bottom"
     transform="translate(-60,226)">
    <rect
       transform="translate(44,49)"
       y="21"
       x="20"
       height="4"
       width="10"
       id="rect3942"
       style="opacity:0;fill:#000000;fill-opacity:1;stroke:none" />
    <path
       style="fill:#e5e5e5;fill-opacity:1;stroke:none"
       d="m 20,21 0,2 10.000001,-1e-6 0,-2 z"
       transform="translate(44,49)"
       id="rect3955"
       inkscape:connector-curvature="0"
       sodipodi:nodetypes="ccccc" />
    <path
       id="path3958"
       transform="translate(44,49)"
       d="m 20,22 0,1 10.000001,-1e-6 0,-1 z"
       style="fill:#e5e5e5;fill-opacity:1;stroke:none"
       inkscape:connector-curvature="0"
       sodipodi:nodetypes="ccccc" />
  </g>
  <g
     id="pressed-bottomright"
     transform="translate(-61,226)">
    <rect
       style="opacity:0;fill:#000000;fill-opacity:1;stroke:none"
       id="rect3930"
       width="4"
       height="4"
       x="31"
       y="21"
       transform="translate(44,49)" />
    <path
       style="fill:#e5e5e5;fill-opacity:1;fill-rule:nonzero;stroke:none"
       d="m 75,70 0,2 2,0 0,-2 z"
       id="path4856"
       inkscape:connector-curvature="0"
       sodipodi:nodetypes="ccccc" />
    <path
       sodipodi:nodetypes="ccccccc"
       inkscape:connector-curvature="0"
       id="path3889"
       d="m 75,71 0,1 2,0 0,-2 -1,0 0,1 z"
       style="fill:#e5e5e5;fill-opacity:1;fill-rule:nonzero;stroke:none" />
  </g>
  <g
     id="pressed-left"
     transform="translate(-15.999997,275)">
    <rect
       y="11"
       x="16"
       height="10"
       width="4"
       id="rect3946"
       style="opacity:0;fill:#000000;fill-opacity:1;stroke:none" />
    <path
       style="fill:#e5e5e5;fill-opacity:1;stroke:none"
       d="m 18,11 0,10 2,0 0,-10 z"
       id="rect3950"
       inkscape:connector-curvature="0"
       sodipodi:nodetypes="ccccc" />
    <path
       id="path3953"
       d="m 18,11 0,10 1,0 0,-10 z"
       style="fill:#e5e5e5;fill-opacity:1;stroke:none"
       inkscape:connector-curvature="0"
       sodipodi:nodetypes="ccccc" />
  </g>
  <g
     id="pressed-right"
     transform="translate(-15.999697,274.99998)">
    <rect
       style="opacity:0;fill:#000000;fill-opacity:1;stroke:none"
       id="rect3928"
       width="3.9999995"
       height="10"
       x="29.999701"
       y="11.00002" />
    <path
       style="fill:#e5e5e5;fill-opacity:1;stroke:none"
       d="m 30,11 0,10 2,0 0,-10 z"
       transform="translate(-3e-4,2e-5)"
       id="rect3960"
       inkscape:connector-curvature="0"
       sodipodi:nodetypes="ccccc" />
    <path
       id="path3963"
       transform="translate(-3e-4,2e-5)"
       d="m 31,11 0,10 1,0 0,-10 z"
       style="fill:#e5e5e5;fill-opacity:1;stroke:none"
       inkscape:connector-curvature="0"
       sodipodi:nodetypes="ccccc" />
  </g>
  <rect
     y="290"
     x="2.0000031"
     height="2"
     width="1"
     id="pressed-hint-left-margin"
     style="fill:#ff00a8;fill-opacity:1;fill-rule:nonzero;stroke:none" />
  <rect
     style="fill:#ff00a8;fill-opacity:1;fill-rule:nonzero;stroke:none"
     id="pressed-hint-right-margin"
     width="1"
     height="2"
     x="15.00001"
     y="290" />
  <rect
     style="fill:#ff00a8;fill-opacity:1;fill-rule:nonzero;stroke:none"
     id="pressed-hint-top-margin"
     width="2"
     height="1"
     x="7.9999957"
     y="284" />
  <rect
     y="297"
     x="7.9999957"
     height="1"
     width="2"
     id="pressed-hint-bottom-margin"
     style="fill:#ff00a8;fill-opacity:1;fill-rule:nonzero;stroke:none" />
  <path
     sodipodi:nodetypes="ccccc"
     style="opacity:0;fill:#e5e5e5;fill-opacity:1;fill-rule:nonzero;stroke:none"
     d="m 24.000007,286 -3e-4,10.00002 10.0003,-2e-5 3e-4,-10.00002 z"
     id="normal-center"
     inkscape:connector-curvature="0" />
  <g
     transform="translate(-40.0003,225.99967)"
     id="normal-top"
     style="opacity:0">
    <rect
       transform="translate(44.0003,49.00033)"
       y="8"
       x="20"
       height="2.99998"
       width="10.000301"
       id="rect3975"
       style="opacity:0;fill:#000000;fill-opacity:1;stroke:none" />
    <path
       sodipodi:nodetypes="ccccc"
       inkscape:connector-curvature="0"
       id="path3977"
       d="m 64.0003,58.00033 0,2 10,0 0,-2 z"
       style="fill:#e5e5e5;fill-opacity:1;fill-rule:nonzero;stroke:none" />
    <path
       style="fill:#e5e5e5;fill-opacity:1;fill-rule:nonzero;stroke:none"
       d="m 64.0003,58.00033 0,1 10,0 0,-1 z"
       id="path3979"
       inkscape:connector-curvature="0"
       sodipodi:nodetypes="ccccc" />
  </g>
  <g
     transform="translate(-40.0003,226.99967)"
     id="normal-topleft"
     style="opacity:0">
    <rect
       style="opacity:0;fill:#000000;fill-opacity:1;stroke:none"
       id="rect3983"
       width="4"
       height="4"
       x="16"
       y="6"
       transform="translate(44.0003,49.00033)" />
    <path
       sodipodi:nodetypes="ccccc"
       inkscape:connector-curvature="0"
       id="path3985"
       d="m 64,57.000345 -1.9997,-1.5e-5 -3e-4,2.000015 2.0003,-1.5e-5 z"
       style="fill:#e5e5e5;fill-opacity:1;fill-rule:nonzero;stroke:none" />
    <path
       style="fill:#e5e5e5;fill-opacity:1;fill-rule:nonzero;stroke:none"
       d="m 64,57.000345 -1.9997,-1.5e-5 0,2 1,0 0,-1 1,0 z"
       id="path3987"
       inkscape:connector-curvature="0"
       sodipodi:nodetypes="ccccccc" />
  </g>
  <g
     transform="translate(-40.999999,226.99967)"
     id="normal-topright"
     style="opacity:0">
    <rect
       transform="translate(44.0003,49.00033)"
       y="6"
       x="31"
       height="4"
       width="4"
       id="rect3991"
       style="opacity:0;fill:#000000;fill-opacity:1;stroke:none" />
    <path
       sodipodi:nodetypes="ccccc"
       inkscape:connector-curvature="0"
       id="path3993"
       d="m 74.999999,57.000345 0,2 2,0 3.01e-4,-2.000015 z"
       style="fill:#e5e5e5;fill-opacity:1;fill-rule:nonzero;stroke:none" />
    <path
       style="fill:#e5e5e5;fill-opacity:1;fill-rule:nonzero;stroke:none"
       d="m 74.999999,57.000345 3.01e-4,0.999985 1,0 0,1 0.999699,1.5e-5 3.01e-4,-2.000015 z"
       id="path3995"
       inkscape:connector-curvature="0"
       sodipodi:nodetypes="ccccccc" />
  </g>
  <g
     transform="translate(-40.0003,225.99967)"
     id="normal-bottomleft"
     style="opacity:0">
    <rect
       style="opacity:0;fill:#000000;fill-opacity:1;stroke:none"
       id="rect3999"
       width="4"
       height="4"
       x="16"
       y="21"
       transform="translate(44.0003,49.00033)" />
    <path
       sodipodi:nodetypes="ccccc"
       inkscape:connector-curvature="0"
       id="path4001"
       d="m 62,70.000345 3e-4,1.999985 1.9997,1.5e-5 0,-2 z"
       style="fill:#e5e5e5;fill-opacity:1;fill-rule:nonzero;stroke:none" />
    <path
       style="fill:#e5e5e5;fill-opacity:1;fill-rule:nonzero;stroke:none"
       d="m 62,70.000345 3e-4,1.999985 1.9997,1.5e-5 3e-4,-1.000015 -1,0 0,-1 z"
       id="path4003"
       inkscape:connector-curvature="0"
       sodipodi:nodetypes="ccccccc" />
  </g>
  <g
     transform="translate(-40,226)"
     id="normal-bottom"
     style="opacity:0">
    <rect
       style="opacity:0;fill:#000000;fill-opacity:1;stroke:none"
       id="rect4007"
       width="10"
       height="4"
       x="20"
       y="21"
       transform="translate(44,49)" />
    <path
       sodipodi:nodetypes="ccccc"
       inkscape:connector-curvature="0"
       id="path4009"
       transform="translate(44,49)"
       d="m 20,21 0,2 10.000001,-1e-6 0,-2 z"
       style="fill:#e5e5e5;fill-opacity:1;stroke:none" />
    <path
       sodipodi:nodetypes="ccccc"
       inkscape:connector-curvature="0"
       style="fill:#e5e5e5;fill-opacity:1;stroke:none"
       d="m 20,22 0,1 10.000001,-1e-6 0,-1 z"
       transform="translate(44,49)"
       id="path4011" />
  </g>
  <g
     transform="translate(-41,226)"
     id="normal-bottomright"
     style="opacity:0">
    <rect
       transform="translate(44,49)"
       y="21"
       x="31"
       height="4"
       width="4"
       id="rect4015"
       style="opacity:0;fill:#000000;fill-opacity:1;stroke:none" />
    <path
       sodipodi:nodetypes="ccccc"
       inkscape:connector-curvature="0"
       id="path4017"
       d="m 75,70 0,2 2,0 0,-2 z"
       style="fill:#e5e5e5;fill-opacity:1;fill-rule:nonzero;stroke:none" />
    <path
       style="fill:#e5e5e5;fill-opacity:1;fill-rule:nonzero;stroke:none"
       d="m 75,71 0,1 2,0 0,-2 -1,0 0,1 z"
       id="path4019"
       inkscape:connector-curvature="0"
       sodipodi:nodetypes="ccccccc" />
  </g>
  <g
     id="normal-left"
     transform="translate(4.000003,275)"
     style="opacity:0">
    <rect
       style="opacity:0;fill:#000000;fill-opacity:1;stroke:none"
       id="rect4023"
       width="4"
       height="10"
       x="16"
       y="11" />
    <path
       sodipodi:nodetypes="ccccc"
       inkscape:connector-curvature="0"
       id="path4025"
       d="m 18,11 0,10 2,0 0,-10 z"
       style="fill:#e5e5e5;fill-opacity:1;stroke:none" />
    <path
       sodipodi:nodetypes="ccccc"
       inkscape:connector-curvature="0"
       style="fill:#e5e5e5;fill-opacity:1;stroke:none"
       d="m 18,11 0,10 1,0 0,-10 z"
       id="path4027" />
  </g>
  <g
     transform="translate(4.000303,274.99998)"
     id="normal-right"
     style="opacity:0">
    <rect
       y="11.00002"
       x="29.999701"
       height="10"
       width="3.9999995"
       id="rect4031"
       style="opacity:0;fill:#000000;fill-opacity:1;stroke:none" />
    <path
       sodipodi:nodetypes="ccccc"
       inkscape:connector-curvature="0"
       id="path4033"
       transform="translate(-3e-4,2e-5)"
       d="m 30,11 0,10 2,0 0,-10 z"
       style="fill:#e5e5e5;fill-opacity:1;stroke:none" />
    <path
       sodipodi:nodetypes="ccccc"
       inkscape:connector-curvature="0"
       style="fill:#e5e5e5;fill-opacity:1;stroke:none"
       d="m 31,11 0,10 1,0 0,-10 z"
       transform="translate(-3e-4,2e-5)"
       id="path4035" />
  </g>
  <rect
     style="fill:#ff00a8;fill-opacity:1;fill-rule:nonzero;stroke:none"
     id="normal-hint-left-margin"
     width="1"
     height="2"
     x="21.999996"
     y="290" />
  <rect
     y="290"
     x="35.000011"
     height="2"
     width="1"
     id="normal-hint-right-margin"
     style="fill:#ff00a8;fill-opacity:1;fill-rule:nonzero;stroke:none" />
  <rect
     y="284"
     x="27.999996"
     height="1"
     width="2"
     id="normal-hint-top-margin"
     style="fill:#ff00a8;fill-opacity:1;fill-rule:nonzero;stroke:none" />
  <rect
     style="fill:#ff00a8;fill-opacity:1;fill-rule:nonzero;stroke:none"
     id="normal-hint-bottom-margin"
     width="2"
     height="1"
     x="27.999996"
     y="297" />
  <path
     inkscape:connector-curvature="0"
     id="section-center"
     d="m 44.000007,286 -3e-4,10.00002 10.0003,-2e-5 3e-4,-10.00002 z"
     style="opacity:0;fill:#e5e5e5;fill-opacity:1;fill-rule:nonzero;stroke:none"
     sodipodi:nodetypes="ccccc" />
  <g
     id="section-top"
     transform="translate(-20.000297,225.99967)"
     style="opacity:0">
    <rect
       style="opacity:0;fill:#000000;fill-opacity:1;stroke:none"
       id="rect4075"
       width="10.000301"
       height="2.99998"
       x="20"
       y="8"
       transform="translate(44.0003,49.00033)" />
    <path
       style="fill:#e5e5e5;fill-opacity:1;fill-rule:nonzero;stroke:none"
       d="m 64.0003,58.00033 0,2 10,0 0,-2 z"
       id="path4077"
       inkscape:connector-curvature="0"
       sodipodi:nodetypes="ccccc" />
    <path
       sodipodi:nodetypes="ccccc"
       inkscape:connector-curvature="0"
       id="path4079"
       d="m 64.0003,58.00033 0,1 10,0 0,-1 z"
       style="fill:#cccccc;fill-opacity:1;fill-rule:nonzero;stroke:none" />
  </g>
  <g
     id="section-topleft"
     transform="translate(-20.000297,226.99967)"
     style="opacity:0">
    <rect
       transform="translate(44.0003,49.00033)"
       y="6"
       x="16"
       height="4"
       width="4"
       id="rect4083"
       style="opacity:0;fill:#000000;fill-opacity:1;stroke:none" />
    <path
       style="fill:#e5e5e5;fill-opacity:1;fill-rule:nonzero;stroke:none"
       d="m 64,57.000345 -1.9997,-1.5e-5 -3e-4,2.000015 2.0003,-1.5e-5 z"
       id="path4085"
       inkscape:connector-curvature="0"
       sodipodi:nodetypes="ccccc" />
    <path
       sodipodi:nodetypes="ccccccc"
       inkscape:connector-curvature="0"
       id="path4087"
       d="m 64,57.000345 -1.9997,-1.5e-5 0,2 1,0 0,-1 1,0 z"
       style="fill:#cccccc;fill-opacity:1;fill-rule:nonzero;stroke:none" />
  </g>
  <g
     id="section-topright"
     transform="translate(-20.999997,226.99967)"
     style="opacity:0">
    <rect
       style="opacity:0;fill:#000000;fill-opacity:1;stroke:none"
       id="rect4091"
       width="4"
       height="4"
       x="31"
       y="6"
       transform="translate(44.0003,49.00033)" />
    <path
       style="fill:#e5e5e5;fill-opacity:1;fill-rule:nonzero;stroke:none"
       d="m 74.999999,57.000345 0,2 2,0 3.01e-4,-2.000015 z"
       id="path4093"
       inkscape:connector-curvature="0"
       sodipodi:nodetypes="ccccc" />
    <path
       sodipodi:nodetypes="ccccccc"
       inkscape:connector-curvature="0"
       id="path4095"
       d="m 74.999999,57.000345 3.01e-4,0.999985 1,0 0,1 0.999699,1.5e-5 3.01e-4,-2.000015 z"
       style="fill:#cccccc;fill-opacity:1;fill-rule:nonzero;stroke:none" />
  </g>
  <g
     id="section-bottomleft"
     transform="translate(-20.000297,225.99967)"
     style="opacity:0">
    <rect
       transform="translate(44.0003,49.00033)"
       y="21"
       x="16"
       height="4"
       width="4"
       id="rect4099"
       style="opacity:0;fill:#000000;fill-opacity:1;stroke:none" />
    <path
       style="fill:#e5e5e5;fill-opacity:1;fill-rule:nonzero;stroke:none"
       d="m 62,70.000345 3e-4,1.999985 1.9997,1.5e-5 0,-2 z"
       id="path4101"
       inkscape:connector-curvature="0"
       sodipodi:nodetypes="ccccc" />
    <path
       sodipodi:nodetypes="ccccccc"
       inkscape:connector-curvature="0"
       id="path4103"
       d="m 62,70.000345 3e-4,1.999985 1.9997,1.5e-5 3e-4,-1.000015 -1,0 0,-1 z"
       style="fill:#cccccc;fill-opacity:1;fill-rule:nonzero;stroke:none" />
  </g>
  <g
     id="section-bottom"
     transform="translate(-19.999997,226)"
     style="opacity:0">
    <rect
       transform="translate(44,49)"
       y="21"
       x="20"
       height="4"
       width="10"
       id="rect4107"
       style="opacity:0;fill:#000000;fill-opacity:1;stroke:none" />
    <path
       style="fill:#e5e5e5;fill-opacity:1;stroke:none"
       d="m 20,21 0,2 10.000001,-1e-6 0,-2 z"
       transform="translate(44,49)"
       id="path4109"
       inkscape:connector-curvature="0"
       sodipodi:nodetypes="ccccc" />
    <path
       id="path4111"
       transform="translate(44,49)"
       d="m 20,22 0,1 10.000001,-1e-6 0,-1 z"
       style="fill:#cccccc;fill-opacity:1;stroke:none"
       inkscape:connector-curvature="0"
       sodipodi:nodetypes="ccccc" />
  </g>
  <g
     id="section-bottomright"
     transform="translate(-20.999997,226)"
     style="opacity:0">
    <rect
       style="opacity:0;fill:#000000;fill-opacity:1;stroke:none"
       id="rect4115"
       width="4"
       height="4"
       x="31"
       y="21"
       transform="translate(44,49)" />
    <path
       style="fill:#e5e5e5;fill-opacity:1;fill-rule:nonzero;stroke:none"
       d="m 75,70 0,2 2,0 0,-2 z"
       id="path4117"
       inkscape:connector-curvature="0"
       sodipodi:nodetypes="ccccc" />
    <path
       sodipodi:nodetypes="ccccccc"
       inkscape:connector-curvature="0"
       id="path4119"
       d="m 75,71 0,1 2,0 0,-2 -1,0 0,1 z"
       style="fill:#cccccc;fill-opacity:1;fill-rule:nonzero;stroke:none" />
  </g>
  <g
     transform="translate(24.000007,275)"
     id="section-left"
     style="opacity:0">
    <rect
       y="11"
       x="16"
       height="10"
       width="4"
       id="rect4123"
       style="opacity:0;fill:#000000;fill-opacity:1;stroke:none" />
    <path
       style="fill:#e5e5e5;fill-opacity:1;stroke:none"
       d="m 18,11 0,10 2,0 0,-10 z"
       id="path4125"
       inkscape:connector-curvature="0"
       sodipodi:nodetypes="ccccc" />
    <path
       id="path4127"
       d="m 18,11 0,10 1,0 0,-10 z"
       style="fill:#cccccc;fill-opacity:1;stroke:none"
       inkscape:connector-curvature="0"
       sodipodi:nodetypes="ccccc" />
  </g>
  <g
     id="section-right"
     transform="translate(24.000307,274.99998)"
     style="opacity:0">
    <rect
       style="opacity:0;fill:#000000;fill-opacity:1;stroke:none"
       id="rect4131"
       width="3.9999995"
       height="10"
       x="29.999701"
       y="11.00002" />
    <path
       style="fill:#e5e5e5;fill-opacity:1;stroke:none"
       d="m 30,11 0,10 2,0 0,-10 z"
       transform="translate(-3e-4,2e-5)"
       id="path4133"
       inkscape:connector-curvature="0"
       sodipodi:nodetypes="ccccc" />
    <path
       id="path4135"
       transform="translate(-3e-4,2e-5)"
       d="m 31,11 0,10 1,0 0,-10 z"
       style="fill:#cccccc;fill-opacity:1;stroke:none"
       inkscape:connector-curvature="0"
       sodipodi:nodetypes="ccccc" />
  </g>
  <rect
     y="290"
     x="41.999989"
     height="2"
     width="1"
     id="section-hint-left-margin"
     style="fill:#ff00a8;fill-opacity:1;fill-rule:nonzero;stroke:none" />
  <rect
     style="fill:#ff00a8;fill-opacity:1;fill-rule:nonzero;stroke:none"
     id="section-hint-right-margin"
     width="1"
     height="2"
     x="54.999989"
     y="290" />
  <rect
     style="fill:#ff00a8;fill-opacity:1;fill-rule:nonzero;stroke:none"
     id="section-hint-top-margin"
     width="2"
     height="1"
     x="47.999989"
     y="284" />
  <rect
     y="297"
     x="47.999989"
     height="1"
     width="2"
     id="section-hint-bottom-margin"
     style="fill:#ff00a8;fill-opacity:1;fill-rule:nonzero;stroke:none" />
</svg>
