<?xml version="1.0" encoding="UTF-8" standalone="no"?>
<svg
   xmlns:dc="http://purl.org/dc/elements/1.1/"
   xmlns:cc="http://creativecommons.org/ns#"
   xmlns:rdf="http://www.w3.org/1999/02/22-rdf-syntax-ns#"
   xmlns:svg="http://www.w3.org/2000/svg"
   xmlns="http://www.w3.org/2000/svg"
   xmlns:sodipodi="http://sodipodi.sourceforge.net/DTD/sodipodi-0.dtd"
   xmlns:inkscape="http://www.inkscape.org/namespaces/inkscape"
   viewBox="0 0 256 256"
   id="svg2"
   version="1.1"
   inkscape:version="0.48.4 r9939"
   width="100%"
   height="100%"
   sodipodi:docname="monitor.svgz">
  <title
     id="title2995">Tilain</title>
  <metadata
     id="metadata34">
    <rdf:RDF>
      <cc:Work
         rdf:about="">
        <dc:format>image/svg+xml</dc:format>
        <dc:type
           rdf:resource="http://purl.org/dc/dcmitype/StillImage" />
        <dc:title>Tilain</dc:title>
        <cc:license
           rdf:resource="" />
      </cc:Work>
    </rdf:RDF>
  </metadata>
  <sodipodi:namedview
     pagecolor="#ffffff"
     bordercolor="#666666"
     borderopacity="1"
     objecttolerance="10"
     gridtolerance="10"
     guidetolerance="10"
     inkscape:pageopacity="0"
     inkscape:pageshadow="2"
     inkscape:window-width="1920"
     inkscape:window-height="1027"
     id="namedview32"
     showgrid="false"
     inkscape:zoom="2.6074563"
     inkscape:cx="-14.886276"
     inkscape:cy="122.74399"
     inkscape:window-x="0"
     inkscape:window-y="26"
     inkscape:window-maximized="1"
     inkscape:current-layer="svg2" />
  <defs
     id="defs4" />
  <g
     style="display:inline"
     id="center"
     transform="translate(157,136)">
    <rect
       style="opacity:0.84090905;fill:#43b1f6;fill-opacity:1;fill-rule:evenodd;stroke:none"
       id="rect4941"
       width="190"
       height="124"
       x="-125"
       y="-100"
       rx="0"
       ry="0" />
    <path
       inkscape:connector-curvature="0"
       style="fill:#ffffff;fill-opacity:0.4;fill-rule:evenodd;stroke:none"
       d="m -125,-99.998329 0,123.998089 190,0 0,-123.998089 z m 2,1.998329 186,0 0,120 -186,0 z"
       id="path4945"
       sodipodi:nodetypes="cccccccccc" />
  </g>
  <g
     style="display:inline"
     id="topleft"
     transform="matrix(2,0,0,1.9999692,146,207.99735)">
    <path
       style="fill:#262626;fill-opacity:1;fill-rule:evenodd;stroke:none"
       d="m 11,34 c 0,4.666667 0,9.333333 0,14 3.333333,0 6.666667,0 10,0 0,-4.666667 0,-9.333333 0,-14 z"
       transform="matrix(0.5,0,0,0.5000077,-68.5,-111.00038)"
       id="path5011"
       inkscape:connector-curvature="0"
       sodipodi:nodetypes="ccccc" />
  </g>
  <g
     style="display:inline"
     id="bottomleft"
     transform="matrix(2,0,0,1.9999692,146,207.99954)">
    <path
       style="fill:#262626;fill-opacity:1;fill-rule:evenodd;stroke:none"
       d="m 11,178 0,14 10,0 0,-14 z"
       transform="matrix(0.5,0,0,0.5000077,-68.5,-111.00148)"
       id="path4931"
       inkscape:connector-curvature="0"
       sodipodi:nodetypes="ccccc" />
  </g>
  <g
     transform="translate(8.999998,136.1)"
     style="display:inline"
     id="glass">
    <path
       sodipodi:nodetypes="ccccc"
       inkscape:connector-curvature="0"
       id="path4275"
       d="M 23,-99.998412 23,23.9 213,23.80032 213,-100.1 z"
       style="opacity:0;fill:#bcbcbc;fill-opacity:1;fill-rule:evenodd;stroke:none" />
  </g>
  <g
     style="display:inline"
     id="left"
     transform="matrix(2,0,0,1.9999692,194,207.99926)">
    <path
       style="fill:#262626;fill-opacity:1;fill-rule:evenodd;stroke:none"
       d="m 11,50 0,124 10,0 0,-124 z"
       transform="matrix(0.5,0,0,0.5000077,-92.5,-111.00134)"
       id="path4966"
       inkscape:connector-curvature="0"
       sodipodi:nodetypes="ccccc" />
  </g>
  <g
     style="display:inline"
     id="top"
     transform="matrix(1.9791667,0,0,1.9999692,315.02084,-3.99938)">
    <path
       inkscape:connector-curvature="0"
       style="fill:#262626;fill-opacity:1;fill-rule:evenodd;stroke:none"
       d="m 23,34 0,1 0,13 190,0 0,-13 0,-1 -190,0 z"
       transform="matrix(0.50526315,0,0,0.5000077,-154.62105,-5.000387)"
       id="path5106" />
  </g>
  <g
     style="display:inline"
     id="bottom"
     transform="matrix(1.9791667,0,0,1.9999692,315.02084,-3.9972)">
    <path
       inkscape:connector-curvature="0"
       style="fill:#262626;fill-opacity:1;fill-rule:evenodd;stroke:none"
       d="m 23,178 0,13 0,1 190,0 0,-14 L 70.125,178 23,178 z"
       transform="matrix(0.50526315,0,0,0.5000077,-154.62105,-5.001477)"
       id="path5054" />
  </g>
  <g
     style="display:inline"
     transform="matrix(-2,0,0,1.9999692,107,207.99735)"
     id="topright">
    <path
       style="fill:#262626;fill-opacity:1;fill-rule:evenodd;stroke:none"
       d="m 214,34 0,14 10,0 0,-14 z"
       transform="matrix(-0.5,0,0,0.5000077,49,-111.00038)"
       id="path4335"
       inkscape:connector-curvature="0"
       sodipodi:nodetypes="ccccc" />
  </g>
  <g
     style="display:inline"
     transform="matrix(-2,0,0,1.9999692,107,207.99954)"
     id="bottomright">
    <path
       style="fill:#262626;fill-opacity:1;fill-rule:evenodd;stroke:none"
       d="m 214,178 0,14 10,0 0,-14 z"
       transform="matrix(-0.5,0,0,0.5000077,49,-111.00148)"
       id="path4343"
       inkscape:connector-curvature="0"
       sodipodi:nodetypes="ccccc" />
  </g>
  <g
     style="display:inline"
     transform="matrix(-2,0,0,1.9999692,59.000002,207.99926)"
     id="right">
    <path
       style="fill:#262626;fill-opacity:1;fill-rule:evenodd;stroke:none"
       d="m 214,50 0,124 10,0 0,-124 z"
       transform="matrix(-0.5,0,0,0.5000077,25.000001,-111.00134)"
       id="path4351"
       inkscape:connector-curvature="0"
       sodipodi:nodetypes="ccccc" />
  </g>
  <path
     style="fill:#262626;fill-opacity:1;stroke:none;display:inline"
     d="m 113,178 0,32 -24,0 -12,24 100,0 -12,-24 -24,0 0,-32 -28,0 z"
     id="base"
     inkscape:connector-curvature="0" />
</svg>
